SplineFontDB: 3.2
FontName: EdmundMcMillen_v2
FullName: EdmundMcMillen_v2
FamilyName: EdmundMcMillen_v2
Weight: Book
Copyright: Made with yourfonts.com. Copyright Edmund McMillen (c) 2018
Version: 1.00 May 21, 2018, initial release, www.yourfonts.com
ItalicAngle: 0
UnderlinePosition: -292
UnderlineWidth: 150
Ascent: 1638
Descent: 410
InvalidEm: 0
sfntRevision: 0x00010000
LayerCount: 2
Layer: 0 1 "Back" 1
Layer: 1 1 "Fore" 0
XUID: [1021 861 -1696275505 24021]
StyleMap: 0x0040
FSType: 8
OS2Version: 3
OS2_WeightWidthSlopeOnly: 0
OS2_UseTypoMetrics: 0
CreationTime: 1526935395
ModificationTime: 1679735347
PfmFamily: 65
TTFWeight: 400
TTFWidth: 5
LineGap: 0
VLineGap: 0
Panose: 3 0 6 0 0 0 0 0 0 0
OS2TypoAscent: 1023
OS2TypoAOffset: 0
OS2TypoDescent: -149
OS2TypoDOffset: 0
OS2TypoLinegap: 205
OS2WinAscent: 1938
OS2WinAOffset: 0
OS2WinDescent: 418
OS2WinDOffset: 0
HheadAscent: 1938
HheadAOffset: 0
HheadDescent: -418
HheadDOffset: 0
OS2SubXSize: 1434
OS2SubYSize: 1331
OS2SubXOff: 0
OS2SubYOff: 283
OS2SupXSize: 1434
OS2SupYSize: 1331
OS2SupXOff: 0
OS2SupYOff: 977
OS2StrikeYSize: 102
OS2StrikeYPos: 530
OS2CapHeight: 1768
OS2XHeight: 1022
OS2Vendor: 'YOUR'
OS2CodePages: 00000001.00000000
OS2UnicodeRanges: 00000001.00000000.00000000.00000000
MarkAttachClasses: 1
DEI: 91125
ShortTable: maxp 16
  1
  0
  140
  134
  4
  0
  0
  1
  0
  0
  0
  0
  0
  0
  0
  0
EndShort
LangName: 1033 "Made with yourfonts.com. Copyright Edmund McMillen +AKkA 2018" "" "Regular" "FontForge 2.0 : EdmundMcMillen_v2 : 12-10-2021" "" "Version 1.00 May 21, 2018, initial release, www.yourfonts.com" "" "" "" "" "This font was created using the online font generation service from yourfonts.com"
GaspTable: 1 65535 10 1
Encoding: UnicodeBmp
UnicodeInterp: none
NameList: AGL For New Fonts
DisplaySize: -48
AntiAlias: 1
FitToEm: 0
WinInfo: 0 39 14
BeginChars: 65538 140

StartChar: .notdef
Encoding: 65536 -1 0
Width: 1373
GlyphClass: 1
Flags: W
LayerCount: 2
Fore
SplineSet
60 0 m 1,0,-1
 60 1713 l 1,1,-1
 1293 1713 l 1,2,-1
 1293 0 l 1,3,-1
 60 0 l 1,0,-1
140 80 m 1,4,-1
 1213 80 l 1,5,-1
 1213 1633 l 1,6,-1
 140 1633 l 1,7,-1
 140 80 l 1,4,-1
EndSplineSet
Validated: 1
EndChar

StartChar: exclam
Encoding: 33 33 4
Width: 715
GlyphClass: 2
Flags: W
LayerCount: 2
Fore
SplineSet
315 1895 m 2,0,-1
 358 1895 l 2,1,2
 443 1895 443 1895 528 1619 c 1,3,-1
 528 1406 l 2,4,5
 528 1206 528 1206 550 1001 c 1,6,7
 550 447 550 447 315 447 c 2,8,-1
 294 447 l 1,9,10
 140 480 140 480 81 1640 c 1,11,12
 177 1895 177 1895 315 1895 c 2,0,-1
252 213 m 1,13,-1
 379 213 l 1,14,15
 550 197 550 197 550 64 c 0,16,17
 550 -128 550 -128 379 -128 c 2,18,-1
 252 -128 l 1,19,20
 145 -73 145 -73 145 43 c 2,21,-1
 145 64 l 2,22,23
 145 170 145 170 252 213 c 1,13,-1
EndSplineSet
Validated: 1
EndChar

StartChar: quotedbl
Encoding: 34 34 5
Width: 796
GlyphClass: 2
Flags: W
LayerCount: 2
Fore
SplineSet
560 1086 m 1,0,1
 709 1046 709 1046 709 745 c 0,2,3
 709 580 709 580 602 532 c 1,4,-1
 496 532 l 1,5,6
 411 561 411 561 411 724 c 2,7,-1
 411 767 l 1,8,9
 424 1086 424 1086 560 1086 c 1,0,1
134 1022 m 1,10,11
 347 1022 347 1022 347 660 c 0,12,13
 347 532 347 532 177 511 c 1,14,-1
 155 511 l 2,15,16
 49 511 49 511 27 831 c 1,17,18
 27 968 27 968 134 1022 c 1,10,11
EndSplineSet
Validated: 1
EndChar

StartChar: numbersign
Encoding: 35 35 6
Width: 1139
GlyphClass: 2
Flags: W
LayerCount: 2
Fore
SplineSet
751 1044 m 0,0,1
 799 1044 799 1044 815 937 c 0,2,3
 815 913 815 913 687 767 c 1,4,-1
 772 724 l 1,5,6
 921 809 921 809 985 809 c 2,7,-1
 1006 809 l 2,8,9
 1037 809 1037 809 1070 745 c 1,10,-1
 1070 724 l 1,11,12
 943 586 943 586 943 575 c 1,13,14
 1092 428 1092 428 1092 341 c 2,15,-1
 1092 320 l 2,16,17
 1092 277 1092 277 1049 277 c 0,18,19
 961 277 961 277 815 426 c 1,20,-1
 793 426 l 2,21,22
 763 426 763 426 730 362 c 1,23,-1
 730 341 l 1,24,25
 815 330 815 330 815 277 c 2,26,-1
 815 213 l 2,27,28
 815 182 815 182 751 149 c 1,29,-1
 708 149 l 2,30,31
 637 149 637 149 559 213 c 1,32,-1
 410 128 l 1,33,34
 282 172 282 172 282 298 c 1,35,-1
 346 383 l 1,36,-1
 240 362 l 1,37,-1
 176 362 l 2,38,39
 134 362 134 362 91 490 c 1,40,41
 133 559 133 559 133 596 c 1,42,43
 103 596 103 596 6 724 c 1,44,-1
 6 767 l 1,45,46
 12 809 12 809 48 809 c 2,47,-1
 91 809 l 2,48,49
 129 809 129 809 282 745 c 1,50,-1
 325 809 l 1,51,52
 282 809 282 809 282 852 c 2,53,-1
 282 894 l 1,54,55
 289 937 289 937 325 937 c 2,56,-1
 368 937 l 2,57,58
 415 937 415 937 453 916 c 1,59,60
 637 1044 637 1044 751 1044 c 0,0,1
EndSplineSet
Validated: 1
EndChar

StartChar: dollar
Encoding: 36 36 7
Width: 1174
GlyphClass: 2
Flags: W
LayerCount: 2
Fore
SplineSet
572 1491 m 0,0,1
 700 1491 700 1491 700 1342 c 2,2,-1
 700 1235 l 1,3,4
 998 1193 998 1193 998 1022 c 0,5,6
 998 958 998 958 870 894 c 1,7,8
 858 894 858 894 615 1022 c 1,9,10
 381 995 381 995 381 916 c 2,11,-1
 381 873 l 1,12,-1
 487 894 l 1,13,-1
 551 894 l 2,14,15
 1041 894 1041 894 1041 554 c 2,16,-1
 1041 362 l 1,17,18
 982 21 982 21 700 21 c 1,19,-1
 700 -42 l 2,20,21
 700 -192 700 -192 551 -192 c 0,22,23
 423 -192 423 -192 423 -42 c 2,24,-1
 423 43 l 1,25,26
 83 168 83 168 83 405 c 0,27,28
 83 532 83 532 210 532 c 1,29,30
 465 298 465 298 551 298 c 1,31,32
 764 315 764 315 764 383 c 2,33,-1
 764 511 l 2,34,35
 764 591 764 591 232 660 c 1,36,37
 125 738 125 738 125 831 c 0,38,39
 125 1076 125 1076 445 1193 c 1,40,-1
 423 1235 l 1,41,-1
 423 1342 l 2,42,43
 423 1491 423 1491 572 1491 c 0,0,1
EndSplineSet
Validated: 1
EndChar

StartChar: percent
Encoding: 37 37 8
Width: 1896
GlyphClass: 2
Flags: W
LayerCount: 2
Fore
SplineSet
436 1533 m 1,0,-1
 500 1533 l 2,1,2
 727 1533 727 1533 777 1214 c 1,3,-1
 777 1107 l 1,4,5
 718 745 718 745 479 745 c 2,6,-1
 457 745 l 2,7,8
 32 745 32 745 32 958 c 2,9,-1
 32 980 l 2,10,11
 32 1381 32 1381 287 1512 c 1,12,-1
 436 1533 l 1,0,-1
1224 1533 m 1,13,-1
 1267 1533 l 1,14,15
 1331 1512 1331 1512 1331 1406 c 1,16,17
 1280 1149 1280 1149 1118 788 c 1,18,19
 1275 873 1275 873 1373 873 c 1,20,21
 1820 789 1820 789 1820 490 c 2,22,-1
 1820 447 l 2,23,24
 1820 164 1820 164 1309 43 c 1,25,-1
 1245 43 l 2,26,27
 990 43 990 43 990 490 c 1,28,-1
 968 490 l 1,29,30
 882 221 882 221 692 64 c 1,31,-1
 670 64 l 1,32,33
 521 81 521 81 521 192 c 0,34,35
 521 369 521 369 841 1065 c 1,36,37
 1060 1405 1060 1405 1224 1533 c 1,13,-1
308 1065 m 1,38,39
 378 1022 378 1022 436 1022 c 1,40,41
 521 1057 521 1057 521 1171 c 2,42,-1
 521 1278 l 2,43,44
 521 1320 521 1320 479 1320 c 1,45,46
 352 1222 352 1222 308 1065 c 1,38,39
1331 618 m 1,47,48
 1309 587 1309 587 1288 383 c 1,49,-1
 1416 383 l 2,50,51
 1501 383 1501 383 1501 532 c 1,52,-1
 1331 618 l 1,47,48
EndSplineSet
Validated: 1
EndChar

StartChar: ampersand
Encoding: 38 38 9
Width: 1569
GlyphClass: 2
Flags: W
LayerCount: 2
Fore
SplineSet
767 1619 m 2,0,1
 1152 1619 1152 1619 1214 1086 c 1,2,3
 1086 660 1086 660 958 660 c 1,4,5
 965 618 965 618 1001 618 c 2,6,-1
 1022 618 l 1,7,8
 1022 701 1022 701 1235 873 c 1,9,-1
 1257 873 l 1,10,11
 1320 852 1320 852 1320 745 c 0,12,13
 1320 636 1320 636 1235 469 c 1,14,15
 1533 304 1533 304 1533 192 c 1,16,17
 1476 43 1476 43 1299 43 c 1,18,19
 1123 75 1123 75 1065 128 c 1,20,21
 868 -149 868 -149 682 -149 c 2,22,-1
 618 -149 l 2,23,24
 64 -149 64 -149 64 447 c 0,25,26
 64 644 64 644 469 852 c 1,27,28
 362 1041 362 1041 362 1150 c 0,29,30
 362 1567 362 1567 745 1619 c 1,31,-1
 767 1619 l 2,0,1
703 1320 m 1,32,-1
 660 1257 l 1,33,-1
 660 1129 l 2,34,35
 660 894 660 894 831 894 c 1,36,37
 916 1006 916 1006 916 1129 c 2,38,-1
 916 1150 l 2,39,40
 916 1320 916 1320 703 1320 c 1,32,-1
341 362 m 1,41,42
 503 149 503 149 618 149 c 2,43,-1
 639 149 l 1,44,45
 761 238 761 238 809 341 c 1,46,47
 647 575 647 575 618 575 c 0,48,49
 341 548 341 548 341 362 c 1,41,42
EndSplineSet
Validated: 1
EndChar

StartChar: quotesingle
Encoding: 39 39 10
Width: 485
GlyphClass: 2
Flags: W
LayerCount: 2
Fore
SplineSet
334 1022 m 1,0,-1
 355 1022 l 2,1,2
 386 1022 386 1022 419 958 c 1,3,-1
 419 937 l 2,4,5
 419 714 419 714 228 532 c 1,6,-1
 164 532 l 2,7,8
 36 532 36 532 36 660 c 2,9,-1
 36 724 l 2,10,11
 36 914 36 914 334 1022 c 1,0,-1
EndSplineSet
Validated: 1
EndChar

StartChar: parenleft
Encoding: 40 40 11
Width: 803
GlyphClass: 2
Flags: W
LayerCount: 2
Fore
SplineSet
488 1171 m 1,0,-1
 573 1171 l 2,1,2
 616 1171 616 1171 637 1044 c 1,3,4
 381 728 381 728 381 618 c 0,5,6
 381 420 381 420 765 213 c 1,7,-1
 786 170 l 1,8,-1
 786 128 l 1,9,10
 738 21 738 21 573 21 c 2,11,-1
 509 21 l 2,12,13
 156 21 156 21 62 639 c 1,14,15
 62 884 62 884 488 1171 c 1,0,-1
EndSplineSet
Validated: 1
EndChar

StartChar: parenright
Encoding: 41 41 12
Width: 727
GlyphClass: 2
Flags: W
LayerCount: 2
Fore
SplineSet
238 1171 m 1,0,1
 600 1052 600 1052 600 831 c 2,2,-1
 600 682 l 2,3,4
 600 -21 600 -21 153 -21 c 1,5,6
 68 11 68 11 68 43 c 2,7,-1
 68 64 l 2,8,9
 68 141 68 141 323 426 c 1,10,-1
 344 532 l 1,11,-1
 344 554 l 2,12,13
 344 708 344 708 131 1001 c 1,14,-1
 131 1086 l 1,15,16
 175 1171 175 1171 238 1171 c 1,0,1
EndSplineSet
Validated: 1
EndChar

StartChar: asterisk
Encoding: 42 42 13
Width: 829
GlyphClass: 2
Flags: W
LayerCount: 2
Fore
SplineSet
546 958 m 1,0,-1
 588 958 l 1,1,2
 631 952 631 952 631 916 c 2,3,-1
 631 852 l 2,4,5
 631 794 631 794 588 724 c 1,6,7
 673 724 673 724 716 618 c 1,8,9
 673 548 673 548 673 511 c 1,10,11
 707 511 707 511 759 426 c 1,12,-1
 759 341 l 1,13,-1
 652 341 l 1,14,-1
 588 383 l 1,15,16
 498 234 498 234 418 234 c 2,17,-1
 375 234 l 2,18,19
 322 234 322 234 311 320 c 1,20,-1
 205 298 l 1,21,22
 174 298 174 298 141 362 c 1,23,-1
 141 405 l 1,24,-1
 162 447 l 1,25,26
 26 447 26 447 13 511 c 1,27,-1
 13 596 l 2,28,29
 13 645 13 645 120 660 c 1,30,-1
 120 682 l 1,31,-1
 77 682 l 1,32,-1
 77 724 l 1,33,34
 84 767 84 767 120 767 c 2,35,-1
 248 767 l 1,36,37
 248 937 248 937 311 937 c 2,38,-1
 354 937 l 1,39,-1
 439 873 l 1,40,-1
 546 958 l 1,0,-1
EndSplineSet
Validated: 1
EndChar

StartChar: plus
Encoding: 43 43 14
Width: 876
GlyphClass: 2
Flags: W
LayerCount: 2
Fore
SplineSet
395 662 m 6,0,-1
 438 662 l 6,1,2
 492 662 492 662 587 342 c 5,3,4
 754 342 754 342 842 236 c 5,5,-1
 842 150 l 5,6,7
 755 44 755 44 565 44 c 5,8,-1
 565 -41 l 6,9,10
 565 -157 565 -157 459 -212 c 5,11,-1
 352 -212 l 5,12,13
 246 -164 246 -164 246 1 c 6,14,-1
 246 44 l 5,15,-1
 182 44 l 6,16,17
 66 44 66 44 12 150 c 5,18,-1
 12 257 l 5,19,20
 60 363 60 363 225 363 c 6,21,-1
 267 363 l 5,22,23
 296 662 296 662 395 662 c 6,0,-1
EndSplineSet
Validated: 1
EndChar

StartChar: comma
Encoding: 44 44 15
Width: 445
GlyphClass: 2
Flags: W
LayerCount: 2
Fore
SplineSet
336 341 m 1,0,1
 400 263 400 263 400 192 c 0,2,3
 400 19 400 19 123 -85 c 1,4,-1
 38 -85 l 2,5,6
 -4 -85 -4 -85 -4 -42 c 1,7,8
 65 341 65 341 336 341 c 1,0,1
EndSplineSet
Validated: 1
EndChar

StartChar: hyphen
Encoding: 45 45 16
Width: 774
GlyphClass: 2
Flags: W
LayerCount: 2
Fore
SplineSet
367 745 m 1,0,1
 729 711 729 711 729 618 c 2,2,-1
 729 554 l 2,3,4
 729 447 729 447 409 426 c 1,5,-1
 197 426 l 2,6,7
 81 426 81 426 26 532 c 1,8,-1
 26 618 l 1,9,10
 90 745 90 745 367 745 c 1,0,1
EndSplineSet
Validated: 1
EndChar

StartChar: period
Encoding: 46 46 17
Width: 411
GlyphClass: 2
Flags: W
LayerCount: 2
Fore
SplineSet
216 362 m 0,0,1
 366 362 366 362 366 213 c 0,2,3
 366 76 366 76 174 43 c 1,4,-1
 153 43 l 2,5,6
 89 43 89 43 46 234 c 1,7,-1
 46 256 l 1,8,9
 101 362 101 362 216 362 c 0,0,1
EndSplineSet
Validated: 1
EndChar

StartChar: slash
Encoding: 47 47 18
Width: 755
GlyphClass: 2
Flags: W
LayerCount: 2
Fore
SplineSet
608 1171 m 1,0,-1
 651 1171 l 1,1,-1
 672 1044 l 1,2,3
 498 -21 498 -21 203 -21 c 2,4,-1
 182 -21 l 2,5,6
 76 -21 76 -21 33 85 c 1,7,-1
 33 107 l 1,8,9
 359 975 359 975 608 1171 c 1,0,-1
EndSplineSet
Validated: 1
EndChar

StartChar: zero
Encoding: 48 48 19
Width: 1577
VWidth: 3278
GlyphClass: 2
Flags: W
LayerCount: 2
Fore
SplineSet
-43.357421875 -87.306640625 m 0,0,1
 -98.5390625 -68.912109375 -98.5390625 -68.912109375 -116.932617188 -24.767578125 c 128,-1,2
 -135.326171875 19.3779296875 -135.326171875 19.3779296875 -109.575195312 78.2373046875 c 0,3,4
 -98.5390625 111.346679688 -98.5390625 111.346679688 -102.217773438 140.776367188 c 0,5,6
 -113.25390625 184.920898438 -113.25390625 184.920898438 -98.5390625 214.3515625 c 128,-1,7
 -83.82421875 243.78125 -83.82421875 243.78125 -24.9638671875 291.60546875 c 256,8,9
 33.896484375 339.428710938 33.896484375 339.428710938 177.3671875 486.579101562 c 0,10,11
 622.49609375 942.744140625 622.49609375 942.744140625 975.65625 1273.83105469 c 0,12,13
 1082.33984375 1373.15722656 1082.33984375 1373.15722656 1097.0546875 1387.87207031 c 0,14,15
 1133.84277344 1420.98144531 1133.84277344 1420.98144531 1223.97167969 1490.87792969 c 128,-1,16
 1314.1015625 1560.7734375 1314.1015625 1560.7734375 1354.56738281 1582.84667969 c 0,17,18
 1413.42773438 1619.63378906 1413.42773438 1619.63378906 1464.9296875 1660.09960938 c 128,-1,19
 1516.43261719 1700.56640625 1516.43261719 1700.56640625 1534.82617188 1707.92382812 c 0,20,21
 1571.61328125 1722.63867188 1571.61328125 1722.63867188 1610.24023438 1709.76269531 c 128,-1,22
 1648.8671875 1696.88769531 1648.8671875 1696.88769531 1667.26171875 1667.45703125 c 0,23,24
 1678.29785156 1649.06347656 1678.29785156 1649.06347656 1678.29785156 1612.27636719 c 128,-1,25
 1678.29785156 1575.48828125 1678.29785156 1575.48828125 1689.33398438 1538.70117188 c 0,26,27
 1704.04882812 1498.23535156 1704.04882812 1498.23535156 1693.01269531 1468.8046875 c 128,-1,28
 1681.9765625 1439.375 1681.9765625 1439.375 1641.50976562 1398.90917969 c 0,29,30
 1593.68652344 1354.76367188 1593.68652344 1354.76367188 1485.16308594 1249.91894531 c 128,-1,31
 1376.63964844 1145.07519531 1376.63964844 1145.07519531 1262.59863281 1038.39160156 c 0,32,33
 1086.01855469 876.526367188 1086.01855469 876.526367188 618.817382812 401.967773438 c 0,34,35
 423.84375 199.63671875 423.84375 199.63671875 379.69921875 173.884765625 c 0,36,37
 361.3046875 162.848632812 361.3046875 162.848632812 331.875 133.418945312 c 0,38,39
 284.05078125 96.630859375 284.05078125 96.630859375 182.885742188 23.056640625 c 128,-1,40
 81.7197265625 -50.5185546875 81.7197265625 -50.5185546875 55.96875 -65.2333984375 c 0,41,42
 -2.8916015625 -98.3427734375 -2.8916015625 -98.3427734375 -43.357421875 -87.306640625 c 0,0,1
688.713867188 1689.53027344 m 0,43,44
 795.397460938 1711.60253906 795.397460938 1711.60253906 935.190429688 1698.7265625 c 128,-1,45
 1074.98242188 1685.8515625 1074.98242188 1685.8515625 1152.23632812 1641.70605469 c 0,46,47
 1383.99707031 1523.98632812 1383.99707031 1523.98632812 1496.19921875 1242.56152344 c 128,-1,48
 1608.40136719 961.137695312 1608.40136719 961.137695312 1564.25585938 619.013671875 c 0,49,50
 1538.50488281 446.112304688 1538.50488281 446.112304688 1492.52050781 335.75 c 128,-1,51
 1446.53613281 225.387695312 1446.53613281 225.387695312 1358.24609375 126.061523438 c 0,52,53
 1082.33984375 -182.954101562 1082.33984375 -182.954101562 559.95703125 -157.202148438 c 0,54,55
 438.55859375 -153.5234375 438.55859375 -153.5234375 392.57421875 -138.80859375 c 128,-1,56
 346.58984375 -124.09375 346.58984375 -124.09375 287.73046875 -76.26953125 c 0,57,58
 147.9375 34.0927734375 147.9375 34.0927734375 65.166015625 284.247070312 c 128,-1,59
 -17.6064453125 534.40234375 -17.6064453125 534.40234375 4.4658203125 758.806640625 c 0,60,61
 55.96875 1196.57714844 55.96875 1196.57714844 298.766601562 1457.76855469 c 0,62,63
 471.66796875 1645.38476562 471.66796875 1645.38476562 688.713867188 1689.53027344 c 0,43,44
1049.23144531 1262.79492188 m 0,64,65
 997.728515625 1314.29785156 997.728515625 1314.29785156 959.1015625 1329.01269531 c 128,-1,66
 920.474609375 1343.72753906 920.474609375 1343.72753906 832.184570312 1347.40625 c 0,67,68
 696.071289062 1358.44238281 696.071289062 1358.44238281 611.459960938 1314.29785156 c 0,69,70
 526.848632812 1266.47363281 526.848632812 1266.47363281 462.470703125 1135.87792969 c 128,-1,71
 398.092773438 1005.28222656 398.092773438 1005.28222656 372.340820312 832.380859375 c 0,72,73
 357.625976562 714.661132812 357.625976562 714.661132812 361.3046875 657.640625 c 128,-1,74
 364.983398438 600.620117188 364.983398438 600.620117188 398.092773438 497.615234375 c 0,75,76
 445.916015625 332.071289062 445.916015625 332.071289062 497.418945312 275.05078125 c 128,-1,77
 548.920898438 218.030273438 548.920898438 218.030273438 644.568359375 218.030273438 c 0,78,79
 714.46484375 218.030273438 714.46484375 218.030273438 795.397460938 236.423828125 c 128,-1,80
 876.330078125 254.817382812 876.330078125 254.817382812 948.065429688 286.086914062 c 128,-1,81
 1019.80078125 317.356445312 1019.80078125 317.356445312 1063.94628906 354.143554688 c 0,82,83
 1137.52148438 416.682617188 1137.52148438 416.682617188 1172.46972656 504.97265625 c 128,-1,84
 1207.41796875 593.262695312 1207.41796875 593.262695312 1222.1328125 758.806640625 c 0,85,86
 1229.49023438 876.526367188 1229.49023438 876.526367188 1222.1328125 929.868164062 c 128,-1,87
 1214.77539062 983.209960938 1214.77539062 983.209960938 1181.66601562 1060.46386719 c 0,88,89
 1133.84277344 1178.18359375 1133.84277344 1178.18359375 1049.23144531 1262.79492188 c 0,64,65
EndSplineSet
Validated: 524325
EndChar

StartChar: one
Encoding: 49 49 20
Width: 1198
VWidth: 3278
GlyphClass: 2
Flags: W
LayerCount: 2
Fore
SplineSet
183.9375 -153.5234375 m 0,0,1
 139.791992188 -149.844726562 139.791992188 -149.844726562 84.611328125 -116.736328125 c 0,2,3
 33.1083984375 -83.6279296875 33.1083984375 -83.6279296875 18.3935546875 -54.197265625 c 0,4,5
 3.6787109375 -28.4462890625 3.6787109375 -28.4462890625 0 19.3779296875 c 0,6,7
 0 63.5224609375 0 63.5224609375 14.71484375 89.2734375 c 0,8,9
 47.8232421875 155.491210938 47.8232421875 155.491210938 51.501953125 159.169921875 c 0,10,11
 91.96875 203.315429688 91.96875 203.315429688 99.326171875 206.994140625 c 0,12,13
 158.185546875 243.78125 158.185546875 243.78125 327.408203125 262.174804688 c 0,14,15
 511.345703125 280.568359375 511.345703125 280.568359375 511.345703125 280.568359375 c 1,16,17
 522.381835938 394.610351562 522.381835938 394.610351562 529.739257812 493.936523438 c 0,18,19
 584.920898438 1237.04394531 584.920898438 1237.04394531 595.95703125 1306.94042969 c 0,20,21
 599.635742188 1340.04882812 599.635742188 1340.04882812 595.95703125 1343.72753906 c 0,22,23
 551.8125 1340.04882812 551.8125 1340.04882812 507.666992188 1336.37011719 c 0,24,25
 386.268554688 1336.37011719 386.268554688 1336.37011719 334.765625 1351.08496094 c 0,26,27
 206.009765625 1384.19335938 206.009765625 1384.19335938 206.009765625 1501.9140625 c 0,28,29
 202.331054688 1564.45214844 202.331054688 1564.45214844 250.154296875 1608.59765625 c 0,30,31
 297.978515625 1660.09960938 297.978515625 1660.09960938 397.3046875 1693.20898438 c 0,32,33
 470.879882812 1718.95996094 470.879882812 1718.95996094 570.206054688 1833.00097656 c 0,34,35
 651.138671875 1921.29101562 651.138671875 1921.29101562 717.356445312 1965.43652344 c 0,36,37
 779.89453125 2005.90234375 779.89453125 2005.90234375 842.43359375 1983.83007812 c 0,38,39
 890.256835938 1969.11523438 890.256835938 1969.11523438 916.008789062 1917.61230469 c 0,40,41
 930.723632812 1880.82519531 930.723632812 1880.82519531 938.081054688 1704.24511719 c 0,42,43
 945.438476562 1384.19335938 945.438476562 1384.19335938 919.6875 986.888671875 c 0,44,45
 882.899414062 442.43359375 882.899414062 442.43359375 853.469726562 291.60546875 c 0,46,47
 842.43359375 247.459960938 842.43359375 247.459960938 849.791015625 214.3515625 c 0,48,49
 853.469726562 206.994140625 853.469726562 206.994140625 916.008789062 192.278320312 c 0,50,51
 956.474609375 181.2421875 956.474609375 181.2421875 1030.04980469 162.848632812 c 0,52,53
 1118.33984375 144.455078125 1118.33984375 144.455078125 1147.76953125 129.740234375 c 0,54,55
 1177.20019531 111.346679688 1177.20019531 111.346679688 1191.91503906 74.55859375 c 0,56,57
 1210.30859375 15.69921875 1210.30859375 15.69921875 1180.87890625 -46.83984375 c 0,58,59
 1158.80566406 -94.6640625 1158.80566406 -94.6640625 1107.30371094 -120.415039062 c 2,60,-1
 1077.87304688 -135.129882812 l 1,61,-1
 1011.65625 -135.129882812 l 2,62,63
 956.474609375 -135.129882812 956.474609375 -135.129882812 912.330078125 -127.772460938 c 0,64,65
 820.361328125 -109.37890625 820.361328125 -109.37890625 658.49609375 -135.129882812 c 0,66,67
 526.060546875 -157.202148438 526.060546875 -157.202148438 345.801757812 -157.202148438 c 0,68,69
 194.973632812 -157.202148438 194.973632812 -157.202148438 183.9375 -153.5234375 c 0,0,1
EndSplineSet
Validated: 524321
EndChar

StartChar: two
Encoding: 50 50 21
Width: 1561
VWidth: 3278
GlyphClass: 2
Flags: W
LayerCount: 2
Fore
SplineSet
209.689453125 1362.12109375 m 0,0,1
 268.548828125 1546.05859375 268.548828125 1546.05859375 456.165039062 1684.01171875 c 128,-1,2
 643.78125 1821.96484375 643.78125 1821.96484375 901.293945312 1829.32226562 c 0,3,4
 1092.58886719 1829.32226562 1092.58886719 1829.32226562 1190.07617188 1724.47851562 c 128,-1,5
 1287.5625 1619.63378906 1287.5625 1619.63378906 1302.27832031 1398.90917969 c 0,6,7
 1313.31445312 1200.25585938 1313.31445312 1200.25585938 1234.22070312 1075.17871094 c 128,-1,8
 1155.12792969 950.1015625 1155.12792969 950.1015625 846.11328125 670.516601562 c 0,9,10
 496.631835938 354.143554688 496.631835938 354.143554688 496.631835938 321.03515625 c 0,11,12
 496.631835938 298.962890625 496.631835938 298.962890625 531.580078125 295.284179688 c 128,-1,13
 566.528320312 291.60546875 566.528320312 291.60546875 684.248046875 306.3203125 c 0,14,15
 1048.44433594 343.107421875 1048.44433594 343.107421875 1248.93554688 306.3203125 c 128,-1,16
 1449.42773438 269.532226562 1449.42773438 269.532226562 1523.00292969 151.8125 c 0,17,18
 1559.79003906 92.9521484375 1559.79003906 92.9521484375 1561.62988281 69.041015625 c 128,-1,19
 1563.46875 45.12890625 1563.46875 45.12890625 1534.0390625 -10.052734375 c 0,20,21
 1497.25195312 -87.306640625 1497.25195312 -87.306640625 1434.71289062 -103.860351562 c 128,-1,22
 1372.17382812 -120.415039062 1372.17382812 -120.415039062 1265.49023438 -79.94921875 c 0,23,24
 1195.59375 -54.197265625 1195.59375 -54.197265625 1123.85839844 -48.6796875 c 128,-1,25
 1052.12304688 -43.1611328125 1052.12304688 -43.1611328125 879.221679688 -50.5185546875 c 0,26,27
 584.921875 -68.912109375 584.921875 -68.912109375 437.771484375 -102.021484375 c 0,28,29
 183.9375 -157.202148438 183.9375 -157.202148438 91.96875 -125.93359375 c 128,-1,30
 0 -94.6640625 0 -94.6640625 0 52.486328125 c 0,31,32
 0 162.848632812 0 162.848632812 88.2900390625 339.428710938 c 0,33,34
 139.79296875 446.112304688 139.79296875 446.112304688 229.921875 554.635742188 c 128,-1,35
 320.051757812 663.159179688 320.051757812 663.159179688 562.849609375 905.956054688 c 0,36,37
 842.434570312 1196.57714844 842.434570312 1196.57714844 895.776367188 1264.63476562 c 128,-1,38
 949.118164062 1332.69140625 949.118164062 1332.69140625 949.118164062 1402.58789062 c 0,39,40
 949.118164062 1494.55664062 949.118164062 1494.55664062 912.330078125 1511.11035156 c 128,-1,41
 875.54296875 1527.66503906 875.54296875 1527.66503906 739.428710938 1498.23535156 c 0,42,43
 665.854492188 1483.51953125 665.854492188 1483.51953125 627.227539062 1461.44726562 c 128,-1,44
 588.600585938 1439.375 588.600585938 1439.375 538.9375 1389.71191406 c 128,-1,45
 489.274414062 1340.04882812 489.274414062 1340.04882812 371.553710938 1200.25585938 c 2,46,-1
 312.694335938 1130.36035156 l 1,47,-1
 246.4765625 1196.57714844 l 2,48,49
 198.653320312 1240.72265625 198.653320312 1240.72265625 194.974609375 1262.79492188 c 128,-1,50
 191.294921875 1284.8671875 191.294921875 1284.8671875 209.689453125 1362.12109375 c 0,0,1
EndSplineSet
Validated: 524321
EndChar

StartChar: three
Encoding: 51 51 22
Width: 1527
VWidth: 3278
GlyphClass: 2
Flags: W
LayerCount: 2
Fore
SplineSet
1005.3046875 1899.21875 m 0,0,1
 1163.49121094 1924.96972656 1163.49121094 1924.96972656 1235.2265625 1902.89746094 c 128,-1,2
 1306.96289062 1880.82519531 1306.96289062 1880.82519531 1409.96777344 1781.49902344 c 0,3,4
 1498.2578125 1696.88769531 1498.2578125 1696.88769531 1512.97265625 1661.93945312 c 128,-1,5
 1527.6875 1626.99121094 1527.6875 1626.99121094 1527.6875 1516.62890625 c 0,6,7
 1527.6875 1384.19335938 1527.6875 1384.19335938 1478.02441406 1270.15234375 c 128,-1,8
 1428.36132812 1156.11132812 1428.36132812 1156.11132812 1310.64160156 1023.67578125 c 2,9,-1
 1200.27832031 902.27734375 l 1,10,-1
 1284.88964844 813.987304688 l 2,11,12
 1365.82226562 733.0546875 1365.82226562 733.0546875 1402.61035156 655.80078125 c 128,-1,13
 1439.39746094 578.547851562 1439.39746094 578.547851562 1454.11230469 464.505859375 c 0,14,15
 1472.50585938 332.071289062 1472.50585938 332.071289062 1439.39746094 221.708984375 c 128,-1,16
 1406.2890625 111.346679688 1406.2890625 111.346679688 1321.67773438 35.931640625 c 128,-1,17
 1237.06640625 -39.482421875 1237.06640625 -39.482421875 1108.30957031 -79.94921875 c 0,18,19
 935.409179688 -131.451171875 935.409179688 -131.451171875 661.341796875 -135.129882812 c 128,-1,20
 387.275390625 -138.80859375 387.275390625 -138.80859375 186.783203125 -92.82421875 c 128,-1,21
 -13.708984375 -46.83984375 -13.708984375 -46.83984375 1.005859375 19.3779296875 c 0,22,23
 15.7216796875 92.9521484375 15.7216796875 92.9521484375 471.88671875 170.206054688 c 0,24,25
 725.719726562 214.3515625 725.719726562 214.3515625 852.63671875 258.49609375 c 128,-1,26
 979.553710938 302.641601562 979.553710938 302.641601562 1056.80761719 372.537109375 c 0,27,28
 1093.59472656 409.325195312 1093.59472656 409.325195312 1121.18554688 453.469726562 c 128,-1,29
 1148.77636719 497.615234375 1148.77636719 497.615234375 1156.13378906 536.2421875 c 128,-1,30
 1163.49121094 574.869140625 1163.49121094 574.869140625 1152.45507812 604.298828125 c 0,31,32
 1134.06152344 648.443359375 1134.06152344 648.443359375 1021.859375 687.0703125 c 128,-1,33
 909.657226562 725.697265625 909.657226562 725.697265625 755.150390625 740.412109375 c 0,34,35
 424.0625 769.842773438 424.0625 769.842773438 424.0625 839.73828125 c 0,36,37
 424.0625 865.490234375 424.0625 865.490234375 591.4453125 970.333984375 c 128,-1,38
 758.829101562 1075.17871094 758.829101562 1075.17871094 928.05078125 1156.11132812 c 0,39,40
 1207.63671875 1288.54589844 1207.63671875 1288.54589844 1207.63671875 1483.51953125 c 0,41,42
 1207.63671875 1579.16796875 1207.63671875 1579.16796875 1176.3671875 1610.43652344 c 128,-1,43
 1145.09765625 1641.70605469 1145.09765625 1641.70605469 1049.45019531 1641.70605469 c 0,44,45
 942.766601562 1641.70605469 942.766601562 1641.70605469 872.870117188 1606.7578125 c 128,-1,46
 802.973632812 1571.80957031 802.973632812 1571.80957031 611.678710938 1428.33886719 c 0,47,48
 387.275390625 1262.79492188 387.275390625 1262.79492188 346.80859375 1262.79492188 c 256,49,50
 306.342773438 1262.79492188 306.342773438 1262.79492188 280.590820312 1316.13671875 c 128,-1,51
 254.83984375 1369.47851562 254.83984375 1369.47851562 265.875976562 1432.01757812 c 0,52,53
 298.985351562 1597.56152344 298.985351562 1597.56152344 504.995117188 1728.15722656 c 128,-1,54
 711.004882812 1858.75292969 711.004882812 1858.75292969 1005.3046875 1899.21875 c 0,0,1
EndSplineSet
Validated: 524321
EndChar

StartChar: four
Encoding: 52 52 23
Width: 1280
VWidth: 3278
GlyphClass: 2
Flags: W
LayerCount: 2
Fore
SplineSet
610.263671875 1851.39453125 m 0,0,1
 658.087890625 1880.82519531 658.087890625 1880.82519531 676.481445312 1873.46777344 c 128,-1,2
 694.875 1866.11035156 694.875 1866.11035156 713.268554688 1814.60742188 c 0,3,4
 739.01953125 1744.7109375 739.01953125 1744.7109375 711.4296875 1647.22460938 c 128,-1,5
 683.838867188 1549.73730469 683.838867188 1549.73730469 555.08203125 1248.08007812 c 0,6,7
 404.25390625 898.598632812 404.25390625 898.598632812 422.647460938 880.205078125 c 0,8,9
 441.041015625 858.1328125 441.041015625 858.1328125 623.139648438 848.935546875 c 128,-1,10
 805.237304688 839.73828125 805.237304688 839.73828125 816.2734375 858.1328125 c 0,11,12
 834.666992188 883.883789062 834.666992188 883.883789062 889.848632812 1159.79003906 c 0,13,14
 978.138671875 1597.56152344 978.138671875 1597.56152344 1125.2890625 1759.42578125 c 0,15,16
 1213.57910156 1862.43164062 1213.57910156 1862.43164062 1257.72363281 1748.38964844 c 0,17,18
 1283.47460938 1678.49414062 1283.47460938 1678.49414062 1279.79589844 1523.98632812 c 128,-1,19
 1276.1171875 1369.47851562 1276.1171875 1369.47851562 1243.00878906 1226.0078125 c 0,20,21
 1173.11230469 898.598632812 1173.11230469 898.598632812 1167.59472656 836.059570312 c 128,-1,22
 1162.07617188 773.521484375 1162.07617188 773.521484375 1206.22167969 740.412109375 c 0,23,24
 1265.08105469 699.946289062 1265.08105469 699.946289062 1255.88476562 619.013671875 c 128,-1,25
 1246.6875 538.081054688 1246.6875 538.081054688 1184.1484375 508.651367188 c 0,26,27
 1143.68261719 490.2578125 1143.68261719 490.2578125 1127.12792969 453.469726562 c 128,-1,28
 1110.57324219 416.682617188 1110.57324219 416.682617188 1092.1796875 306.3203125 c 0,29,30
 981.817382812 -304.352539062 981.817382812 -304.352539062 768.450195312 -304.352539062 c 0,31,32
 654.409179688 -304.352539062 654.409179688 -304.352539062 632.3359375 -197.668945312 c 128,-1,33
 610.263671875 -90.9853515625 610.263671875 -90.9853515625 669.124023438 184.920898438 c 0,34,35
 727.983398438 453.469726562 727.983398438 453.469726562 715.108398438 466.345703125 c 128,-1,36
 702.232421875 479.221679688 702.232421875 479.221679688 555.08203125 479.221679688 c 0,37,38
 422.647460938 479.221679688 422.647460938 479.221679688 277.336914062 504.97265625 c 128,-1,39
 132.026367188 530.723632812 132.026367188 530.723632812 62.1298828125 567.51171875 c 0,40,41
 14.306640625 589.583984375 14.306640625 589.583984375 5.109375 613.49609375 c 128,-1,42
 -4.087890625 637.407226562 -4.087890625 637.407226562 3.26953125 733.0546875 c 0,43,44
 14.306640625 832.380859375 14.306640625 832.380859375 98.9169921875 1021.83691406 c 128,-1,45
 183.528320312 1211.29296875 183.528320312 1211.29296875 286.534179688 1386.03320312 c 128,-1,46
 389.5390625 1560.7734375 389.5390625 1560.7734375 483.346679688 1696.88769531 c 128,-1,47
 577.155273438 1833.00097656 577.155273438 1833.00097656 610.263671875 1851.39453125 c 0,0,1
EndSplineSet
Validated: 524321
EndChar

StartChar: five
Encoding: 53 53 24
Width: 1748
VWidth: 3278
GlyphClass: 2
Flags: W
LayerCount: 2
Fore
SplineSet
788.478515625 1700.56640625 m 0,0,1
 961.379882812 1729.99609375 961.379882812 1729.99609375 1294.30664062 1733.67480469 c 128,-1,2
 1627.23339844 1737.35351562 1627.23339844 1737.35351562 1689.77246094 1711.60253906 c 0,3,4
 1862.67382812 1645.38476562 1862.67382812 1645.38476562 1524.22851562 1542.37988281 c 0,5,6
 1340.29101562 1487.19921875 1340.29101562 1487.19921875 990.809570312 1417.30273438 c 2,7,-1
 622.934570312 1343.72753906 l 1,8,-1
 615.577148438 1192.8984375 l 2,9,10
 604.541015625 1045.74902344 604.541015625 1045.74902344 626.61328125 1023.67578125 c 0,11,12
 641.328125 1005.28222656 641.328125 1005.28222656 858.375 1042.0703125 c 0,13,14
 1145.31738281 1086.21484375 1145.31738281 1086.21484375 1297.98535156 1056.78515625 c 128,-1,15
 1450.65332031 1027.35546875 1450.65332031 1027.35546875 1538.94335938 902.27734375 c 0,16,17
 1583.08886719 843.41796875 1583.08886719 843.41796875 1597.80371094 631.889648438 c 128,-1,18
 1612.51855469 420.361328125 1612.51855469 420.361328125 1583.08886719 321.03515625 c 0,19,20
 1476.40429688 0.9833984375 1476.40429688 0.9833984375 1119.56640625 -124.09375 c 0,21,22
 990.809570312 -171.91796875 990.809570312 -171.91796875 753.530273438 -181.114257812 c 128,-1,23
 516.250976562 -190.311523438 516.250976562 -190.311523438 394.852539062 -157.202148438 c 0,24,25
 277.131835938 -120.415039062 277.131835938 -120.415039062 172.288085938 -45.0009765625 c 128,-1,26
 67.443359375 30.4140625 67.443359375 30.4140625 26.9775390625 111.346679688 c 0,27,28
 -13.4892578125 181.2421875 -13.4892578125 181.2421875 6.744140625 243.78125 c 128,-1,29
 26.9775390625 306.3203125 26.9775390625 306.3203125 96.873046875 339.428710938 c 0,30,31
 155.733398438 365.1796875 155.733398438 365.1796875 218.272460938 346.786132812 c 128,-1,32
 280.810546875 328.392578125 280.810546875 328.392578125 380.137695312 251.138671875 c 2,33,-1
 494.178710938 166.52734375 l 1,34,-1
 736.975585938 173.884765625 l 2,35,36
 1108.52929688 188.599609375 1108.52929688 188.599609375 1211.53515625 339.428710938 c 0,37,38
 1252.00097656 398.2890625 1252.00097656 398.2890625 1248.32226562 504.97265625 c 128,-1,39
 1244.64355469 611.65625 1244.64355469 611.65625 1196.81933594 685.231445312 c 2,40,-1
 1148.99609375 766.1640625 l 1,41,-1
 931.950195312 758.806640625 l 2,42,43
 718.58203125 747.76953125 718.58203125 747.76953125 619.255859375 692.588867188 c 0,44,45
 538.323242188 644.764648438 538.323242188 644.764648438 494.178710938 652.122070312 c 128,-1,46
 450.033203125 659.48046875 450.033203125 659.48046875 409.567382812 722.018554688 c 0,47,48
 387.495117188 758.806640625 387.495117188 758.806640625 367.26171875 848.935546875 c 128,-1,49
 347.028320312 939.065429688 347.028320312 939.065429688 339.670898438 1032.87304688 c 128,-1,50
 332.313476562 1126.68164062 332.313476562 1126.68164062 339.670898438 1207.61328125 c 0,51,52
 354.385742188 1332.69140625 354.385742188 1332.69140625 324.956054688 1432.01757812 c 0,53,54
 302.883789062 1498.23535156 302.883789062 1498.23535156 304.72265625 1518.46777344 c 128,-1,55
 306.5625 1538.70117188 306.5625 1538.70117188 347.028320312 1568.13085938 c 0,56,57
 457.390625 1649.06347656 457.390625 1649.06347656 788.478515625 1700.56640625 c 0,0,1
EndSplineSet
Validated: 524321
EndChar

StartChar: six
Encoding: 54 54 25
Width: 1279
VWidth: 3278
GlyphClass: 2
Flags: W
LayerCount: 2
Fore
SplineSet
740.409179688 1792.53515625 m 0,0,1
 968.4921875 1877.14648438 968.4921875 1877.14648438 1075.17578125 1770.46289062 c 0,2,3
 1134.03613281 1711.60253906 1134.03613281 1711.60253906 1126.67871094 1656.42089844 c 0,4,5
 1123 1634.34863281 1123 1634.34863281 1110.12402344 1623.3125 c 128,-1,6
 1097.24804688 1612.27636719 1097.24804688 1612.27636719 1067.81835938 1604.91894531 c 128,-1,7
 1038.38867188 1597.56152344 1038.38867188 1597.56152344 975.849609375 1590.20410156 c 0,8,9
 913.310546875 1586.52539062 913.310546875 1586.52539062 876.5234375 1577.328125 c 128,-1,10
 839.736328125 1568.13085938 839.736328125 1568.13085938 806.626953125 1549.73730469 c 128,-1,11
 773.518554688 1531.34375 773.518554688 1531.34375 733.051757812 1501.9140625 c 0,12,13
 637.404296875 1420.98144531 637.404296875 1420.98144531 539.91796875 1301.421875 c 128,-1,14
 442.430664062 1181.86230469 442.430664062 1181.86230469 460.82421875 1163.46875 c 0,15,16
 479.21875 1141.39648438 479.21875 1141.39648438 607.974609375 1167.14746094 c 0,17,18
 810.305664062 1211.29296875 810.305664062 1211.29296875 983.20703125 1161.62890625 c 128,-1,19
 1156.10839844 1111.96582031 1156.10839844 1111.96582031 1218.64746094 994.24609375 c 0,20,21
 1259.11328125 909.634765625 1259.11328125 909.634765625 1273.828125 731.215820312 c 128,-1,22
 1288.54296875 552.795898438 1288.54296875 552.795898438 1262.79199219 453.469726562 c 0,23,24
 1229.68359375 321.03515625 1229.68359375 321.03515625 1143.23242188 188.599609375 c 128,-1,25
 1056.78222656 56.1650390625 1056.78222656 56.1650390625 968.4921875 0.9833984375 c 0,26,27
 920.66796875 -28.4462890625 920.66796875 -28.4462890625 887.559570312 -43.1611328125 c 128,-1,28
 854.451171875 -57.8759765625 854.451171875 -57.8759765625 813.984375 -63.39453125 c 128,-1,29
 773.518554688 -68.912109375 773.518554688 -68.912109375 710.979492188 -68.912109375 c 0,30,31
 424.037109375 -68.912109375 424.037109375 -68.912109375 192.276367188 137.09765625 c 0,32,33
 45.1259765625 262.174804688 45.1259765625 262.174804688 15.6962890625 343.107421875 c 128,-1,34
 -13.734375 424.040039062 -13.734375 424.040039062 12.017578125 637.407226562 c 0,35,36
 92.94921875 1332.69140625 92.94921875 1332.69140625 527.041992188 1663.77832031 c 0,37,38
 652.120117188 1759.42578125 652.120117188 1759.42578125 740.409179688 1792.53515625 c 0,0,1
755.125 894.919921875 m 0,39,40
 688.907226562 905.956054688 688.907226562 905.956054688 541.756835938 942.744140625 c 0,41,42
 446.109375 964.81640625 446.109375 964.81640625 427.715820312 961.137695312 c 128,-1,43
 409.322265625 957.458984375 409.322265625 957.458984375 390.928710938 913.313476562 c 0,44,45
 372.534179688 854.454101562 372.534179688 854.454101562 372.534179688 681.552734375 c 0,46,47
 372.534179688 593.262695312 372.534179688 593.262695312 376.213867188 554.635742188 c 128,-1,48
 379.892578125 516.008789062 379.892578125 516.008789062 392.767578125 490.2578125 c 128,-1,49
 405.643554688 464.505859375 405.643554688 464.505859375 438.751953125 427.71875 c 0,50,51
 479.21875 379.89453125 479.21875 379.89453125 516.005859375 363.340820312 c 128,-1,52
 552.79296875 346.786132812 552.79296875 346.786132812 641.083007812 339.428710938 c 0,53,54
 696.264648438 332.071289062 696.264648438 332.071289062 731.212890625 337.58984375 c 128,-1,55
 766.161132812 343.107421875 766.161132812 343.107421875 784.5546875 354.143554688 c 128,-1,56
 802.948242188 365.1796875 802.948242188 365.1796875 832.377929688 394.610351562 c 0,57,58
 876.5234375 442.43359375 876.5234375 442.43359375 920.66796875 558.314453125 c 128,-1,59
 964.813476562 674.1953125 964.813476562 674.1953125 964.813476562 740.412109375 c 0,60,61
 964.813476562 784.557617188 964.813476562 784.557617188 898.595703125 832.380859375 c 128,-1,62
 832.377929688 880.205078125 832.377929688 880.205078125 755.125 894.919921875 c 0,39,40
EndSplineSet
Validated: 524321
EndChar

StartChar: seven
Encoding: 55 55 26
Width: 1434
VWidth: 3278
GlyphClass: 2
Flags: W
LayerCount: 2
Fore
SplineSet
478.23828125 1535.02246094 m 0,0,1
 636.423828125 1568.13085938 636.423828125 1568.13085938 746.787109375 1579.16796875 c 128,-1,2
 857.149414062 1590.20410156 857.149414062 1590.20410156 1052.12304688 1586.52539062 c 0,3,4
 1265.49023438 1582.84667969 1265.49023438 1582.84667969 1322.51074219 1575.48828125 c 128,-1,5
 1379.53125 1568.13085938 1379.53125 1568.13085938 1401.60449219 1535.02246094 c 0,6,7
 1434.71289062 1490.87792969 1434.71289062 1490.87792969 1434.71289062 1450.41113281 c 0,8,9
 1434.71289062 1406.26660156 1434.71289062 1406.26660156 1245.25683594 1117.484375 c 128,-1,10
 1055.80175781 828.702148438 1055.80175781 828.702148438 1066.83789062 813.987304688 c 0,11,12
 1074.1953125 795.59375 1074.1953125 795.59375 1155.12792969 777.200195312 c 0,13,14
 1239.73925781 762.485351562 1239.73925781 762.485351562 1291.24121094 722.018554688 c 128,-1,15
 1342.74414062 681.552734375 1342.74414062 681.552734375 1342.74414062 633.728515625 c 0,16,17
 1342.74414062 571.190429688 1342.74414062 571.190429688 1282.04492188 549.1171875 c 128,-1,18
 1221.34570312 527.044921875 1221.34570312 527.044921875 1059.48046875 527.044921875 c 2,19,-1
 864.506835938 527.044921875 l 1,20,-1
 746.787109375 354.143554688 l 2,21,22
 632.745117188 184.920898438 632.745117188 184.920898438 489.274414062 -21.0888671875 c 0,23,24
 353.16015625 -219.741210938 353.16015625 -219.741210938 312.694335938 -230.77734375 c 0,25,26
 275.90625 -234.456054688 275.90625 -234.456054688 215.20703125 -175.596679688 c 128,-1,27
 154.5078125 -116.736328125 154.5078125 -116.736328125 154.5078125 -68.912109375 c 0,28,29
 154.5078125 -28.4462890625 154.5078125 -28.4462890625 331.087890625 254.817382812 c 0,30,31
 434.092773438 416.682617188 434.092773438 416.682617188 465.362304688 481.060546875 c 128,-1,32
 496.631835938 545.438476562 496.631835938 545.438476562 485.595703125 567.51171875 c 0,33,34
 456.165039062 596.94140625 456.165039062 596.94140625 430.4140625 596.94140625 c 0,35,36
 400.984375 596.94140625 400.984375 596.94140625 334.766601562 666.837890625 c 0,37,38
 194.974609375 810.30859375 194.974609375 810.30859375 378.912109375 861.811523438 c 0,39,40
 452.486328125 880.205078125 452.486328125 880.205078125 570.20703125 880.205078125 c 2,41,-1
 739.428710938 880.205078125 l 1,42,-1
 849.791992188 1034.71289062 l 2,43,44
 960.154296875 1189.21972656 960.154296875 1189.21972656 960.154296875 1216.81054688 c 128,-1,45
 960.154296875 1244.40136719 960.154296875 1244.40136719 879.221679688 1229.68652344 c 0,46,47
 761.501953125 1203.93457031 761.501953125 1203.93457031 564.688476562 1185.54101562 c 128,-1,48
 367.875 1167.14746094 367.875 1167.14746094 261.19140625 1167.14746094 c 0,49,50
 121.399414062 1167.14746094 121.399414062 1167.14746094 60.7001953125 1196.57714844 c 128,-1,51
 0 1226.0078125 0 1226.0078125 0 1295.90332031 c 0,52,53
 0 1343.72753906 0 1343.72753906 20.2333984375 1365.79980469 c 128,-1,54
 40.466796875 1387.87207031 40.466796875 1387.87207031 110.36328125 1420.98144531 c 0,55,56
 220.725585938 1479.84082031 220.725585938 1479.84082031 478.23828125 1535.02246094 c 0,0,1
EndSplineSet
Validated: 524321
EndChar

StartChar: eight
Encoding: 56 56 27
Width: 1599
VWidth: 3278
GlyphClass: 2
Flags: W
LayerCount: 2
Fore
SplineSet
651.138671875 1943.36328125 m 0,0,1
 739.428710938 1972.79394531 739.428710938 1972.79394531 938.08203125 1965.43652344 c 0,2,3
 1151.44921875 1958.07910156 1151.44921875 1958.07910156 1272.84765625 1890.02148438 c 128,-1,4
 1394.24707031 1821.96484375 1394.24707031 1821.96484375 1471.5 1667.45703125 c 0,5,6
 1511.96679688 1590.20410156 1511.96679688 1590.20410156 1500.93066406 1395.23046875 c 0,7,8
 1497.25195312 1317.9765625 1497.25195312 1317.9765625 1488.0546875 1260.95605469 c 128,-1,9
 1478.85742188 1203.93457031 1478.85742188 1203.93457031 1460.46386719 1154.27148438 c 128,-1,10
 1442.0703125 1104.60839844 1442.0703125 1104.60839844 1418.15820312 1064.14257812 c 128,-1,11
 1394.24707031 1023.67578125 1394.24707031 1023.67578125 1357.45898438 983.209960938 c 2,12,-1
 1309.63574219 931.70703125 l 1,13,-1
 1427.35546875 825.0234375 l 2,14,15
 1548.75390625 718.33984375 1548.75390625 718.33984375 1578.18457031 644.764648438 c 128,-1,16
 1607.61425781 571.190429688 1607.61425781 571.190429688 1596.578125 387.252929688 c 128,-1,17
 1585.54199219 203.315429688 1585.54199219 203.315429688 1545.07519531 126.061523438 c 0,18,19
 1489.89453125 19.3779296875 1489.89453125 19.3779296875 1386.88867188 -76.26953125 c 128,-1,20
 1283.88378906 -171.91796875 1283.88378906 -171.91796875 1166.1640625 -223.419921875 c 0,21,22
 1063.15917969 -274.922851562 1063.15917969 -274.922851562 993.262695312 -284.119140625 c 128,-1,23
 923.366210938 -293.31640625 923.366210938 -293.31640625 676.890625 -293.31640625 c 0,24,25
 441.450195312 -293.31640625 441.450195312 -293.31640625 369.71484375 -284.119140625 c 128,-1,26
 297.979492188 -274.922851562 297.979492188 -274.922851562 220.725585938 -238.134765625 c 0,27,28
 110.36328125 -182.954101562 110.36328125 -182.954101562 55.181640625 -109.37890625 c 0,29,30
 18.39453125 -57.8759765625 18.39453125 -57.8759765625 9.197265625 -2.6953125 c 128,-1,31
 0 52.486328125 0 52.486328125 0 229.06640625 c 128,-1,32
 0 405.646484375 0 405.646484375 11.037109375 468.184570312 c 128,-1,33
 22.0732421875 530.723632812 22.0732421875 530.723632812 66.2177734375 626.37109375 c 0,34,35
 128.756835938 758.806640625 128.756835938 758.806640625 228.083007812 847.096679688 c 2,36,-1
 323.73046875 935.38671875 l 1,37,-1
 283.263671875 1031.03417969 l 2,38,39
 242.797851562 1119.32421875 242.797851562 1119.32421875 239.119140625 1284.8671875 c 128,-1,40
 235.440429688 1450.41113281 235.440429688 1450.41113281 268.548828125 1549.73730469 c 0,41,42
 309.015625 1674.81542969 309.015625 1674.81542969 419.377929688 1785.17773438 c 128,-1,43
 529.740234375 1895.54003906 529.740234375 1895.54003906 651.138671875 1943.36328125 c 0,0,1
1125.69824219 1597.56152344 m 0,44,45
 1070.51660156 1638.02734375 1070.51660156 1638.02734375 949.118164062 1652.7421875 c 0,46,47
 651.138671875 1678.49414062 651.138671875 1678.49414062 566.528320312 1483.51953125 c 0,48,49
 533.418945312 1398.90917969 533.418945312 1398.90917969 549.973632812 1316.13671875 c 128,-1,50
 566.528320312 1233.36523438 566.528320312 1233.36523438 632.745117188 1178.18359375 c 0,51,52
 680.569335938 1137.71777344 680.569335938 1137.71777344 719.196289062 1128.52050781 c 128,-1,53
 757.823242188 1119.32421875 757.823242188 1119.32421875 860.828125 1123.00292969 c 2,54,-1
 1011.65625 1130.36035156 l 1,55,-1
 1107.30371094 1284.8671875 l 2,56,57
 1188.23632812 1413.62402344 1188.23632812 1413.62402344 1191.91503906 1481.68066406 c 128,-1,58
 1195.59375 1549.73730469 1195.59375 1549.73730469 1125.69824219 1597.56152344 c 0,44,45
1077.87402344 740.412109375 m 0,59,60
 985.905273438 788.236328125 985.905273438 788.236328125 816.682617188 788.236328125 c 128,-1,61
 647.459960938 788.236328125 647.459960938 788.236328125 570.20703125 740.412109375 c 0,62,63
 345.802734375 604.298828125 345.802734375 604.298828125 345.802734375 280.568359375 c 0,64,65
 345.802734375 181.2421875 345.802734375 181.2421875 355 146.293945312 c 128,-1,66
 364.196289062 111.346679688 364.196289062 111.346679688 404.663085938 74.55859375 c 256,67,68
 445.12890625 37.771484375 445.12890625 37.771484375 481.916992188 30.4140625 c 128,-1,69
 518.704101562 23.056640625 518.704101562 23.056640625 658.497070312 34.0927734375 c 0,70,71
 835.076171875 48.8076171875 835.076171875 48.8076171875 956.475585938 81.916015625 c 128,-1,72
 1077.87402344 115.025390625 1077.87402344 115.025390625 1153.28808594 168.3671875 c 128,-1,73
 1228.703125 221.708984375 1228.703125 221.708984375 1261.81152344 302.641601562 c 0,74,75
 1316.99316406 438.754882812 1316.99316406 438.754882812 1269.16894531 552.795898438 c 128,-1,76
 1221.34570312 666.837890625 1221.34570312 666.837890625 1077.87402344 740.412109375 c 0,59,60
EndSplineSet
Validated: 524321
EndChar

StartChar: nine
Encoding: 57 57 28
Width: 1268
VWidth: 3278
GlyphClass: 2
Flags: W
LayerCount: 2
Fore
SplineSet
430.4140625 1910.25488281 m 0,0,1
 555.491210938 1943.36328125 555.491210938 1943.36328125 704.481445312 1945.203125 c 128,-1,2
 853.470703125 1947.04296875 853.470703125 1947.04296875 952.796875 1913.93359375 c 0,3,4
 1052.12304688 1877.14648438 1052.12304688 1877.14648438 1144.09179688 1787.01660156 c 128,-1,5
 1236.06054688 1696.88769531 1236.06054688 1696.88769531 1258.1328125 1612.27636719 c 256,6,7
 1280.20507812 1527.66503906 1280.20507812 1527.66503906 1254.45410156 1358.44238281 c 128,-1,8
 1228.703125 1189.21972656 1228.703125 1189.21972656 1114.66210938 681.552734375 c 0,9,10
 923.366210938 -175.596679688 923.366210938 -175.596679688 835.076171875 -300.673828125 c 0,11,12
 768.859375 -385.28515625 768.859375 -385.28515625 676.890625 -293.31640625 c 0,13,14
 618.030273438 -238.134765625 618.030273438 -238.134765625 616.19140625 -107.5390625 c 128,-1,15
 614.3515625 23.056640625 614.3515625 23.056640625 665.854492188 313.677734375 c 0,16,17
 713.677734375 582.2265625 713.677734375 582.2265625 713.677734375 652.122070312 c 2,18,-1
 713.677734375 714.661132812 l 1,19,-1
 533.418945312 714.661132812 l 2,20,21
 250.155273438 714.661132812 250.155273438 714.661132812 125.078125 837.899414062 c 128,-1,22
 0 961.137695312 0 961.137695312 0 1240.72265625 c 0,23,24
 0 1505.59277344 0 1505.59277344 110.36328125 1676.65429688 c 128,-1,25
 220.725585938 1847.71582031 220.725585938 1847.71582031 430.4140625 1910.25488281 c 0,0,1
934.403320312 1645.38476562 m 0,26,27
 919.6875 1671.13671875 919.6875 1671.13671875 721.03515625 1663.77832031 c 128,-1,28
 522.3828125 1656.42089844 522.3828125 1656.42089844 470.880859375 1626.99121094 c 0,29,30
 331.087890625 1557.09472656 331.087890625 1557.09472656 331.087890625 1321.65527344 c 0,31,32
 331.087890625 1170.82617188 331.087890625 1170.82617188 412.020507812 1115.64453125 c 128,-1,33
 492.953125 1060.46386719 492.953125 1060.46386719 687.926757812 1075.17871094 c 0,34,35
 761.501953125 1082.53613281 761.501953125 1082.53613281 785.413085938 1099.09082031 c 128,-1,36
 809.325195312 1115.64453125 809.325195312 1115.64453125 846.11328125 1189.21972656 c 0,37,38
 871.864257812 1240.72265625 871.864257812 1240.72265625 897.615234375 1343.72753906 c 128,-1,39
 923.366210938 1446.73242188 923.366210938 1446.73242188 934.403320312 1536.86230469 c 128,-1,40
 945.439453125 1626.99121094 945.439453125 1626.99121094 934.403320312 1645.38476562 c 0,26,27
EndSplineSet
Validated: 524321
EndChar

StartChar: colon
Encoding: 58 58 29
Width: 585
GlyphClass: 2
Flags: W
LayerCount: 2
Fore
SplineSet
253 937 m 2,0,-1
 381 937 l 2,1,2
 414 937 414 937 466 852 c 1,3,-1
 466 703 l 1,4,5
 391 575 391 575 274 575 c 0,6,7
 125 575 125 575 104 809 c 1,8,9
 137 937 137 937 253 937 c 2,0,-1
232 383 m 0,10,11
 397 383 397 383 445 277 c 1,12,-1
 445 213 l 2,13,14
 445 43 445 43 274 43 c 2,15,-1
 253 43 l 2,16,17
 83 43 83 43 83 256 c 1,18,19
 116 383 116 383 232 383 c 0,10,11
EndSplineSet
Validated: 1
EndChar

StartChar: semicolon
Encoding: 59 59 30
Width: 598
GlyphClass: 2
Flags: W
LayerCount: 2
Fore
SplineSet
340 831 m 1,0,1
 489 799 489 799 489 682 c 1,2,3
 422 511 422 511 297 511 c 0,4,5
 185 511 185 511 169 724 c 1,6,7
 224 831 224 831 340 831 c 1,0,1
382 469 m 1,8,9
 468 437 468 437 468 405 c 2,10,-1
 468 277 l 1,11,12
 418 -42 418 -42 191 -42 c 2,13,-1
 106 -42 l 1,14,15
 42 -21 42 -21 42 85 c 0,16,17
 42 261 42 261 382 469 c 1,8,9
EndSplineSet
Validated: 1
EndChar

StartChar: less
Encoding: 60 60 31
Width: 959
GlyphClass: 2
Flags: W
LayerCount: 2
Fore
SplineSet
735 1001 m 1,0,1
 821 1001 821 1001 842 916 c 1,2,3
 842 748 842 748 373 596 c 1,4,-1
 373 575 l 1,5,6
 906 405 906 405 906 277 c 1,7,8
 862 149 862 149 821 149 c 2,9,-1
 735 149 l 2,10,11
 384 149 384 149 11 554 c 1,12,-1
 11 575 l 2,13,14
 11 850 11 850 735 1001 c 1,0,1
EndSplineSet
Validated: 1
EndChar

StartChar: equal
Encoding: 61 61 32
Width: 849
GlyphClass: 2
Flags: W
LayerCount: 2
Fore
SplineSet
358 852 m 1,0,-1
 400 852 l 2,1,2
 677 852 677 852 741 724 c 1,3,-1
 741 660 l 2,4,5
 741 554 741 554 421 554 c 2,6,-1
 187 554 l 2,7,8
 59 554 59 554 59 682 c 2,9,-1
 59 745 l 2,10,11
 59 837 59 837 358 852 c 1,0,-1
358 469 m 2,12,-1
 528 469 l 2,13,14
 765 469 765 469 784 362 c 1,15,16
 784 170 784 170 358 170 c 0,17,18
 102 170 102 170 102 341 c 0,19,20
 102 469 102 469 358 469 c 2,12,-1
EndSplineSet
Validated: 1
EndChar

StartChar: greater
Encoding: 62 62 33
Width: 969
GlyphClass: 2
Flags: W
LayerCount: 2
Fore
SplineSet
191 1022 m 2,0,-1
 340 1022 l 1,1,2
 915 902 915 902 915 767 c 2,3,-1
 915 745 l 1,4,5
 886 545 886 545 297 149 c 1,6,-1
 191 149 l 2,7,8
 160 149 160 149 127 213 c 1,9,-1
 127 320 l 1,10,11
 134 361 134 361 531 682 c 1,12,13
 41 772 41 772 41 873 c 2,14,-1
 41 937 l 1,15,16
 76 1022 76 1022 191 1022 c 2,0,-1
EndSplineSet
Validated: 1
EndChar

StartChar: question
Encoding: 63 63 34
Width: 1126
GlyphClass: 2
Flags: W
LayerCount: 2
Fore
SplineSet
488 1938 m 1,0,1
 1084 1938 1084 1938 1084 1363 c 2,2,-1
 1084 1171 l 2,3,4
 1084 894 1084 894 615 724 c 1,5,-1
 637 682 l 1,6,-1
 637 575 l 2,7,8
 637 405 637 405 445 405 c 1,9,10
 211 534 211 534 211 873 c 0,11,12
 211 1055 211 1055 637 1129 c 1,13,-1
 722 1235 l 1,14,-1
 722 1342 l 2,15,16
 722 1576 722 1576 509 1576 c 2,17,-1
 317 1576 l 2,18,19
 189 1576 189 1576 83 1299 c 1,20,-1
 19 1299 l 2,21,22
 -60 1299 -60 1299 -87 1555 c 1,23,24
 -87 1860 -87 1860 488 1938 c 1,0,1
466 277 m 2,25,-1
 488 277 l 1,26,27
 679 249 679 249 679 85 c 1,28,29
 626 -80 626 -80 551 -106 c 1,30,-1
 445 -106 l 1,31,32
 253 -70 253 -70 253 107 c 0,33,34
 253 277 253 277 466 277 c 2,25,-1
EndSplineSet
Validated: 1
EndChar

StartChar: at
Encoding: 64 64 35
Width: 1580
GlyphClass: 2
Flags: W
LayerCount: 2
Fore
SplineSet
1054 1406 m 1,0,1
 1395 1314 1395 1314 1395 1129 c 1,2,3
 1438 1129 1438 1129 1438 937 c 0,4,5
 1438 510 1438 510 1097 362 c 1,6,-1
 1076 362 l 1,7,8
 1006 405 1006 405 969 405 c 1,9,10
 969 341 969 341 671 320 c 1,11,12
 458 349 458 349 458 511 c 2,13,-1
 458 660 l 2,14,15
 458 958 458 958 756 958 c 2,16,-1
 884 958 l 2,17,18
 1097 958 1097 958 1097 682 c 1,19,20
 1144 682 1144 682 1203 873 c 1,21,22
 1157 1171 1157 1171 905 1171 c 0,23,24
 554 1171 554 1171 394 852 c 1,25,26
 352 704 352 704 352 596 c 2,27,-1
 352 532 l 2,28,29
 352 213 352 213 863 149 c 1,30,-1
 926 149 l 2,31,32
 1181 149 1181 149 1438 383 c 1,33,34
 1438 361 1438 361 1459 320 c 1,35,36
 1459 -85 1459 -85 905 -85 c 2,37,-1
 863 -85 l 2,38,39
 301 -85 301 -85 96 447 c 1,40,-1
 96 618 l 2,41,42
 96 1177 96 1177 777 1406 c 1,43,-1
 1054 1406 l 1,0,1
692 682 m 1,44,-1
 692 575 l 1,45,-1
 884 575 l 1,46,47
 884 686 884 686 820 703 c 1,48,-1
 799 703 l 1,49,-1
 692 682 l 1,44,-1
EndSplineSet
Validated: 1
EndChar

StartChar: A
Encoding: 65 65 36
Width: 1576
GlyphClass: 2
Flags: W
LayerCount: 2
Fore
SplineSet
830 1725 m 2,0,-1
 873 1725 l 2,1,2
 1286 1725 1286 1725 1448 0 c 1,3,4
 1448 -85 1448 -85 1342 -149 c 1,5,-1
 1235 -149 l 2,6,7
 1080 -149 1080 -149 1043 469 c 1,8,-1
 1043 596 l 1,9,-1
 1022 639 l 1,10,11
 569 490 569 490 468 490 c 1,12,13
 511 320 511 320 511 85 c 2,14,-1
 511 0 l 2,15,16
 511 -116 511 -116 405 -170 c 1,17,-1
 298 -170 l 1,18,19
 149 -72 149 -72 149 192 c 0,20,21
 149 1355 149 1355 554 1576 c 1,22,23
 653 1725 653 1725 830 1725 c 2,0,-1
490 831 m 1,24,25
 828 894 828 894 894 894 c 2,26,-1
 980 894 l 1,27,-1
 980 916 l 1,28,29
 920 1342 920 1342 809 1342 c 0,30,31
 576 1342 576 1342 490 831 c 1,24,25
EndSplineSet
Validated: 1
EndChar

StartChar: B
Encoding: 66 66 37
Width: 1725
GlyphClass: 2
Flags: W
LayerCount: 2
Fore
SplineSet
345 1746 m 1,0,1
 490 1724 490 1724 494 1682 c 1,2,3
 572 1725 572 1725 665 1725 c 2,4,-1
 856 1725 l 1,5,6
 1453 1661 1453 1661 1453 1257 c 0,7,8
 1453 1184 1453 1184 1346 1022 c 1,9,-1
 1346 1001 l 1,10,11
 1518 1001 1518 1001 1580 639 c 0,12,13
 1602 524 1602 524 1602 447 c 1,14,15
 1410 -106 1410 -106 792 -106 c 2,16,-1
 622 -106 l 1,17,18
 239 -52 239 -52 239 256 c 1,19,-1
 260 554 l 1,20,21
 260 848 260 848 154 1533 c 1,22,23
 183 1746 183 1746 345 1746 c 1,0,1
558 1150 m 1,24,25
 579 964 579 964 579 937 c 1,26,27
 629 937 629 937 835 1065 c 1,28,29
 1112 1065 1112 1065 1112 1257 c 0,30,31
 1112 1415 1112 1415 729 1427 c 1,32,33
 558 1350 558 1350 558 1150 c 1,24,25
601 554 m 1,34,35
 636 234 636 234 707 234 c 0,36,37
 1118 234 1118 234 1261 490 c 1,38,-1
 1261 575 l 2,39,40
 1261 745 1261 745 1091 745 c 2,41,-1
 1069 745 l 1,42,43
 755 671 755 671 601 554 c 1,34,35
EndSplineSet
Validated: 1
EndChar

StartChar: C
Encoding: 67 67 38
Width: 1509
GlyphClass: 2
Flags: W
LayerCount: 2
Fore
SplineSet
908 1831 m 1,0,1
 1313 1768 1313 1768 1313 1469 c 2,2,-1
 1313 1406 l 1,3,4
 1304 1362 1304 1362 1207 1320 c 1,5,6
 1174 1320 1174 1320 994 1491 c 1,7,-1
 866 1491 l 2,8,9
 461 1491 461 1491 461 575 c 0,10,11
 461 301 461 301 717 256 c 1,12,-1
 823 256 l 2,13,14
 929 256 929 256 1270 575 c 1,15,-1
 1313 575 l 1,16,17
 1398 543 1398 543 1398 511 c 2,18,-1
 1398 405 l 1,19,20
 1295 -106 1295 -106 887 -106 c 1,21,22
 887 -128 887 -128 759 -128 c 0,23,24
 185 -128 185 -128 120 554 c 1,25,-1
 120 639 l 2,26,27
 120 1497 120 1497 568 1725 c 1,28,29
 767 1831 767 1831 908 1831 c 1,0,1
EndSplineSet
Validated: 1
EndChar

StartChar: D
Encoding: 68 68 39
Width: 1594
GlyphClass: 2
Flags: W
LayerCount: 2
Fore
SplineSet
631 1661 m 2,0,-1
 737 1661 l 1,1,2
 1483 1563 1483 1563 1483 937 c 2,3,-1
 1483 745 l 2,4,5
 1483 127 1483 127 780 -149 c 1,6,-1
 652 -170 l 1,7,8
 184 -170 184 -170 184 320 c 0,9,10
 184 511 184 511 247 937 c 1,11,12
 184 1230 184 1230 184 1363 c 2,13,-1
 184 1448 l 1,14,15
 327 1661 327 1661 631 1661 c 2,0,-1
567 1299 m 1,16,-1
 588 1086 l 1,17,-1
 588 1065 l 2,18,19
 588 983 588 983 524 447 c 1,20,21
 551 192 551 192 609 192 c 2,22,-1
 673 192 l 2,23,24
 1018 192 1018 192 1121 724 c 0,25,26
 1121 740 1121 740 1142 852 c 1,27,28
 1142 1049 1142 1049 908 1257 c 1,29,30
 716 1299 716 1299 631 1299 c 2,31,-1
 567 1299 l 1,16,-1
EndSplineSet
Validated: 1
EndChar

StartChar: E
Encoding: 69 69 40
Width: 1311
GlyphClass: 2
Flags: W
LayerCount: 2
Fore
SplineSet
691 1682 m 1,0,-1
 946 1682 l 1,1,2
 1287 1661 1287 1661 1287 1512 c 0,3,4
 1287 1342 1287 1342 925 1342 c 2,5,-1
 627 1342 l 1,6,-1
 541 1320 l 1,7,8
 597 928 597 928 627 873 c 1,9,10
 946 847 946 847 946 682 c 0,11,12
 946 571 946 571 627 469 c 1,13,-1
 627 192 l 1,14,-1
 946 192 l 2,15,16
 1287 192 1287 192 1287 0 c 256,17,18
 1287 -192 1287 -192 733 -192 c 2,19,-1
 478 -192 l 2,20,21
 364 -192 364 -192 265 447 c 1,22,-1
 201 532 l 1,23,-1
 201 554 l 2,24,25
 201 666 201 666 222 745 c 1,26,27
 201 877 201 877 158 1448 c 1,28,29
 158 1640 158 1640 691 1682 c 1,0,-1
EndSplineSet
Validated: 1
EndChar

StartChar: F
Encoding: 70 70 41
Width: 1253
GlyphClass: 2
Flags: W
LayerCount: 2
Fore
SplineSet
1016 1746 m 2,0,-1
 1037 1746 l 2,1,2
 1304 1746 1304 1746 1378 1619 c 1,3,-1
 1378 1533 l 2,4,5
 1378 1398 1378 1398 611 1363 c 1,6,7
 505 1294 505 1294 505 1235 c 0,8,9
 505 1130 505 1130 547 831 c 1,10,-1
 696 852 l 1,11,-1
 760 852 l 1,12,13
 995 831 995 831 995 682 c 0,14,15
 995 570 995 570 633 469 c 1,16,17
 696 119 696 119 696 0 c 0,18,19
 696 -85 696 -85 590 -149 c 1,20,-1
 483 -149 l 1,21,22
 257 -37 257 -37 121 1427 c 1,23,24
 264 1725 264 1725 718 1725 c 1,25,26
 782 1746 782 1746 1016 1746 c 2,0,-1
EndSplineSet
Validated: 1
EndChar

StartChar: G
Encoding: 71 71 42
Width: 1777
GlyphClass: 2
Flags: W
LayerCount: 2
Fore
SplineSet
864 1768 m 2,0,-1
 970 1768 l 1,1,2
 1481 1653 1481 1653 1481 1363 c 2,3,-1
 1481 1299 l 2,4,5
 1481 1150 1481 1150 1354 1150 c 1,6,7
 1171 1406 1171 1406 1055 1406 c 2,8,-1
 757 1406 l 1,9,10
 480 1197 480 1197 480 745 c 0,11,12
 480 192 480 192 928 192 c 1,13,14
 1119 204 1119 204 1119 256 c 1,15,16
 842 256 842 256 842 383 c 2,17,-1
 842 447 l 2,18,19
 842 660 842 660 1247 660 c 0,20,21
 1558 660 1558 660 1630 511 c 1,22,-1
 1630 469 l 1,23,-1
 1524 341 l 1,24,25
 1652 246 1652 246 1652 64 c 2,26,-1
 1652 43 l 2,27,28
 1652 -128 1652 -128 1481 -128 c 0,29,30
 1428 -128 1428 -128 1332 -42 c 1,31,32
 1158 -170 1158 -170 928 -170 c 2,33,-1
 864 -170 l 2,34,35
 118 -170 118 -170 118 788 c 0,36,37
 118 1475 118 1475 544 1704 c 1,38,39
 736 1768 736 1768 864 1768 c 2,0,-1
EndSplineSet
Validated: 1
EndChar

StartChar: H
Encoding: 72 72 43
Width: 1759
GlyphClass: 2
Flags: W
LayerCount: 2
Fore
SplineSet
380 1768 m 0,0,1
 482 1768 482 1768 551 852 c 1,2,-1
 764 873 l 1,3,-1
 1211 873 l 1,4,-1
 1211 894 l 2,5,6
 1211 1369 1211 1369 1424 1661 c 1,7,-1
 1466 1661 l 2,8,9
 1559 1661 1559 1661 1573 852 c 1,10,11
 1573 -149 1573 -149 1317 -149 c 0,12,13
 1196 -149 1196 -149 1168 85 c 1,14,-1
 1168 277 l 1,15,-1
 1190 490 l 1,16,17
 876 447 876 447 721 447 c 2,18,-1
 615 447 l 1,19,20
 636 160 636 160 636 21 c 0,21,22
 636 -149 636 -149 465 -170 c 1,23,-1
 444 -170 l 2,24,25
 230 -170 230 -170 167 1448 c 1,26,27
 210 1768 210 1768 380 1768 c 0,0,1
EndSplineSet
Validated: 1
EndChar

StartChar: I
Encoding: 73 73 44
Width: 1085
GlyphClass: 2
Flags: W
LayerCount: 2
Fore
SplineSet
463 1661 m 0,0,1
 1017 1661 1017 1661 1017 1427 c 2,2,-1
 1017 1406 l 2,3,4
 1017 1257 1017 1257 847 1257 c 2,5,-1
 783 1257 l 1,6,-1
 783 490 l 2,7,8
 783 383 783 383 804 170 c 1,9,10
 1017 170 1017 170 1038 85 c 1,11,-1
 1038 0 l 2,12,13
 1038 -139 1038 -139 485 -170 c 1,14,-1
 336 -170 l 2,15,16
 169 -170 169 -170 101 -42 c 1,17,-1
 101 43 l 2,18,19
 101 192 101 192 250 192 c 2,20,-1
 421 192 l 1,21,-1
 421 511 l 2,22,23
 421 755 421 755 442 1257 c 1,24,25
 165 1283 165 1283 165 1469 c 0,26,27
 165 1661 165 1661 463 1661 c 0,0,1
EndSplineSet
Validated: 1
EndChar

StartChar: J
Encoding: 74 74 45
Width: 1346
GlyphClass: 2
Flags: W
LayerCount: 2
Fore
SplineSet
763 1704 m 2,0,-1
 1040 1704 l 2,1,2
 1194 1704 1194 1704 1232 1597 c 1,3,-1
 1232 1512 l 2,4,5
 1232 1335 1232 1335 1019 1320 c 1,6,7
 1147 783 1147 783 1147 511 c 2,8,-1
 1147 426 l 2,9,10
 1147 -39 1147 -39 785 -192 c 1,11,-1
 657 -213 l 1,12,-1
 529 -213 l 1,13,14
 82 -115 82 -115 82 149 c 2,15,-1
 82 213 l 1,16,17
 118 426 118 426 252 426 c 1,18,19
 335 418 335 418 465 149 c 1,20,-1
 572 149 l 2,21,22
 785 149 785 149 785 469 c 0,23,24
 785 721 785 721 614 1320 c 1,25,26
 167 1356 167 1356 167 1576 c 1,27,28
 332 1704 332 1704 763 1704 c 2,0,-1
EndSplineSet
Validated: 1
EndChar

StartChar: K
Encoding: 75 75 46
Width: 1613
GlyphClass: 2
Flags: W
LayerCount: 2
Fore
SplineSet
1484 1682 m 1,0,-1
 1548 1555 l 1,1,2
 1548 1442 1548 1442 845 724 c 1,3,4
 1478 325 1478 325 1526 64 c 1,5,6
 1473 -85 1473 -85 1356 -85 c 1,7,8
 1031 112 1031 112 589 469 c 1,9,10
 632 336 632 336 632 64 c 0,11,12
 632 -79 632 -79 419 -106 c 1,13,14
 163 216 163 216 163 852 c 2,15,-1
 163 1086 l 2,16,17
 163 1640 163 1640 249 1640 c 2,18,-1
 313 1640 l 2,19,20
 469 1640 469 1640 525 916 c 1,21,22
 1225 1682 1225 1682 1484 1682 c 1,0,-1
EndSplineSet
Validated: 1
EndChar

StartChar: L
Encoding: 76 76 47
Width: 1319
GlyphClass: 2
Flags: W
LayerCount: 2
Fore
SplineSet
415 1704 m 1,0,1
 607 1665 607 1665 607 1384 c 1,2,3
 586 571 586 571 586 277 c 1,4,-1
 607 277 l 1,5,6
 910 320 910 320 1033 320 c 1,7,8
 1267 281 1267 281 1267 213 c 2,9,-1
 1267 85 l 1,10,11
 1160 -128 1160 -128 501 -128 c 2,12,-1
 479 -128 l 2,13,14
 203 -128 203 -128 203 554 c 1,15,16
 139 868 139 868 139 1150 c 0,17,18
 139 1704 139 1704 415 1704 c 1,0,1
EndSplineSet
Validated: 1
EndChar

StartChar: M
Encoding: 77 77 48
Width: 1913
GlyphClass: 2
Flags: W
LayerCount: 2
Fore
SplineSet
1457 1682 m 2,0,-1
 1564 1682 l 1,1,2
 1734 1577 1734 1577 1734 1320 c 1,3,-1
 1670 809 l 1,4,5
 1670 742 1670 742 1713 -21 c 1,6,7
 1650 -170 1650 -170 1521 -170 c 0,8,9
 1312 -170 1312 -170 1287 341 c 1,10,-1
 1287 575 l 2,11,12
 1287 786 1287 786 1308 1086 c 1,13,-1
 1308 1107 l 1,14,-1
 1287 1107 l 1,15,16
 1287 1008 1287 1008 989 703 c 1,17,-1
 946 703 l 2,18,19
 808 703 808 703 499 1065 c 1,20,-1
 499 1044 l 1,21,22
 520 453 520 453 520 64 c 2,23,-1
 520 0 l 2,24,25
 520 -114 520 -114 435 -149 c 1,26,-1
 371 -149 l 2,27,28
 216 -149 216 -149 158 1320 c 1,29,-1
 158 1491 l 2,30,31
 158 1610 158 1610 265 1640 c 1,32,33
 407 1640 407 1640 925 1171 c 1,34,35
 1279 1682 1279 1682 1457 1682 c 2,0,-1
EndSplineSet
Validated: 1
EndChar

StartChar: N
Encoding: 78 78 49
Width: 1552
GlyphClass: 2
Flags: W
LayerCount: 2
Fore
SplineSet
1300 1810 m 1,0,1
 1471 1722 1471 1722 1471 1619 c 1,2,3
 1322 885 1322 885 1279 128 c 1,4,5
 1215 -64 1215 -64 1087 -64 c 2,6,-1
 1066 -64 l 2,7,8
 915 -64 915 -64 640 639 c 1,9,10
 576 775 576 775 512 1001 c 1,11,-1
 491 1001 l 1,12,-1
 491 831 l 2,13,14
 491 708 491 708 534 213 c 1,15,16
 505 -106 505 -106 427 -106 c 2,17,-1
 363 -106 l 2,18,19
 172 -106 172 -106 172 1320 c 2,20,-1
 172 1619 l 1,21,22
 182 1789 182 1789 342 1789 c 0,23,24
 620 1789 620 1789 960 809 c 1,25,-1
 981 809 l 1,26,27
 1041 1789 1041 1789 1236 1789 c 1,28,29
 1278 1810 1278 1810 1300 1810 c 1,0,1
EndSplineSet
Validated: 1
EndChar

StartChar: O
Encoding: 79 79 50
Width: 1774
GlyphClass: 2
Flags: W
LayerCount: 2
Fore
SplineSet
932 1682 m 0,0,1
 1397 1682 1397 1682 1614 1086 c 1,2,3
 1635 1004 1635 1004 1635 916 c 2,4,-1
 1635 767 l 2,5,6
 1635 30 1635 30 1103 -149 c 1,7,-1
 975 -170 l 1,8,-1
 826 -170 l 2,9,10
 357 -170 357 -170 166 362 c 1,11,12
 123 562 123 562 123 682 c 2,13,-1
 123 724 l 2,14,15
 123 1398 123 1398 613 1640 c 1,16,17
 768 1682 768 1682 932 1682 c 0,0,1
464 745 m 1,18,19
 527 192 527 192 804 192 c 2,20,-1
 953 192 l 2,21,22
 1243 192 1243 192 1294 703 c 1,23,-1
 1294 916 l 1,24,25
 1207 1342 1207 1342 932 1342 c 2,26,-1
 847 1342 l 2,27,28
 464 1342 464 1342 464 745 c 1,18,19
EndSplineSet
Validated: 1
EndChar

StartChar: P
Encoding: 80 80 51
Width: 1399
GlyphClass: 2
Flags: W
LayerCount: 2
Fore
SplineSet
419 1810 m 2,0,-1
 526 1810 l 2,1,2
 1001 1810 1001 1810 1314 1384 c 1,3,-1
 1335 1235 l 1,4,-1
 1335 1107 l 2,5,6
 1335 824 1335 824 909 767 c 1,7,8
 697 724 697 724 547 724 c 1,9,-1
 547 703 l 1,10,11
 653 172 653 172 653 21 c 1,12,13
 615 -149 615 -149 568 -149 c 2,14,-1
 504 -149 l 2,15,16
 279 -149 279 -149 121 1619 c 1,17,18
 204 1810 204 1810 419 1810 c 2,0,-1
504 1427 m 2,19,-1
 504 1342 l 1,20,-1
 526 1086 l 1,21,-1
 675 1086 l 1,22,23
 994 1114 994 1114 994 1193 c 0,24,25
 994 1378 994 1378 632 1469 c 1,26,-1
 547 1469 l 1,27,28
 504 1463 504 1463 504 1427 c 2,19,-1
EndSplineSet
Validated: 1
EndChar

StartChar: Q
Encoding: 81 81 52
Width: 1798
GlyphClass: 2
Flags: W
LayerCount: 2
Fore
SplineSet
900 1746 m 2,0,-1
 964 1746 l 2,1,2
 1446 1746 1446 1746 1603 980 c 1,3,-1
 1603 894 l 2,4,5
 1603 603 1603 603 1496 298 c 1,6,7
 1664 131 1664 131 1667 0 c 2,8,-1
 1667 -64 l 2,9,10
 1667 -92 1667 -92 1560 -170 c 1,11,-1
 1454 -170 l 2,12,13
 1433 -170 1433 -170 1305 -21 c 1,14,15
 1188 -192 1188 -192 900 -192 c 0,16,17
 399 -192 399 -192 197 213 c 1,18,19
 134 412 134 412 134 575 c 2,20,-1
 134 703 l 2,21,22
 134 1432 134 1432 645 1704 c 1,23,24
 792 1746 792 1746 900 1746 c 2,0,-1
496 1001 m 2,25,-1
 496 788 l 2,26,27
 496 170 496 170 815 170 c 2,28,-1
 900 170 l 1,29,30
 1071 197 1071 197 1071 298 c 1,31,-1
 921 554 l 1,32,33
 949 660 949 660 985 660 c 2,34,-1
 1028 660 l 2,35,36
 1106 660 1106 660 1220 575 c 1,37,38
 1262 775 1262 775 1262 894 c 2,39,-1
 1262 958 l 1,40,41
 1221 1384 1221 1384 985 1384 c 2,42,-1
 879 1384 l 1,43,44
 496 1311 496 1311 496 1001 c 2,25,-1
EndSplineSet
Validated: 1
EndChar

StartChar: R
Encoding: 82 82 53
Width: 1590
GlyphClass: 2
Flags: W
LayerCount: 2
Fore
SplineSet
837 1725 m 1,0,1
 1197 1725 1197 1725 1369 1533 c 1,2,3
 1433 1452 1433 1452 1433 1342 c 2,4,-1
 1433 1235 l 2,5,6
 1433 920 1433 920 965 767 c 1,7,-1
 965 745 l 1,8,9
 1264 513 1264 513 1518 64 c 1,10,-1
 1518 21 l 2,11,12
 1518 -68 1518 -68 1390 -128 c 1,13,-1
 1305 -128 l 2,14,15
 1115 -128 1115 -128 837 426 c 1,16,17
 572 660 572 660 539 660 c 1,18,-1
 539 639 l 1,19,20
 645 238 645 238 645 21 c 1,21,22
 603 -128 603 -128 560 -128 c 2,23,-1
 496 -128 l 2,24,25
 268 -128 268 -128 155 1469 c 1,26,27
 155 1669 155 1669 837 1725 c 1,0,1
453 1320 m 1,28,29
 496 1208 496 1208 517 1001 c 1,30,-1
 539 1001 l 2,31,32
 926 1001 926 1001 1071 1235 c 1,33,34
 1071 1320 1071 1320 752 1320 c 2,35,-1
 453 1320 l 1,28,29
EndSplineSet
Validated: 1
EndChar

StartChar: S
Encoding: 83 83 54
Width: 1449
GlyphClass: 2
Flags: W
LayerCount: 2
Fore
SplineSet
691 1810 m 2,0,-1
 754 1810 l 1,1,2
 1308 1740 1308 1740 1308 1448 c 2,3,-1
 1308 1363 l 2,4,5
 1308 1334 1308 1334 1202 1257 c 1,6,-1
 1159 1257 l 1,7,8
 935 1491 935 1491 818 1491 c 2,9,-1
 648 1491 l 1,10,11
 499 1387 499 1387 499 1257 c 0,12,13
 499 1150 499 1150 754 1150 c 0,14,15
 1308 1150 1308 1150 1308 383 c 0,16,17
 1308 -128 1308 -128 818 -128 c 2,18,-1
 754 -128 l 2,19,20
 312 -128 312 -128 137 383 c 1,21,-1
 137 426 l 1,22,23
 146 618 146 618 307 618 c 2,24,-1
 371 618 l 2,25,26
 491 618 491 618 520 511 c 1,27,28
 478 433 478 433 478 341 c 1,29,30
 663 213 663 213 797 213 c 2,31,-1
 818 213 l 2,32,33
 967 213 967 213 967 362 c 2,34,-1
 967 405 l 2,35,36
 967 852 967 852 478 852 c 0,37,38
 196 852 196 852 158 1193 c 1,39,-1
 158 1278 l 2,40,41
 158 1810 158 1810 691 1810 c 2,0,-1
EndSplineSet
Validated: 1
EndChar

StartChar: T
Encoding: 84 84 55
Width: 1436
GlyphClass: 2
Flags: W
LayerCount: 2
Fore
SplineSet
1141 1682 m 2,0,-1
 1290 1682 l 1,1,2
 1589 1668 1589 1668 1589 1555 c 2,3,-1
 1589 1491 l 2,4,5
 1589 1326 1589 1326 1333 1278 c 1,6,-1
 1014 1278 l 1,7,8
 992 711 992 711 992 383 c 2,9,-1
 992 21 l 2,10,11
 992 -96 992 -96 864 -170 c 1,12,-1
 801 -170 l 2,13,14
 588 -170 588 -170 588 234 c 1,15,16
 644 1278 644 1278 694 1278 c 1,17,-1
 673 1278 l 2,18,19
 648 1278 648 1278 439 1235 c 1,20,-1
 247 1235 l 2,21,22
 77 1235 77 1235 77 1427 c 2,23,-1
 77 1491 l 2,24,25
 77 1682 77 1682 1141 1682 c 2,0,-1
EndSplineSet
Validated: 1
EndChar

StartChar: U
Encoding: 85 85 56
Width: 1764
GlyphClass: 2
Flags: W
LayerCount: 2
Fore
SplineSet
512 1725 m 1,0,-1
 534 1725 l 2,1,2
 590 1725 590 1725 619 1576 c 1,3,4
 491 1190 491 1190 491 703 c 1,5,6
 541 192 541 192 853 192 c 2,7,-1
 938 192 l 2,8,9
 1184 192 1184 192 1236 703 c 1,10,-1
 1236 724 l 1,11,12
 1194 1294 1194 1294 1194 1427 c 1,13,14
 1225 1576 1225 1576 1343 1576 c 0,15,16
 1598 1576 1598 1576 1598 682 c 2,17,-1
 1598 511 l 1,18,19
 1501 -170 1501 -170 1023 -170 c 2,20,-1
 832 -170 l 2,21,22
 242 -170 242 -170 150 596 c 1,23,-1
 150 894 l 2,24,25
 150 1478 150 1478 385 1597 c 1,26,27
 402 1670 402 1670 512 1725 c 1,0,-1
EndSplineSet
Validated: 1
EndChar

StartChar: V
Encoding: 86 86 57
Width: 1564
GlyphClass: 2
Flags: W
LayerCount: 2
Fore
SplineSet
163 1640 m 0,0,1
 431 1640 431 1640 802 575 c 1,2,3
 851 575 851 575 1015 1107 c 1,4,5
 1194 1533 1194 1533 1377 1533 c 2,6,-1
 1441 1533 l 1,7,8
 1548 1480 1548 1480 1548 1320 c 1,9,10
 1228 618 1228 618 1058 21 c 1,11,-1
 909 -128 l 1,12,-1
 824 -128 l 1,13,14
 535 58 535 58 78 1491 c 1,15,16
 108 1640 108 1640 163 1640 c 0,0,1
EndSplineSet
Validated: 1
EndChar

StartChar: W
Encoding: 87 87 58
Width: 2178
GlyphClass: 2
Flags: W
LayerCount: 2
Fore
SplineSet
2003 1555 m 1,0,1
 2140 1555 2140 1555 2173 1363 c 1,2,3
 1854 679 1854 679 1726 107 c 1,4,5
 1627 -70 1627 -70 1534 -128 c 1,6,-1
 1428 -128 l 2,7,8
 1315 -128 1315 -128 1108 298 c 1,9,-1
 1087 298 l 1,10,11
 1031 71 1031 71 810 -106 c 1,12,-1
 768 -106 l 1,13,14
 537 6 537 6 150 1171 c 1,15,16
 108 1255 108 1255 108 1406 c 1,17,18
 123 1512 123 1512 172 1512 c 2,19,-1
 193 1512 l 2,20,21
 496 1512 496 1512 725 639 c 1,22,23
 782 511 782 511 810 511 c 1,24,25
 894 937 894 937 1087 937 c 0,26,27
 1252 937 1252 937 1321 682 c 1,28,-1
 1449 469 l 1,29,30
 1795 1509 1795 1509 1896 1533 c 2,31,-1
 2003 1555 l 1,0,1
EndSplineSet
Validated: 1
EndChar

StartChar: X
Encoding: 88 88 59
Width: 1753
GlyphClass: 2
Flags: W
LayerCount: 2
Fore
SplineSet
1498 1619 m 2,0,-1
 1519 1619 l 2,1,2
 1549 1619 1549 1619 1583 1555 c 1,3,-1
 1583 1448 l 1,4,5
 1369 1149 1369 1149 1050 767 c 1,6,7
 1613 325 1613 325 1689 85 c 1,8,9
 1619 -149 1619 -149 1476 -149 c 0,10,11
 1312 -149 1312 -149 816 405 c 1,12,-1
 795 405 l 1,13,14
 541 -106 541 -106 326 -106 c 1,15,16
 199 -62 199 -62 199 64 c 0,17,18
 199 181 199 181 561 703 c 1,19,20
 113 1282 113 1282 113 1299 c 2,21,-1
 113 1384 l 2,22,23
 113 1547 113 1547 199 1576 c 1,24,25
 338 1576 338 1576 795 980 c 1,26,-1
 816 980 l 1,27,28
 1311 1619 1311 1619 1498 1619 c 2,0,-1
EndSplineSet
Validated: 1
EndChar

StartChar: Y
Encoding: 89 89 60
Width: 1408
GlyphClass: 2
Flags: W
LayerCount: 2
Fore
SplineSet
105 1746 m 1,0,1
 242 1746 242 1746 594 1257 c 1,2,3
 616 1257 616 1257 743 1107 c 1,4,5
 1340 1746 1340 1746 1425 1746 c 2,6,-1
 1446 1746 l 1,7,8
 1510 1656 1510 1656 1510 1576 c 1,9,10
 1292 1130 1292 1130 935 724 c 1,11,-1
 935 703 l 1,12,13
 1020 76 1020 76 1020 -42 c 1,14,15
 976 -170 976 -170 850 -170 c 2,16,-1
 765 -170 l 1,17,18
 573 57 573 57 573 532 c 2,19,-1
 573 660 l 1,20,-1
 594 703 l 1,21,22
 355 807 355 807 41 1597 c 1,23,-1
 41 1682 l 2,24,25
 41 1713 41 1713 105 1746 c 1,0,1
EndSplineSet
Validated: 1
EndChar

StartChar: Z
Encoding: 90 90 61
Width: 1817
GlyphClass: 2
Flags: W
LayerCount: 2
Fore
SplineSet
599 1619 m 2,0,-1
 876 1619 l 2,1,2
 1472 1619 1472 1619 1472 1406 c 1,3,4
 1327 1175 1327 1175 642 277 c 1,5,-1
 791 298 l 1,6,-1
 1430 298 l 2,7,8
 1771 298 1771 298 1771 85 c 2,9,-1
 1771 64 l 2,10,11
 1771 -28 1771 -28 1472 -42 c 1,12,-1
 919 -42 l 1,13,14
 516 -106 516 -106 344 -106 c 2,15,-1
 323 -106 l 2,16,17
 206 -106 206 -106 152 21 c 1,18,-1
 152 64 l 2,19,20
 152 236 152 236 940 1257 c 1,21,-1
 897 1257 l 2,22,23
 88 1257 88 1257 88 1491 c 2,24,-1
 88 1512 l 1,25,26
 197 1619 197 1619 599 1619 c 2,0,-1
EndSplineSet
Validated: 1
EndChar

StartChar: bracketleft
Encoding: 91 91 62
Width: 843
GlyphClass: 2
Flags: W
LayerCount: 2
Fore
SplineSet
337 1214 m 1,0,1
 742 1174 742 1174 742 1022 c 2,2,-1
 742 1001 l 2,3,4
 742 909 742 909 444 894 c 1,5,-1
 358 894 l 1,6,7
 401 638 401 638 401 320 c 1,8,-1
 422 320 l 1,9,10
 460 341 460 341 507 341 c 2,11,-1
 550 341 l 1,12,13
 763 325 763 325 763 234 c 0,14,15
 763 0 763 0 380 0 c 0,16,17
 60 0 60 0 60 149 c 0,18,19
 60 202 60 202 103 383 c 1,20,21
 60 616 60 616 60 916 c 2,22,-1
 60 937 l 1,23,24
 100 1214 100 1214 337 1214 c 1,0,1
EndSplineSet
Validated: 1
EndChar

StartChar: backslash
Encoding: 92 92 63
Width: 694
GlyphClass: 2
Flags: W
LayerCount: 2
Fore
SplineSet
124 1107 m 1,0,-1
 145 1107 l 1,1,2
 432 813 432 813 614 149 c 1,3,-1
 614 128 l 2,4,5
 614 95 614 95 529 43 c 1,6,-1
 443 43 l 2,7,8
 302 43 302 43 60 937 c 1,9,10
 60 1094 60 1094 124 1107 c 1,0,-1
EndSplineSet
Validated: 1
EndChar

StartChar: bracketright
Encoding: 93 93 64
Width: 821
GlyphClass: 2
Flags: W
LayerCount: 2
Fore
SplineSet
379 1235 m 1,0,-1
 507 1235 l 2,1,2
 720 1235 720 1235 720 767 c 0,3,4
 720 382 720 382 741 64 c 1,5,6
 697 -64 697 -64 571 -64 c 2,7,-1
 550 -64 l 2,8,9
 145 -64 145 -64 145 128 c 2,10,-1
 145 149 l 1,11,12
 193 256 193 256 358 256 c 2,13,-1
 422 256 l 1,14,-1
 422 916 l 1,15,-1
 124 916 l 2,16,17
 87 916 87 916 60 1022 c 1,18,19
 60 1141 60 1141 379 1235 c 1,0,-1
EndSplineSet
Validated: 1
EndChar

StartChar: underscore
Encoding: 95 95 65
Width: 1226
GlyphClass: 2
Flags: W
LayerCount: 2
Fore
SplineSet
230 213 m 1,0,-1
 976 213 l 2,1,2
 1092 213 1092 213 1146 107 c 1,3,-1
 1146 43 l 2,4,5
 1146 -21 1146 -21 656 -21 c 2,6,-1
 188 -21 l 2,7,8
 77 -21 77 -21 60 43 c 1,9,-1
 60 128 l 2,10,11
 60 183 60 183 230 213 c 1,0,-1
EndSplineSet
Validated: 1
EndChar

StartChar: grave
Encoding: 96 96 66
Width: 601
GlyphClass: 2
Flags: W
LayerCount: 2
Fore
SplineSet
521 1189 m 1,0,-1
 452 1189 l 1,1,-1
 122 1391 l 2,2,3
 91 1411 91 1411 75.5 1431 c 128,-1,4
 60 1451 60 1451 60 1473 c 0,5,6
 60 1504 60 1504 80.5 1524 c 128,-1,7
 101 1544 101 1544 134 1544 c 0,8,9
 154 1544 154 1544 174.5 1532 c 128,-1,10
 195 1520 195 1520 230 1485 c 2,11,-1
 521 1189 l 1,0,-1
EndSplineSet
Validated: 1
EndChar

StartChar: a
Encoding: 97 97 67
Width: 1576
GlyphClass: 2
Flags: W
LayerCount: 2
Fore
SplineSet
830 1725 m 2,0,-1
 873 1725 l 2,1,2
 1286 1725 1286 1725 1448 0 c 1,3,4
 1448 -85 1448 -85 1342 -149 c 1,5,-1
 1235 -149 l 2,6,7
 1080 -149 1080 -149 1043 469 c 1,8,-1
 1043 596 l 1,9,-1
 1022 639 l 1,10,11
 569 490 569 490 468 490 c 1,12,13
 511 320 511 320 511 85 c 2,14,-1
 511 0 l 2,15,16
 511 -116 511 -116 405 -170 c 1,17,-1
 298 -170 l 1,18,19
 149 -72 149 -72 149 192 c 0,20,21
 149 1355 149 1355 554 1576 c 1,22,23
 653 1725 653 1725 830 1725 c 2,0,-1
490 831 m 1,24,25
 828 894 828 894 894 894 c 2,26,-1
 980 894 l 1,27,-1
 980 916 l 1,28,29
 920 1342 920 1342 809 1342 c 0,30,31
 576 1342 576 1342 490 831 c 1,24,25
EndSplineSet
Validated: 1
EndChar

StartChar: b
Encoding: 98 98 68
Width: 1725
GlyphClass: 2
Flags: W
LayerCount: 2
Fore
SplineSet
345 1746 m 1,0,1
 490 1724 490 1724 494 1682 c 1,2,3
 572 1725 572 1725 665 1725 c 2,4,-1
 856 1725 l 1,5,6
 1453 1661 1453 1661 1453 1257 c 0,7,8
 1453 1184 1453 1184 1346 1022 c 1,9,-1
 1346 1001 l 1,10,11
 1518 1001 1518 1001 1580 639 c 0,12,13
 1602 524 1602 524 1602 447 c 1,14,15
 1410 -106 1410 -106 792 -106 c 2,16,-1
 622 -106 l 1,17,18
 239 -52 239 -52 239 256 c 1,19,-1
 260 554 l 1,20,21
 260 848 260 848 154 1533 c 1,22,23
 183 1746 183 1746 345 1746 c 1,0,1
558 1150 m 1,24,25
 579 964 579 964 579 937 c 1,26,27
 629 937 629 937 835 1065 c 1,28,29
 1112 1065 1112 1065 1112 1257 c 0,30,31
 1112 1415 1112 1415 729 1427 c 1,32,33
 558 1350 558 1350 558 1150 c 1,24,25
601 554 m 1,34,35
 636 234 636 234 707 234 c 0,36,37
 1118 234 1118 234 1261 490 c 1,38,-1
 1261 575 l 2,39,40
 1261 745 1261 745 1091 745 c 2,41,-1
 1069 745 l 1,42,43
 755 671 755 671 601 554 c 1,34,35
EndSplineSet
Validated: 1
EndChar

StartChar: c
Encoding: 99 99 69
Width: 1509
GlyphClass: 2
Flags: W
LayerCount: 2
Fore
SplineSet
908 1831 m 1,0,1
 1313 1768 1313 1768 1313 1469 c 2,2,-1
 1313 1406 l 1,3,4
 1304 1362 1304 1362 1207 1320 c 1,5,6
 1174 1320 1174 1320 994 1491 c 1,7,-1
 866 1491 l 2,8,9
 461 1491 461 1491 461 575 c 0,10,11
 461 301 461 301 717 256 c 1,12,-1
 823 256 l 2,13,14
 929 256 929 256 1270 575 c 1,15,-1
 1313 575 l 1,16,17
 1398 543 1398 543 1398 511 c 2,18,-1
 1398 405 l 1,19,20
 1295 -106 1295 -106 887 -106 c 1,21,22
 887 -128 887 -128 759 -128 c 0,23,24
 185 -128 185 -128 120 554 c 1,25,-1
 120 639 l 2,26,27
 120 1497 120 1497 568 1725 c 1,28,29
 767 1831 767 1831 908 1831 c 1,0,1
EndSplineSet
Validated: 1
EndChar

StartChar: d
Encoding: 100 100 70
Width: 1594
GlyphClass: 2
Flags: W
LayerCount: 2
Fore
SplineSet
631 1661 m 2,0,-1
 737 1661 l 1,1,2
 1483 1563 1483 1563 1483 937 c 2,3,-1
 1483 745 l 2,4,5
 1483 127 1483 127 780 -149 c 1,6,-1
 652 -170 l 1,7,8
 184 -170 184 -170 184 320 c 0,9,10
 184 511 184 511 247 937 c 1,11,12
 184 1230 184 1230 184 1363 c 2,13,-1
 184 1448 l 1,14,15
 327 1661 327 1661 631 1661 c 2,0,-1
567 1299 m 1,16,-1
 588 1086 l 1,17,-1
 588 1065 l 2,18,19
 588 983 588 983 524 447 c 1,20,21
 551 192 551 192 609 192 c 2,22,-1
 673 192 l 2,23,24
 1018 192 1018 192 1121 724 c 0,25,26
 1121 740 1121 740 1142 852 c 1,27,28
 1142 1049 1142 1049 908 1257 c 1,29,30
 716 1299 716 1299 631 1299 c 2,31,-1
 567 1299 l 1,16,-1
EndSplineSet
Validated: 1
EndChar

StartChar: e
Encoding: 101 101 71
Width: 1311
GlyphClass: 2
Flags: W
LayerCount: 2
Fore
SplineSet
691 1682 m 1,0,-1
 946 1682 l 1,1,2
 1287 1661 1287 1661 1287 1512 c 0,3,4
 1287 1342 1287 1342 925 1342 c 2,5,-1
 627 1342 l 1,6,-1
 541 1320 l 1,7,8
 597 928 597 928 627 873 c 1,9,10
 946 847 946 847 946 682 c 0,11,12
 946 571 946 571 627 469 c 1,13,-1
 627 192 l 1,14,-1
 946 192 l 2,15,16
 1287 192 1287 192 1287 0 c 256,17,18
 1287 -192 1287 -192 733 -192 c 2,19,-1
 478 -192 l 2,20,21
 364 -192 364 -192 265 447 c 1,22,-1
 201 532 l 1,23,-1
 201 554 l 2,24,25
 201 666 201 666 222 745 c 1,26,27
 201 877 201 877 158 1448 c 1,28,29
 158 1640 158 1640 691 1682 c 1,0,-1
EndSplineSet
Validated: 1
EndChar

StartChar: f
Encoding: 102 102 72
Width: 1253
GlyphClass: 2
Flags: W
LayerCount: 2
Fore
SplineSet
1016 1746 m 2,0,-1
 1037 1746 l 2,1,2
 1304 1746 1304 1746 1378 1619 c 1,3,-1
 1378 1533 l 2,4,5
 1378 1398 1378 1398 611 1363 c 1,6,7
 505 1294 505 1294 505 1235 c 0,8,9
 505 1130 505 1130 547 831 c 1,10,-1
 696 852 l 1,11,-1
 760 852 l 1,12,13
 995 831 995 831 995 682 c 0,14,15
 995 570 995 570 633 469 c 1,16,17
 696 119 696 119 696 0 c 0,18,19
 696 -85 696 -85 590 -149 c 1,20,-1
 483 -149 l 1,21,22
 257 -37 257 -37 121 1427 c 1,23,24
 264 1725 264 1725 718 1725 c 1,25,26
 782 1746 782 1746 1016 1746 c 2,0,-1
EndSplineSet
Validated: 1
EndChar

StartChar: g
Encoding: 103 103 73
Width: 1777
GlyphClass: 2
Flags: W
LayerCount: 2
Fore
SplineSet
864 1768 m 2,0,-1
 970 1768 l 1,1,2
 1481 1653 1481 1653 1481 1363 c 2,3,-1
 1481 1299 l 2,4,5
 1481 1150 1481 1150 1354 1150 c 1,6,7
 1171 1406 1171 1406 1055 1406 c 2,8,-1
 757 1406 l 1,9,10
 480 1197 480 1197 480 745 c 0,11,12
 480 192 480 192 928 192 c 1,13,14
 1119 204 1119 204 1119 256 c 1,15,16
 842 256 842 256 842 383 c 2,17,-1
 842 447 l 2,18,19
 842 660 842 660 1247 660 c 0,20,21
 1558 660 1558 660 1630 511 c 1,22,-1
 1630 469 l 1,23,-1
 1524 341 l 1,24,25
 1652 246 1652 246 1652 64 c 2,26,-1
 1652 43 l 2,27,28
 1652 -128 1652 -128 1481 -128 c 0,29,30
 1428 -128 1428 -128 1332 -42 c 1,31,32
 1158 -170 1158 -170 928 -170 c 2,33,-1
 864 -170 l 2,34,35
 118 -170 118 -170 118 788 c 0,36,37
 118 1475 118 1475 544 1704 c 1,38,39
 736 1768 736 1768 864 1768 c 2,0,-1
EndSplineSet
Validated: 1
EndChar

StartChar: h
Encoding: 104 104 74
Width: 1759
GlyphClass: 2
Flags: W
LayerCount: 2
Fore
SplineSet
380 1768 m 0,0,1
 482 1768 482 1768 551 852 c 1,2,-1
 764 873 l 1,3,-1
 1211 873 l 1,4,-1
 1211 894 l 2,5,6
 1211 1369 1211 1369 1424 1661 c 1,7,-1
 1466 1661 l 2,8,9
 1559 1661 1559 1661 1573 852 c 1,10,11
 1573 -149 1573 -149 1317 -149 c 0,12,13
 1196 -149 1196 -149 1168 85 c 1,14,-1
 1168 277 l 1,15,-1
 1190 490 l 1,16,17
 876 447 876 447 721 447 c 2,18,-1
 615 447 l 1,19,20
 636 160 636 160 636 21 c 0,21,22
 636 -149 636 -149 465 -170 c 1,23,-1
 444 -170 l 2,24,25
 230 -170 230 -170 167 1448 c 1,26,27
 210 1768 210 1768 380 1768 c 0,0,1
EndSplineSet
Validated: 1
EndChar

StartChar: i
Encoding: 105 105 75
Width: 1085
GlyphClass: 2
Flags: W
LayerCount: 2
Fore
SplineSet
463 1661 m 0,0,1
 1017 1661 1017 1661 1017 1427 c 2,2,-1
 1017 1406 l 2,3,4
 1017 1257 1017 1257 847 1257 c 2,5,-1
 783 1257 l 1,6,-1
 783 490 l 2,7,8
 783 383 783 383 804 170 c 1,9,10
 1017 170 1017 170 1038 85 c 1,11,-1
 1038 0 l 2,12,13
 1038 -139 1038 -139 485 -170 c 1,14,-1
 336 -170 l 2,15,16
 169 -170 169 -170 101 -42 c 1,17,-1
 101 43 l 2,18,19
 101 192 101 192 250 192 c 2,20,-1
 421 192 l 1,21,-1
 421 511 l 2,22,23
 421 755 421 755 442 1257 c 1,24,25
 165 1283 165 1283 165 1469 c 0,26,27
 165 1661 165 1661 463 1661 c 0,0,1
EndSplineSet
Validated: 1
EndChar

StartChar: j
Encoding: 106 106 76
Width: 1346
GlyphClass: 2
Flags: W
LayerCount: 2
Fore
SplineSet
763 1704 m 2,0,-1
 1040 1704 l 2,1,2
 1194 1704 1194 1704 1232 1597 c 1,3,-1
 1232 1512 l 2,4,5
 1232 1335 1232 1335 1019 1320 c 1,6,7
 1147 783 1147 783 1147 511 c 2,8,-1
 1147 426 l 2,9,10
 1147 -39 1147 -39 785 -192 c 1,11,-1
 657 -213 l 1,12,-1
 529 -213 l 1,13,14
 82 -115 82 -115 82 149 c 2,15,-1
 82 213 l 1,16,17
 118 426 118 426 252 426 c 1,18,19
 335 418 335 418 465 149 c 1,20,-1
 572 149 l 2,21,22
 785 149 785 149 785 469 c 0,23,24
 785 721 785 721 614 1320 c 1,25,26
 167 1356 167 1356 167 1576 c 1,27,28
 332 1704 332 1704 763 1704 c 2,0,-1
EndSplineSet
Validated: 1
EndChar

StartChar: k
Encoding: 107 107 77
Width: 1613
GlyphClass: 2
Flags: W
LayerCount: 2
Fore
SplineSet
1484 1682 m 1,0,-1
 1548 1555 l 1,1,2
 1548 1442 1548 1442 845 724 c 1,3,4
 1478 325 1478 325 1526 64 c 1,5,6
 1473 -85 1473 -85 1356 -85 c 1,7,8
 1031 112 1031 112 589 469 c 1,9,10
 632 336 632 336 632 64 c 0,11,12
 632 -79 632 -79 419 -106 c 1,13,14
 163 216 163 216 163 852 c 2,15,-1
 163 1086 l 2,16,17
 163 1640 163 1640 249 1640 c 2,18,-1
 313 1640 l 2,19,20
 469 1640 469 1640 525 916 c 1,21,22
 1225 1682 1225 1682 1484 1682 c 1,0,-1
EndSplineSet
Validated: 1
EndChar

StartChar: l
Encoding: 108 108 78
Width: 1319
GlyphClass: 2
Flags: W
LayerCount: 2
Fore
SplineSet
415 1704 m 1,0,1
 607 1665 607 1665 607 1384 c 1,2,3
 586 571 586 571 586 277 c 1,4,-1
 607 277 l 1,5,6
 910 320 910 320 1033 320 c 1,7,8
 1267 281 1267 281 1267 213 c 2,9,-1
 1267 85 l 1,10,11
 1160 -128 1160 -128 501 -128 c 2,12,-1
 479 -128 l 2,13,14
 203 -128 203 -128 203 554 c 1,15,16
 139 868 139 868 139 1150 c 0,17,18
 139 1704 139 1704 415 1704 c 1,0,1
EndSplineSet
Validated: 1
EndChar

StartChar: m
Encoding: 109 109 79
Width: 1913
GlyphClass: 2
Flags: W
LayerCount: 2
Fore
SplineSet
1457 1682 m 2,0,-1
 1564 1682 l 1,1,2
 1734 1577 1734 1577 1734 1320 c 1,3,-1
 1670 809 l 1,4,5
 1670 742 1670 742 1713 -21 c 1,6,7
 1650 -170 1650 -170 1521 -170 c 0,8,9
 1312 -170 1312 -170 1287 341 c 1,10,-1
 1287 575 l 2,11,12
 1287 786 1287 786 1308 1086 c 1,13,-1
 1308 1107 l 1,14,-1
 1287 1107 l 1,15,16
 1287 1008 1287 1008 989 703 c 1,17,-1
 946 703 l 2,18,19
 808 703 808 703 499 1065 c 1,20,-1
 499 1044 l 1,21,22
 520 453 520 453 520 64 c 2,23,-1
 520 0 l 2,24,25
 520 -114 520 -114 435 -149 c 1,26,-1
 371 -149 l 2,27,28
 216 -149 216 -149 158 1320 c 1,29,-1
 158 1491 l 2,30,31
 158 1610 158 1610 265 1640 c 1,32,33
 407 1640 407 1640 925 1171 c 1,34,35
 1279 1682 1279 1682 1457 1682 c 2,0,-1
EndSplineSet
Validated: 1
EndChar

StartChar: n
Encoding: 110 110 80
Width: 1552
GlyphClass: 2
Flags: W
LayerCount: 2
Fore
SplineSet
1300 1810 m 1,0,1
 1471 1722 1471 1722 1471 1619 c 1,2,3
 1322 885 1322 885 1279 128 c 1,4,5
 1215 -64 1215 -64 1087 -64 c 2,6,-1
 1066 -64 l 2,7,8
 915 -64 915 -64 640 639 c 1,9,10
 576 775 576 775 512 1001 c 1,11,-1
 491 1001 l 1,12,-1
 491 831 l 2,13,14
 491 708 491 708 534 213 c 1,15,16
 505 -106 505 -106 427 -106 c 2,17,-1
 363 -106 l 2,18,19
 172 -106 172 -106 172 1320 c 2,20,-1
 172 1619 l 1,21,22
 182 1789 182 1789 342 1789 c 0,23,24
 620 1789 620 1789 960 809 c 1,25,-1
 981 809 l 1,26,27
 1041 1789 1041 1789 1236 1789 c 1,28,29
 1278 1810 1278 1810 1300 1810 c 1,0,1
EndSplineSet
Validated: 1
EndChar

StartChar: o
Encoding: 111 111 81
Width: 1774
GlyphClass: 2
Flags: W
LayerCount: 2
Fore
SplineSet
932 1682 m 0,0,1
 1397 1682 1397 1682 1614 1086 c 1,2,3
 1635 1004 1635 1004 1635 916 c 2,4,-1
 1635 767 l 2,5,6
 1635 30 1635 30 1103 -149 c 1,7,-1
 975 -170 l 1,8,-1
 826 -170 l 2,9,10
 357 -170 357 -170 166 362 c 1,11,12
 123 562 123 562 123 682 c 2,13,-1
 123 724 l 2,14,15
 123 1398 123 1398 613 1640 c 1,16,17
 768 1682 768 1682 932 1682 c 0,0,1
464 745 m 1,18,19
 527 192 527 192 804 192 c 2,20,-1
 953 192 l 2,21,22
 1243 192 1243 192 1294 703 c 1,23,-1
 1294 916 l 1,24,25
 1207 1342 1207 1342 932 1342 c 2,26,-1
 847 1342 l 2,27,28
 464 1342 464 1342 464 745 c 1,18,19
EndSplineSet
Validated: 1
EndChar

StartChar: p
Encoding: 112 112 82
Width: 1399
GlyphClass: 2
Flags: W
LayerCount: 2
Fore
SplineSet
419 1810 m 2,0,-1
 526 1810 l 2,1,2
 1001 1810 1001 1810 1314 1384 c 1,3,-1
 1335 1235 l 1,4,-1
 1335 1107 l 2,5,6
 1335 824 1335 824 909 767 c 1,7,8
 697 724 697 724 547 724 c 1,9,-1
 547 703 l 1,10,11
 653 172 653 172 653 21 c 1,12,13
 615 -149 615 -149 568 -149 c 2,14,-1
 504 -149 l 2,15,16
 279 -149 279 -149 121 1619 c 1,17,18
 204 1810 204 1810 419 1810 c 2,0,-1
504 1427 m 2,19,-1
 504 1342 l 1,20,-1
 526 1086 l 1,21,-1
 675 1086 l 1,22,23
 994 1114 994 1114 994 1193 c 0,24,25
 994 1378 994 1378 632 1469 c 1,26,-1
 547 1469 l 1,27,28
 504 1463 504 1463 504 1427 c 2,19,-1
EndSplineSet
Validated: 1
EndChar

StartChar: q
Encoding: 113 113 83
Width: 1798
GlyphClass: 2
Flags: W
LayerCount: 2
Fore
SplineSet
900 1746 m 2,0,-1
 964 1746 l 2,1,2
 1446 1746 1446 1746 1603 980 c 1,3,-1
 1603 894 l 2,4,5
 1603 603 1603 603 1496 298 c 1,6,7
 1664 131 1664 131 1667 0 c 2,8,-1
 1667 -64 l 2,9,10
 1667 -92 1667 -92 1560 -170 c 1,11,-1
 1454 -170 l 2,12,13
 1433 -170 1433 -170 1305 -21 c 1,14,15
 1188 -192 1188 -192 900 -192 c 0,16,17
 399 -192 399 -192 197 213 c 1,18,19
 134 412 134 412 134 575 c 2,20,-1
 134 703 l 2,21,22
 134 1432 134 1432 645 1704 c 1,23,24
 792 1746 792 1746 900 1746 c 2,0,-1
496 1001 m 2,25,-1
 496 788 l 2,26,27
 496 170 496 170 815 170 c 2,28,-1
 900 170 l 1,29,30
 1071 197 1071 197 1071 298 c 1,31,-1
 921 554 l 1,32,33
 949 660 949 660 985 660 c 2,34,-1
 1028 660 l 2,35,36
 1106 660 1106 660 1220 575 c 1,37,38
 1262 775 1262 775 1262 894 c 2,39,-1
 1262 958 l 1,40,41
 1221 1384 1221 1384 985 1384 c 2,42,-1
 879 1384 l 1,43,44
 496 1311 496 1311 496 1001 c 2,25,-1
EndSplineSet
Validated: 1
EndChar

StartChar: r
Encoding: 114 114 84
Width: 1590
GlyphClass: 2
Flags: W
LayerCount: 2
Fore
SplineSet
837 1725 m 1,0,1
 1197 1725 1197 1725 1369 1533 c 1,2,3
 1433 1452 1433 1452 1433 1342 c 2,4,-1
 1433 1235 l 2,5,6
 1433 920 1433 920 965 767 c 1,7,-1
 965 745 l 1,8,9
 1264 513 1264 513 1518 64 c 1,10,-1
 1518 21 l 2,11,12
 1518 -68 1518 -68 1390 -128 c 1,13,-1
 1305 -128 l 2,14,15
 1115 -128 1115 -128 837 426 c 1,16,17
 572 660 572 660 539 660 c 1,18,-1
 539 639 l 1,19,20
 645 238 645 238 645 21 c 1,21,22
 603 -128 603 -128 560 -128 c 2,23,-1
 496 -128 l 2,24,25
 268 -128 268 -128 155 1469 c 1,26,27
 155 1669 155 1669 837 1725 c 1,0,1
453 1320 m 1,28,29
 496 1208 496 1208 517 1001 c 1,30,-1
 539 1001 l 2,31,32
 926 1001 926 1001 1071 1235 c 1,33,34
 1071 1320 1071 1320 752 1320 c 2,35,-1
 453 1320 l 1,28,29
EndSplineSet
Validated: 1
EndChar

StartChar: s
Encoding: 115 115 85
Width: 1449
GlyphClass: 2
Flags: W
LayerCount: 2
Fore
SplineSet
691 1810 m 2,0,-1
 754 1810 l 1,1,2
 1308 1740 1308 1740 1308 1448 c 2,3,-1
 1308 1363 l 2,4,5
 1308 1334 1308 1334 1202 1257 c 1,6,-1
 1159 1257 l 1,7,8
 935 1491 935 1491 818 1491 c 2,9,-1
 648 1491 l 1,10,11
 499 1387 499 1387 499 1257 c 0,12,13
 499 1150 499 1150 754 1150 c 0,14,15
 1308 1150 1308 1150 1308 383 c 0,16,17
 1308 -128 1308 -128 818 -128 c 2,18,-1
 754 -128 l 2,19,20
 312 -128 312 -128 137 383 c 1,21,-1
 137 426 l 1,22,23
 146 618 146 618 307 618 c 2,24,-1
 371 618 l 2,25,26
 491 618 491 618 520 511 c 1,27,28
 478 433 478 433 478 341 c 1,29,30
 663 213 663 213 797 213 c 2,31,-1
 818 213 l 2,32,33
 967 213 967 213 967 362 c 2,34,-1
 967 405 l 2,35,36
 967 852 967 852 478 852 c 0,37,38
 196 852 196 852 158 1193 c 1,39,-1
 158 1278 l 2,40,41
 158 1810 158 1810 691 1810 c 2,0,-1
EndSplineSet
Validated: 1
EndChar

StartChar: t
Encoding: 116 116 86
Width: 1436
GlyphClass: 2
Flags: W
LayerCount: 2
Fore
SplineSet
1141 1682 m 2,0,-1
 1290 1682 l 1,1,2
 1589 1668 1589 1668 1589 1555 c 2,3,-1
 1589 1491 l 2,4,5
 1589 1326 1589 1326 1333 1278 c 1,6,-1
 1014 1278 l 1,7,8
 992 711 992 711 992 383 c 2,9,-1
 992 21 l 2,10,11
 992 -96 992 -96 864 -170 c 1,12,-1
 801 -170 l 2,13,14
 588 -170 588 -170 588 234 c 1,15,16
 644 1278 644 1278 694 1278 c 1,17,-1
 673 1278 l 2,18,19
 648 1278 648 1278 439 1235 c 1,20,-1
 247 1235 l 2,21,22
 77 1235 77 1235 77 1427 c 2,23,-1
 77 1491 l 2,24,25
 77 1682 77 1682 1141 1682 c 2,0,-1
EndSplineSet
Validated: 1
EndChar

StartChar: u
Encoding: 117 117 87
Width: 1764
GlyphClass: 2
Flags: W
LayerCount: 2
Fore
SplineSet
512 1725 m 1,0,-1
 534 1725 l 2,1,2
 590 1725 590 1725 619 1576 c 1,3,4
 491 1190 491 1190 491 703 c 1,5,6
 541 192 541 192 853 192 c 2,7,-1
 938 192 l 2,8,9
 1184 192 1184 192 1236 703 c 1,10,-1
 1236 724 l 1,11,12
 1194 1294 1194 1294 1194 1427 c 1,13,14
 1225 1576 1225 1576 1343 1576 c 0,15,16
 1598 1576 1598 1576 1598 682 c 2,17,-1
 1598 511 l 1,18,19
 1501 -170 1501 -170 1023 -170 c 2,20,-1
 832 -170 l 2,21,22
 242 -170 242 -170 150 596 c 1,23,-1
 150 894 l 2,24,25
 150 1478 150 1478 385 1597 c 1,26,27
 402 1670 402 1670 512 1725 c 1,0,-1
EndSplineSet
Validated: 1
EndChar

StartChar: v
Encoding: 118 118 88
Width: 1564
GlyphClass: 2
Flags: W
LayerCount: 2
Fore
SplineSet
163 1640 m 0,0,1
 431 1640 431 1640 802 575 c 1,2,3
 851 575 851 575 1015 1107 c 1,4,5
 1194 1533 1194 1533 1377 1533 c 2,6,-1
 1441 1533 l 1,7,8
 1548 1480 1548 1480 1548 1320 c 1,9,10
 1228 618 1228 618 1058 21 c 1,11,-1
 909 -128 l 1,12,-1
 824 -128 l 1,13,14
 535 58 535 58 78 1491 c 1,15,16
 108 1640 108 1640 163 1640 c 0,0,1
EndSplineSet
Validated: 1
EndChar

StartChar: w
Encoding: 119 119 89
Width: 2178
GlyphClass: 2
Flags: W
LayerCount: 2
Fore
SplineSet
2003 1555 m 1,0,1
 2140 1555 2140 1555 2173 1363 c 1,2,3
 1854 679 1854 679 1726 107 c 1,4,5
 1627 -70 1627 -70 1534 -128 c 1,6,-1
 1428 -128 l 2,7,8
 1315 -128 1315 -128 1108 298 c 1,9,-1
 1087 298 l 1,10,11
 1031 71 1031 71 810 -106 c 1,12,-1
 768 -106 l 1,13,14
 537 6 537 6 150 1171 c 1,15,16
 108 1255 108 1255 108 1406 c 1,17,18
 123 1512 123 1512 172 1512 c 2,19,-1
 193 1512 l 2,20,21
 496 1512 496 1512 725 639 c 1,22,23
 782 511 782 511 810 511 c 1,24,25
 894 937 894 937 1087 937 c 0,26,27
 1252 937 1252 937 1321 682 c 1,28,-1
 1449 469 l 1,29,30
 1795 1509 1795 1509 1896 1533 c 2,31,-1
 2003 1555 l 1,0,1
EndSplineSet
Validated: 1
EndChar

StartChar: x
Encoding: 120 120 90
Width: 1753
GlyphClass: 2
Flags: W
LayerCount: 2
Fore
SplineSet
1498 1619 m 2,0,-1
 1519 1619 l 2,1,2
 1549 1619 1549 1619 1583 1555 c 1,3,-1
 1583 1448 l 1,4,5
 1369 1149 1369 1149 1050 767 c 1,6,7
 1613 325 1613 325 1689 85 c 1,8,9
 1619 -149 1619 -149 1476 -149 c 0,10,11
 1312 -149 1312 -149 816 405 c 1,12,-1
 795 405 l 1,13,14
 541 -106 541 -106 326 -106 c 1,15,16
 199 -62 199 -62 199 64 c 0,17,18
 199 181 199 181 561 703 c 1,19,20
 113 1282 113 1282 113 1299 c 2,21,-1
 113 1384 l 2,22,23
 113 1547 113 1547 199 1576 c 1,24,25
 338 1576 338 1576 795 980 c 1,26,-1
 816 980 l 1,27,28
 1311 1619 1311 1619 1498 1619 c 2,0,-1
EndSplineSet
Validated: 1
EndChar

StartChar: y
Encoding: 121 121 91
Width: 1408
GlyphClass: 2
Flags: W
LayerCount: 2
Fore
SplineSet
105 1746 m 1,0,1
 242 1746 242 1746 594 1257 c 1,2,3
 616 1257 616 1257 743 1107 c 1,4,5
 1340 1746 1340 1746 1425 1746 c 2,6,-1
 1446 1746 l 1,7,8
 1510 1656 1510 1656 1510 1576 c 1,9,10
 1292 1130 1292 1130 935 724 c 1,11,-1
 935 703 l 1,12,13
 1020 76 1020 76 1020 -42 c 1,14,15
 976 -170 976 -170 850 -170 c 2,16,-1
 765 -170 l 1,17,18
 573 57 573 57 573 532 c 2,19,-1
 573 660 l 1,20,-1
 594 703 l 1,21,22
 355 807 355 807 41 1597 c 1,23,-1
 41 1682 l 2,24,25
 41 1713 41 1713 105 1746 c 1,0,1
EndSplineSet
Validated: 1
EndChar

StartChar: z
Encoding: 122 122 92
Width: 1817
GlyphClass: 2
Flags: W
LayerCount: 2
Fore
SplineSet
599 1619 m 2,0,-1
 876 1619 l 2,1,2
 1472 1619 1472 1619 1472 1406 c 1,3,4
 1327 1175 1327 1175 642 277 c 1,5,-1
 791 298 l 1,6,-1
 1430 298 l 2,7,8
 1771 298 1771 298 1771 85 c 2,9,-1
 1771 64 l 2,10,11
 1771 -28 1771 -28 1472 -42 c 1,12,-1
 919 -42 l 1,13,14
 516 -106 516 -106 344 -106 c 2,15,-1
 323 -106 l 2,16,17
 206 -106 206 -106 152 21 c 1,18,-1
 152 64 l 2,19,20
 152 236 152 236 940 1257 c 1,21,-1
 897 1257 l 2,22,23
 88 1257 88 1257 88 1491 c 2,24,-1
 88 1512 l 1,25,26
 197 1619 197 1619 599 1619 c 2,0,-1
EndSplineSet
Validated: 1
EndChar

StartChar: braceleft
Encoding: 123 123 93
Width: 886
GlyphClass: 2
Flags: W
LayerCount: 2
Fore
SplineSet
742 1171 m 2,0,1
 772 1171 772 1171 806 1107 c 1,2,-1
 806 1086 l 1,3,4
 507 764 507 764 507 575 c 2,5,-1
 507 490 l 2,6,7
 507 413 507 413 720 85 c 1,8,-1
 720 64 l 1,9,10
 676 -64 676 -64 550 -64 c 0,11,12
 256 -64 256 -64 209 405 c 1,13,14
 73 405 73 405 60 469 c 1,15,-1
 60 575 l 2,16,17
 60 623 60 623 209 660 c 1,18,19
 209 973 209 973 593 1171 c 1,20,-1
 742 1171 l 2,0,1
EndSplineSet
Validated: 1
EndChar

StartChar: bar
Encoding: 124 124 94
Width: 439
GlyphClass: 2
Flags: W
LayerCount: 2
Fore
SplineSet
188 1107 m 1,0,-1
 209 1107 l 2,1,2
 316 1107 316 1107 359 724 c 1,3,4
 359 -85 359 -85 209 -85 c 2,5,-1
 167 -85 l 2,6,7
 93 -85 93 -85 60 149 c 1,8,-1
 60 682 l 2,9,10
 60 1004 60 1004 188 1107 c 1,0,-1
EndSplineSet
Validated: 1
EndChar

StartChar: braceright
Encoding: 125 125 95
Width: 758
GlyphClass: 2
Flags: W
LayerCount: 2
Fore
SplineSet
145 1214 m 0,0,1
 406 1214 406 1214 443 682 c 1,2,-1
 443 660 l 1,3,-1
 592 660 l 1,4,5
 636 651 636 651 678 554 c 1,6,7
 678 450 678 450 486 362 c 1,8,9
 413 -64 413 -64 209 -64 c 0,10,11
 60 -64 60 -64 60 85 c 1,12,13
 188 403 188 403 188 469 c 2,14,-1
 188 554 l 1,15,-1
 81 1107 l 1,16,17
 97 1214 97 1214 145 1214 c 0,0,1
EndSplineSet
Validated: 1
EndChar

StartChar: asciitilde
Encoding: 126 126 96
Width: 1098
GlyphClass: 2
Flags: W
LayerCount: 2
Fore
SplineSet
230 745 m 2,0,-1
 294 745 l 2,1,2
 315 745 315 745 677 596 c 1,3,4
 767 682 767 682 848 682 c 2,5,-1
 933 682 l 2,6,7
 966 682 966 682 1018 596 c 1,8,-1
 1018 575 l 2,9,10
 1018 373 1018 373 635 298 c 1,11,12
 478 298 478 298 337 447 c 1,13,14
 315 320 315 320 273 320 c 2,15,-1
 145 320 l 2,16,17
 112 320 112 320 60 405 c 1,18,-1
 60 554 l 2,19,20
 60 745 60 745 230 745 c 2,0,-1
EndSplineSet
Validated: 1
EndChar

StartChar: cent
Encoding: 162 162 97
Width: 1141
GlyphClass: 2
Flags: W
LayerCount: 2
Fore
SplineSet
528 1406 m 0,0,1
 691 1406 691 1406 741 1150 c 1,2,3
 1039 1075 1039 1075 1039 831 c 2,4,-1
 1039 809 l 2,5,6
 1039 781 1039 781 933 703 c 1,7,-1
 869 703 l 1,8,9
 703 894 703 894 592 894 c 0,10,11
 358 894 358 894 358 596 c 0,12,13
 358 320 358 320 635 320 c 2,14,-1
 677 320 l 2,15,16
 699 320 699 320 976 383 c 1,17,-1
 997 383 l 2,18,19
 1027 383 1027 383 1061 320 c 1,20,-1
 1061 277 l 2,21,22
 1061 109 1061 109 741 0 c 1,23,-1
 763 -106 l 1,24,25
 763 -239 763 -239 656 -298 c 1,26,-1
 550 -298 l 2,27,28
 476 -298 476 -298 422 -64 c 1,29,30
 443 -27 443 -27 443 21 c 1,31,32
 130 21 130 21 60 426 c 1,33,-1
 60 596 l 2,34,35
 60 1001 60 1001 401 1150 c 1,36,-1
 422 1150 l 1,37,-1
 401 1257 l 1,38,-1
 401 1278 l 2,39,40
 401 1406 401 1406 528 1406 c 0,0,1
EndSplineSet
Validated: 1
EndChar

StartChar: sterling
Encoding: 163 163 98
Width: 1205
GlyphClass: 2
Flags: W
LayerCount: 2
Fore
SplineSet
806 1022 m 1,0,1
 976 1007 976 1007 976 852 c 1,2,3
 916 788 916 788 678 767 c 1,4,-1
 635 682 l 1,5,6
 891 682 891 682 891 575 c 0,7,8
 891 490 891 490 572 426 c 1,9,10
 529 357 529 357 529 320 c 1,11,-1
 721 320 l 1,12,13
 1084 307 1084 307 1125 192 c 1,14,-1
 1125 85 l 2,15,16
 1125 21 1125 21 934 -21 c 1,17,-1
 870 -21 l 2,18,19
 210 -21 210 -21 210 149 c 2,20,-1
 210 213 l 1,21,-1
 231 469 l 1,22,23
 89 469 89 469 60 554 c 1,24,-1
 60 618 l 2,25,26
 60 677 60 677 273 703 c 1,27,-1
 337 703 l 1,28,29
 516 1022 516 1022 806 1022 c 1,0,1
EndSplineSet
Validated: 1
EndChar

StartChar: currency
Encoding: 164 164 99
Width: 842
GlyphClass: 2
Flags: W
LayerCount: 2
Fore
SplineSet
251 809 m 1,0,1
 292 809 292 809 507 703 c 1,2,3
 613 767 613 767 677 767 c 1,4,-1
 762 745 l 1,5,-1
 762 639 l 1,6,7
 677 544 677 544 677 532 c 1,8,9
 729 464 729 464 762 362 c 1,10,11
 762 282 762 282 635 192 c 1,12,-1
 592 192 l 2,13,14
 581 192 581 192 443 320 c 1,15,-1
 422 320 l 1,16,17
 258 184 258 184 187 149 c 1,18,19
 60 193 60 193 60 320 c 2,20,-1
 60 341 l 1,21,-1
 273 575 l 1,22,23
 241 575 241 575 166 703 c 1,24,25
 207 800 207 800 251 809 c 1,0,1
EndSplineSet
Validated: 1
EndChar

StartChar: section
Encoding: 167 167 100
Width: 907
GlyphClass: 2
Flags: W
LayerCount: 2
Fore
SplineSet
550 1129 m 0,0,1
 710 1129 710 1129 763 1022 c 1,2,-1
 763 937 l 1,3,-1
 721 873 l 1,4,-1
 465 894 l 1,5,-1
 359 894 l 1,6,7
 316 888 316 888 316 852 c 2,8,-1
 316 809 l 1,9,-1
 763 532 l 1,10,11
 827 426 827 426 827 362 c 0,12,13
 827 248 827 248 742 149 c 1,14,15
 806 40 806 40 806 -64 c 2,16,-1
 806 -128 l 2,17,18
 806 -362 806 -362 444 -362 c 1,19,20
 146 -341 146 -341 146 -255 c 2,21,-1
 146 -128 l 2,22,23
 146 -97 146 -97 210 -64 c 1,24,-1
 295 -64 l 1,25,-1
 359 -106 l 1,26,-1
 508 -106 l 1,27,-1
 550 -85 l 1,28,29
 550 26 550 26 124 170 c 1,30,-1
 60 277 l 1,31,32
 66 417 66 417 231 554 c 1,33,34
 82 554 82 554 82 788 c 2,35,-1
 82 852 l 2,36,37
 82 1129 82 1129 550 1129 c 0,0,1
316 383 m 1,38,-1
 316 341 l 1,39,40
 355 341 355 341 550 298 c 1,41,-1
 572 341 l 1,42,-1
 444 426 l 1,43,44
 374 383 374 383 316 383 c 1,38,-1
EndSplineSet
Validated: 1
EndChar

StartChar: dieresis
Encoding: 168 168 101
Width: 721
GlyphClass: 2
Flags: W
LayerCount: 2
Fore
SplineSet
74 1398 m 2,0,-1
 145 1470 l 2,1,2
 158 1482 158 1482 170 1482 c 0,3,4
 181 1482 181 1482 197 1468 c 2,5,-1
 266 1395 l 2,6,7
 276 1381 276 1381 276 1370 c 0,8,9
 276 1357 276 1357 264 1343 c 2,10,-1
 195 1268 l 2,11,12
 178 1251 178 1251 170 1251 c 0,13,14
 156 1251 156 1251 145 1263 c 2,15,-1
 69 1349 l 2,16,17
 60 1361 60 1361 60 1372 c 0,18,19
 60 1385 60 1385 74 1398 c 2,0,-1
439 1398 m 2,20,-1
 510 1470 l 2,21,22
 523 1482 523 1482 535 1482 c 0,23,24
 546 1482 546 1482 562 1469 c 2,25,-1
 631 1395 l 2,26,27
 641 1381 641 1381 641 1370 c 0,28,29
 641 1357 641 1357 629 1344 c 2,30,-1
 560 1268 l 2,31,32
 543 1251 543 1251 535 1251 c 0,33,34
 521 1251 521 1251 510 1263 c 2,35,-1
 434 1350 l 2,36,37
 425 1361 425 1361 425 1372 c 0,38,39
 425 1385 425 1385 439 1398 c 2,20,-1
EndSplineSet
Validated: 1
EndChar

StartChar: copyright
Encoding: 169 169 102
Width: 1663
GlyphClass: 2
Flags: W
LayerCount: 2
Fore
SplineSet
749 1299 m 0,0,1
 1332 1299 1332 1299 1537 575 c 1,2,-1
 1537 383 l 2,3,4
 1537 -48 1537 -48 792 -128 c 1,5,-1
 728 -128 l 2,6,7
 233 -128 233 -128 89 383 c 1,8,-1
 89 447 l 2,9,10
 89 1081 89 1081 515 1257 c 1,11,12
 598 1299 598 1299 749 1299 c 0,0,1
344 426 m 1,13,14
 484 128 484 128 855 128 c 2,15,-1
 877 128 l 2,16,17
 1324 128 1324 128 1324 596 c 1,18,19
 1159 1044 1159 1044 813 1044 c 2,20,-1
 728 1044 l 2,21,22
 344 1044 344 1044 344 426 c 1,13,14
749 937 m 0,23,24
 942 937 942 937 1111 703 c 1,25,-1
 1111 682 l 2,26,27
 1111 618 1111 618 1026 618 c 1,28,-1
 877 703 l 1,29,-1
 813 703 l 1,30,31
 728 668 728 668 728 554 c 2,32,-1
 728 532 l 1,33,-1
 1047 447 l 1,34,-1
 1047 405 l 2,35,36
 1047 256 1047 256 898 256 c 2,37,-1
 728 256 l 1,38,39
 472 307 472 307 472 511 c 1,40,41
 536 937 536 937 749 937 c 0,23,24
EndSplineSet
Validated: 1
EndChar

StartChar: registered
Encoding: 174 174 103
Width: 1609
GlyphClass: 2
Flags: W
LayerCount: 2
Fore
SplineSet
784 1257 m 2,0,1
 1290 1257 1290 1257 1508 703 c 1,2,3
 1508 687 1508 687 1529 575 c 1,4,5
 1529 148 1529 148 1124 -42 c 1,6,7
 915 -106 915 -106 741 -106 c 0,8,9
 263 -106 263 -106 60 447 c 1,10,11
 60 1053 60 1053 571 1257 c 1,12,-1
 784 1257 l 2,0,1
315 596 m 1,13,14
 380 149 380 149 698 149 c 2,15,-1
 911 149 l 2,16,17
 1201 149 1201 149 1273 596 c 1,18,-1
 1273 618 l 1,19,20
 1126 1044 1126 1044 784 1044 c 2,21,-1
 613 1044 l 2,22,23
 382 1044 382 1044 315 596 c 1,13,14
656 980 m 0,24,25
 1024 980 1024 980 1082 724 c 1,26,27
 1082 594 1082 594 954 469 c 1,28,29
 980 469 980 469 1103 405 c 1,30,-1
 1103 320 l 2,31,32
 1103 271 1103 271 997 256 c 1,33,34
 917 256 917 256 677 362 c 1,35,-1
 677 341 l 2,36,37
 677 234 677 234 613 234 c 2,38,-1
 549 234 l 2,39,40
 458 234 458 234 422 852 c 1,41,42
 422 980 422 980 656 980 c 0,24,25
677 745 m 1,43,-1
 677 639 l 1,44,-1
 847 639 l 1,45,-1
 847 682 l 2,46,47
 847 712 847 712 784 745 c 1,48,-1
 677 745 l 1,43,-1
EndSplineSet
Validated: 1
EndChar

StartChar: degree
Encoding: 176 176 104
Width: 800
GlyphClass: 2
Flags: W
LayerCount: 2
Fore
SplineSet
400 1107 m 0,0,1
 685 1107 685 1107 720 703 c 1,2,-1
 720 682 l 2,3,4
 720 480 720 480 379 426 c 1,5,6
 60 458 60 458 60 745 c 0,7,8
 60 1107 60 1107 400 1107 c 0,0,1
294 873 m 1,9,-1
 294 809 l 1,10,-1
 315 703 l 1,11,-1
 464 703 l 1,12,-1
 464 809 l 1,13,14
 451 873 451 873 294 873 c 1,9,-1
EndSplineSet
Validated: 1
EndChar

StartChar: plusminus
Encoding: 177 177 105
Width: 1055
GlyphClass: 2
Flags: W
LayerCount: 2
Fore
SplineSet
528 1065 m 1,0,1
 592 986 592 986 592 767 c 2,2,-1
 592 745 l 1,3,4
 890 724 890 724 890 639 c 1,5,6
 840 490 840 490 613 490 c 1,7,8
 635 426 635 426 656 426 c 0,9,10
 975 398 975 398 975 320 c 2,11,-1
 975 298 l 2,12,13
 975 180 975 180 400 149 c 1,14,-1
 145 149 l 2,15,16
 103 149 103 149 60 277 c 1,17,18
 117 426 117 426 315 426 c 1,19,-1
 315 469 l 1,20,-1
 209 469 l 2,21,22
 87 469 87 469 60 618 c 1,23,24
 60 691 60 691 273 767 c 1,25,26
 361 1065 361 1065 528 1065 c 1,0,1
EndSplineSet
Validated: 1
EndChar

StartChar: acute
Encoding: 180 180 106
Width: 601
GlyphClass: 2
Flags: W
LayerCount: 2
Fore
SplineSet
351 1485 m 2,0,1
 386 1520 386 1520 406.5 1532 c 128,-1,2
 427 1544 427 1544 447 1544 c 0,3,4
 480 1544 480 1544 500.5 1524 c 128,-1,5
 521 1504 521 1504 521 1473 c 0,6,7
 521 1451 521 1451 505.5 1431 c 128,-1,8
 490 1411 490 1411 459 1391 c 2,9,-1
 129 1188 l 1,10,-1
 60 1188 l 1,11,-1
 351 1485 l 2,0,1
EndSplineSet
Validated: 1
EndChar

StartChar: paragraph
Encoding: 182 182 107
Width: 1056
GlyphClass: 2
Flags: W
LayerCount: 2
Fore
SplineSet
486 1129 m 2,0,-1
 571 1129 l 1,1,2
 656 1085 656 1085 656 1022 c 0,3,4
 656 776 656 776 677 447 c 1,5,6
 627 64 627 64 550 64 c 0,7,8
 422 64 422 64 422 532 c 1,9,-1
 294 532 l 2,10,11
 124 532 124 532 60 809 c 1,12,13
 185 1129 185 1129 486 1129 c 2,0,-1
869 1107 m 1,14,-1
 912 1107 l 1,15,16
 976 1094 976 1094 976 937 c 2,17,-1
 976 916 l 2,18,19
 976 64 976 64 848 64 c 2,20,-1
 827 64 l 1,21,22
 699 120 699 120 699 426 c 0,23,24
 699 505 699 505 720 958 c 1,25,-1
 869 1107 l 1,14,-1
EndSplineSet
Validated: 1
EndChar

StartChar: periodcentered
Encoding: 183 183 108
AltUni2: 002219.ffffffff.0 002022.ffffffff.0 002219.ffffffff.0 002022.ffffffff.0
Width: 673
GlyphClass: 2
Flags: W
LayerCount: 2
Fore
SplineSet
337 703 m 1,0,-1
 465 703 l 1,1,2
 593 621 593 621 593 469 c 1,3,4
 534 170 534 170 358 170 c 2,5,-1
 252 170 l 2,6,7
 124 170 124 170 60 298 c 1,8,-1
 60 447 l 2,9,10
 60 669 60 669 337 703 c 1,0,-1
EndSplineSet
Validated: 1
EndChar

StartChar: cedilla
Encoding: 184 184 109
Width: 548
GlyphClass: 2
Flags: W
LayerCount: 2
Fore
SplineSet
60 -290 m 1,0,1
 145 -342 145 -342 212 -342 c 0,2,3
 278 -342 278 -342 306.5 -320.5 c 128,-1,4
 335 -299 335 -299 335 -254 c 256,5,6
 335 -209 335 -209 286 -190 c 0,7,8
 246 -174 246 -174 184 -174 c 0,9,10
 168 -174 168 -174 150 -176 c 1,11,-1
 198 0 l 1,12,-1
 261 0 l 1,13,-1
 224 -104 l 1,14,15
 256 -100 256 -100 286 -99 c 0,16,17
 372 -99 372 -99 420 -139.5 c 128,-1,18
 468 -180 468 -180 468 -253 c 0,19,20
 468 -329 468 -329 409.5 -373.5 c 128,-1,21
 351 -418 351 -418 249 -418 c 0,22,23
 140 -418 140 -418 60 -386 c 1,24,-1
 60 -290 l 1,0,1
EndSplineSet
Validated: 1
EndChar

StartChar: circumflex
Encoding: 710 710 110
Width: 722
GlyphClass: 2
Flags: W
LayerCount: 2
Fore
SplineSet
60 1189 m 1,0,-1
 292 1544 l 1,1,-1
 410 1544 l 1,2,-1
 642 1189 l 1,3,-1
 584 1189 l 1,4,-1
 351 1405 l 1,5,-1
 118 1189 l 1,6,-1
 60 1189 l 1,0,-1
EndSplineSet
Validated: 1
EndChar

StartChar: caron
Encoding: 711 711 111
Width: 722
GlyphClass: 2
Flags: W
LayerCount: 2
Fore
SplineSet
60 1544 m 1,0,-1
 118 1544 l 1,1,-1
 351 1330 l 1,2,-1
 584 1544 l 1,3,-1
 642 1544 l 1,4,-1
 410 1188 l 1,5,-1
 292 1188 l 1,6,-1
 60 1544 l 1,0,-1
EndSplineSet
Validated: 1
EndChar

StartChar: breve
Encoding: 728 728 112
Width: 724
GlyphClass: 2
Flags: W
LayerCount: 2
Fore
SplineSet
60 1501 m 1,0,-1
 111 1501 l 1,1,2
 128 1428 128 1428 186 1394 c 128,-1,3
 244 1360 244 1360 353 1360 c 256,4,5
 462 1360 462 1360 519 1393.5 c 128,-1,6
 576 1427 576 1427 593 1501 c 1,7,-1
 644 1501 l 1,8,9
 624 1368 624 1368 550 1299.5 c 128,-1,10
 476 1231 476 1231 353 1231 c 0,11,12
 231 1231 231 1231 156 1300 c 128,-1,13
 81 1369 81 1369 60 1501 c 1,0,-1
EndSplineSet
Validated: 1
EndChar

StartChar: dotaccent
Encoding: 729 729 113
Width: 355
GlyphClass: 2
Flags: W
LayerCount: 2
Fore
SplineSet
74 1398 m 2,0,-1
 143 1470 l 2,1,2
 149 1476 149 1476 156 1479 c 128,-1,3
 163 1482 163 1482 170 1482 c 0,4,5
 176 1482 176 1482 182.5 1479 c 128,-1,6
 189 1476 189 1476 195 1470 c 2,7,-1
 266 1394 l 2,8,9
 271 1390 271 1390 273 1384 c 128,-1,10
 275 1378 275 1378 275 1370 c 0,11,12
 274 1361 274 1361 272 1355 c 128,-1,13
 270 1349 270 1349 264 1343 c 2,14,-1
 193 1267 l 2,15,16
 181 1256 181 1256 177 1253.5 c 128,-1,17
 173 1251 173 1251 170 1251 c 0,18,19
 160 1251 160 1251 153.5 1253.5 c 128,-1,20
 147 1256 147 1256 143 1262 c 2,21,-1
 68 1349 l 2,22,23
 64 1353 64 1353 62 1358.5 c 128,-1,24
 60 1364 60 1364 60 1372 c 0,25,26
 60 1378 60 1378 63 1384.5 c 128,-1,27
 66 1391 66 1391 74 1398 c 2,0,-1
EndSplineSet
Validated: 1
EndChar

StartChar: ring
Encoding: 730 730 114
Width: 495
GlyphClass: 2
Flags: W
LayerCount: 2
Fore
SplineSet
136 1367 m 0,0,1
 136 1325 136 1325 165 1296 c 128,-1,2
 194 1267 194 1267 236 1267 c 256,3,4
 278 1267 278 1267 307 1296 c 128,-1,5
 336 1325 336 1325 336 1367 c 0,6,7
 336 1407 336 1407 306.5 1436.5 c 128,-1,8
 277 1466 277 1466 236 1466 c 256,9,10
 195 1466 195 1466 165.5 1436.5 c 128,-1,11
 136 1407 136 1407 136 1367 c 0,0,1
60 1367 m 256,12,13
 60 1442 60 1442 111 1493 c 128,-1,14
 162 1544 162 1544 236 1544 c 0,15,16
 312 1544 312 1544 363.5 1492.5 c 128,-1,17
 415 1441 415 1441 415 1367 c 0,18,19
 415 1292 415 1292 363.5 1240.5 c 128,-1,20
 312 1189 312 1189 236 1189 c 0,21,22
 162 1189 162 1189 111 1240.5 c 128,-1,23
 60 1292 60 1292 60 1367 c 256,12,13
EndSplineSet
Validated: 1
EndChar

StartChar: ogonek
Encoding: 731 731 115
Width: 508
GlyphClass: 2
Flags: W
LayerCount: 2
Fore
SplineSet
331 0 m 1,0,1
 260 -62 260 -62 220.5 -119.5 c 128,-1,2
 181 -177 181 -177 181 -232 c 0,3,4
 181 -279 181 -279 208 -307 c 128,-1,5
 235 -335 235 -335 281 -335 c 0,6,7
 321 -335 321 -335 350.5 -319.5 c 128,-1,8
 380 -304 380 -304 400 -271 c 1,9,-1
 428 -287 l 1,10,11
 392 -350 392 -350 337.5 -384 c 128,-1,12
 283 -418 283 -418 218 -418 c 0,13,14
 148 -418 148 -418 104 -382.5 c 128,-1,15
 60 -347 60 -347 60 -292 c 0,16,17
 60 -216 60 -216 120.5 -135.5 c 128,-1,18
 181 -55 181 -55 282 0 c 1,19,-1
 331 0 l 1,0,1
EndSplineSet
Validated: 1
EndChar

StartChar: tilde
Encoding: 732 732 116
Width: 714
GlyphClass: 2
Flags: W
LayerCount: 2
Fore
SplineSet
634 1491 m 1,0,1
 614 1388 614 1388 565.5 1337 c 128,-1,2
 517 1286 517 1286 439 1286 c 2,3,-1
 435 1286 l 2,4,5
 385 1286 385 1286 322 1309 c 0,6,7
 256 1333 256 1333 208 1333 c 0,8,9
 169 1333 169 1333 147.5 1312.5 c 128,-1,10
 126 1292 126 1292 114 1241 c 1,11,-1
 60 1241 l 1,12,13
 79 1347 79 1347 128 1399.5 c 128,-1,14
 177 1452 177 1452 257 1452 c 0,15,16
 303 1451 303 1451 370 1428 c 0,17,18
 434 1405 434 1405 482 1405 c 2,19,-1
 486 1405 l 2,20,21
 522 1405 522 1405 544 1425 c 128,-1,22
 566 1445 566 1445 580 1491 c 1,23,-1
 634 1491 l 1,0,1
EndSplineSet
Validated: 1
EndChar

StartChar: hungarumlaut
Encoding: 733 733 117
Width: 729
GlyphClass: 2
Flags: W
LayerCount: 2
Fore
SplineSet
60 1189 m 1,0,-1
 204 1462 l 2,1,2
 228 1506 228 1506 249.5 1525 c 128,-1,3
 271 1544 271 1544 296 1544 c 0,4,5
 324 1544 324 1544 344 1524 c 128,-1,6
 364 1504 364 1504 364 1477 c 0,7,8
 364 1461 364 1461 353.5 1442 c 128,-1,9
 343 1423 343 1423 323 1401 c 2,10,-1
 118 1189 l 1,11,-1
 60 1189 l 1,0,-1
345 1189 m 1,12,-1
 489 1462 l 2,13,14
 513 1506 513 1506 534.5 1525 c 128,-1,15
 556 1544 556 1544 581 1544 c 0,16,17
 609 1544 609 1544 629 1524 c 128,-1,18
 649 1504 649 1504 649 1477 c 0,19,20
 649 1461 649 1461 638.5 1442 c 128,-1,21
 628 1423 628 1423 608 1401 c 2,22,-1
 403 1189 l 1,23,-1
 345 1189 l 1,12,-1
EndSplineSet
Validated: 1
EndChar

StartChar: quoteleft
Encoding: 8216 8216 118
Width: 544
GlyphClass: 2
Flags: W
LayerCount: 2
Fore
SplineSet
124 1372 m 1,0,1
 60 1450 60 1450 60 1521 c 0,2,3
 60 1694 60 1694 337 1798 c 1,4,-1
 422 1798 l 2,5,6
 464 1798 464 1798 464 1755 c 1,7,8
 395 1372 395 1372 124 1372 c 1,0,1
EndSplineSet
Validated: 1
EndChar

StartChar: quoteright
Encoding: 8217 8217 119
Width: 544
GlyphClass: 2
Flags: W
LayerCount: 2
Fore
SplineSet
400 1798 m 1,0,1
 464 1720 464 1720 464 1649 c 0,2,3
 464 1476 464 1476 187 1372 c 1,4,-1
 102 1372 l 2,5,6
 60 1372 60 1372 60 1415 c 1,7,8
 129 1798 129 1798 400 1798 c 1,0,1
EndSplineSet
Validated: 1
EndChar

StartChar: quotedblleft
Encoding: 8220 8220 120
Width: 1110
GlyphClass: 2
Flags: W
LayerCount: 2
Fore
SplineSet
124 1372 m 1,0,1
 60 1450 60 1450 60 1521 c 0,2,3
 60 1694 60 1694 337 1798 c 1,4,-1
 422 1798 l 2,5,6
 464 1798 464 1798 464 1755 c 1,7,8
 395 1372 395 1372 124 1372 c 1,0,1
690 1372 m 1,9,10
 626 1450 626 1450 626 1521 c 0,11,12
 626 1694 626 1694 903 1798 c 1,13,-1
 988 1798 l 2,14,15
 1030 1798 1030 1798 1030 1755 c 1,16,17
 961 1372 961 1372 690 1372 c 1,9,10
EndSplineSet
Validated: 1
EndChar

StartChar: quotedblright
Encoding: 8221 8221 121
Width: 1110
GlyphClass: 2
Flags: W
LayerCount: 2
Fore
SplineSet
400 1798 m 1,0,1
 464 1720 464 1720 464 1649 c 0,2,3
 464 1476 464 1476 187 1372 c 1,4,-1
 102 1372 l 2,5,6
 60 1372 60 1372 60 1415 c 1,7,8
 129 1798 129 1798 400 1798 c 1,0,1
966 1798 m 1,9,10
 1030 1720 1030 1720 1030 1649 c 0,11,12
 1030 1476 1030 1476 753 1372 c 1,13,-1
 668 1372 l 2,14,15
 626 1372 626 1372 626 1415 c 1,16,17
 695 1798 695 1798 966 1798 c 1,9,10
EndSplineSet
Validated: 1
EndChar

StartChar: dagger
Encoding: 8224 8224 122
Width: 1056
GlyphClass: 2
Flags: W
LayerCount: 2
Fore
SplineSet
550 1406 m 1,0,-1
 613 1406 l 1,1,2
 673 1203 673 1203 720 937 c 1,3,4
 976 869 976 869 976 809 c 2,5,-1
 976 703 l 2,6,7
 976 674 976 674 869 596 c 1,8,-1
 699 596 l 1,9,-1
 720 341 l 1,10,-1
 720 128 l 1,11,12
 685 43 685 43 571 43 c 1,13,14
 422 131 422 131 422 596 c 1,15,16
 60 596 60 596 60 809 c 0,17,18
 60 921 60 921 273 937 c 1,19,-1
 401 937 l 1,20,21
 444 1243 444 1243 550 1406 c 1,0,-1
EndSplineSet
Validated: 1
EndChar

StartChar: daggerdbl
Encoding: 8225 8225 123
Width: 1013
GlyphClass: 2
Flags: W
LayerCount: 2
Fore
SplineSet
422 1363 m 2,0,-1
 443 1363 l 2,1,2
 514 1363 514 1363 592 1065 c 1,3,-1
 784 1065 l 1,4,-1
 933 1022 l 1,5,-1
 933 980 l 2,6,7
 933 916 933 916 635 831 c 1,8,-1
 635 682 l 1,9,-1
 784 682 l 2,10,11
 814 682 814 682 848 618 c 1,12,-1
 848 532 l 1,13,14
 823 447 823 447 656 447 c 1,15,-1
 656 256 l 2,16,17
 656 91 656 91 549 43 c 1,18,-1
 507 43 l 2,19,20
 409 43 409 43 358 426 c 1,21,-1
 145 426 l 2,22,23
 112 426 112 426 60 511 c 1,24,-1
 60 554 l 2,25,26
 60 682 60 682 187 682 c 1,27,-1
 336 660 l 1,28,-1
 336 767 l 1,29,-1
 230 767 l 2,30,31
 81 767 81 767 81 916 c 2,32,-1
 81 937 l 2,33,34
 81 995 81 995 315 1065 c 1,35,36
 336 1363 336 1363 422 1363 c 2,0,-1
EndSplineSet
Validated: 1
EndChar

StartChar: ellipsis
Encoding: 8230 8230 124
Width: 1360
GlyphClass: 2
Flags: W
LayerCount: 2
Fore
SplineSet
301 336 m 0,0,1
 384 288 384 288 384 218 c 0,2,3
 384 179 384 179 357 132 c 0,4,5
 313 56 313 56 222 56 c 0,6,7
 172 56 172 56 106 80 c 1,8,-1
 87 91 l 2,9,10
 60 107 60 107 60 159 c 0,11,12
 60 214 60 214 90 310 c 1,13,-1
 101 329 l 1,14,15
 154 363 154 363 207 363 c 0,16,17
 254 363 254 363 301 336 c 0,0,1
749 336 m 0,18,19
 832 288 832 288 832 218 c 0,20,21
 832 179 832 179 805 132 c 0,22,23
 761 56 761 56 670 56 c 0,24,25
 620 56 620 56 554 80 c 1,26,-1
 535 91 l 2,27,28
 508 107 508 107 508 159 c 0,29,30
 508 214 508 214 538 310 c 1,31,-1
 549 329 l 1,32,33
 602 363 602 363 655 363 c 0,34,35
 702 363 702 363 749 336 c 0,18,19
1197 336 m 0,36,37
 1280 288 1280 288 1280 218 c 0,38,39
 1280 179 1280 179 1253 132 c 0,40,41
 1209 56 1209 56 1118 56 c 0,42,43
 1068 56 1068 56 1002 80 c 1,44,-1
 983 91 l 2,45,46
 956 107 956 107 956 159 c 0,47,48
 956 214 956 214 986 310 c 1,49,-1
 997 329 l 1,50,51
 1050 363 1050 363 1103 363 c 0,52,53
 1150 363 1150 363 1197 336 c 0,36,37
EndSplineSet
Validated: 1
EndChar

StartChar: Euro
Encoding: 8364 8364 125
Width: 1257
GlyphClass: 2
Flags: W
LayerCount: 2
Fore
SplineSet
741 1129 m 1,0,1
 1188 1052 1188 1052 1188 831 c 2,2,-1
 1188 809 l 2,3,4
 1188 776 1188 776 1103 724 c 1,5,-1
 1018 724 l 1,6,7
 848 852 848 852 762 852 c 2,8,-1
 656 852 l 1,9,10
 613 845 613 845 613 809 c 2,11,-1
 613 767 l 1,12,13
 749 767 749 767 762 682 c 1,14,15
 721 584 721 584 677 575 c 1,16,-1
 549 575 l 1,17,-1
 549 511 l 1,18,19
 677 511 677 511 677 447 c 1,20,-1
 592 341 l 1,21,-1
 592 320 l 1,22,23
 730 277 730 277 783 277 c 2,24,-1
 826 277 l 2,25,26
 907 277 907 277 1018 383 c 1,27,-1
 1124 383 l 1,28,29
 1188 362 1188 362 1188 256 c 2,30,-1
 1188 213 l 1,31,32
 1018 -21 1018 -21 890 -21 c 2,33,-1
 698 -21 l 2,34,35
 358 -21 358 -21 230 362 c 1,36,37
 81 362 81 362 81 447 c 1,38,39
 110 532 110 532 251 532 c 1,40,-1
 251 575 l 1,41,42
 17 575 17 575 17 724 c 1,43,44
 98 788 98 788 208 788 c 2,45,-1
 272 788 l 1,46,47
 390 1129 390 1129 656 1129 c 2,48,-1
 741 1129 l 1,0,1
EndSplineSet
Validated: 1
EndChar

StartChar: trademark
Encoding: 8482 8482 126
Width: 1269
GlyphClass: 2
Flags: W
LayerCount: 2
Fore
SplineSet
230 831 m 0,0,1
 827 831 827 831 827 703 c 1,2,-1
 848 703 l 1,3,4
 1000 831 1000 831 1082 831 c 2,5,-1
 1103 831 l 2,6,7
 1189 831 1189 831 1189 511 c 2,8,-1
 1189 362 l 1,9,-1
 1167 256 l 1,10,-1
 1061 256 l 1,11,12
 997 497 997 497 997 532 c 1,13,14
 923 426 923 426 805 426 c 1,15,-1
 805 341 l 2,16,17
 805 226 805 226 720 192 c 1,18,-1
 677 192 l 1,19,20
 571 240 571 240 571 405 c 2,21,-1
 571 618 l 1,22,-1
 507 618 l 1,23,-1
 528 511 l 1,24,-1
 528 405 l 2,25,26
 528 242 528 242 443 213 c 1,27,28
 294 213 294 213 294 426 c 2,29,-1
 294 447 l 1,30,-1
 315 596 l 1,31,-1
 209 596 l 2,32,33
 60 596 60 596 60 724 c 1,34,35
 84 831 84 831 230 831 c 0,0,1
EndSplineSet
Validated: 1
EndChar

StartChar: uni21B7
Encoding: 8631 8631 127
Width: 1550
GlyphClass: 2
Flags: W
LayerCount: 2
Fore
SplineSet
1029 -280 m 0,0,1
 977 -262 977 -262 945 -233 c 0,2,3
 912 -204 912 -204 867 -135 c 0,4,5
 811 -51 811 -51 731 20 c 0,6,7
 662 83 662 83 635 128 c 0,8,9
 609 172 609 172 609 227 c 0,10,11
 610 387 610 387 853 428 c 0,12,13
 883 433 883 433 894 444 c 256,14,15
 905 455 905 455 906 487 c 0,16,17
 908 512 908 512 897 576 c 0,18,19
 879 676 879 676 855 725 c 0,20,21
 828 779 828 779 783 806 c 0,22,23
 697 855 697 855 591 803 c 0,24,25
 536 774 536 774 459 693 c 0,26,27
 384 612 384 612 350 544 c 0,28,29
 312 469 312 469 320 425 c 0,30,31
 328 380 328 380 395 291 c 0,32,33
 442 229 442 229 453 206 c 128,-1,34
 464 183 464 183 464 151 c 0,35,36
 464 109 464 109 439 70 c 256,37,38
 414 31 414 31 374 11 c 0,39,40
 338 -7 338 -7 278 -5 c 0,41,42
 219 -2 219 -2 179 18 c 0,43,44
 95 61 95 61 26 144 c 0,45,46
 -42 226 -42 226 -75 326 c 0,47,48
 -152 555 -152 555 -58 786 c 0,49,50
 35 1017 35 1017 266 1172 c 0,51,52
 657 1435 657 1435 1002 1238 c 0,53,54
 1161 1147 1161 1147 1263 966 c 0,55,56
 1366 786 1366 786 1380 573 c 0,57,58
 1382 540 1382 540 1384 525 c 0,59,60
 1385 510 1385 510 1390 493 c 0,61,62
 1394 476 1394 476 1399 469 c 0,63,64
 1404 464 1404 464 1417 455 c 0,65,66
 1430 445 1430 445 1443 442 c 0,67,68
 1456 437 1456 437 1483 429 c 0,69,70
 1605 392 1605 392 1653 307.5 c 128,-1,71
 1701 223 1701 223 1656 124 c 0,72,73
 1642 94 1642 94 1579 34 c 256,74,75
 1516 -26 1516 -26 1498 -26 c 0,76,77
 1488 -26 1488 -26 1368 -144 c 0,78,79
 1251 -258 1251 -258 1185 -285 c 128,-1,80
 1119 -312 1119 -312 1029 -280 c 0,0,1
EndSplineSet
Validated: 33
EndChar

StartChar: uni2776
Encoding: 10102 10102 128
Width: 2681
GlyphClass: 2
Flags: W
LayerCount: 2
Fore
SplineSet
1325 1524 m 0,0,1
 1367 1524 1367 1524 1400 1520 c 0,2,3
 1530 1511 1530 1511 1678 1467 c 0,4,5
 1837 1420 1837 1420 1944 1361 c 0,6,7
 2017 1321 2017 1321 2099 1257 c 0,8,9
 2183 1191 2183 1191 2196 1167 c 0,10,11
 2214 1135 2214 1135 2231 1118 c 0,12,13
 2252 1097 2252 1097 2272 1041 c 256,14,15
 2292 985 2292 985 2321 864 c 0,16,17
 2340 785 2340 785 2349 707 c 0,18,19
 2356 630 2356 630 2357 505 c 0,20,21
 2358 329 2358 329 2340 227 c 0,22,23
 2323 128 2323 128 2269 15 c 0,24,25
 2208 -114 2208 -114 2045 -257 c 0,26,27
 1885 -398 1885 -398 1741 -448 c 0,28,29
 1668 -473 1668 -473 1557 -477 c 0,30,31
 1448 -480 1448 -480 1338 -462 c 0,32,33
 1240 -446 1240 -446 1086 -395 c 0,34,35
 932 -343 932 -343 840 -297 c 0,36,37
 663 -209 663 -209 543.5 -68 c 128,-1,38
 424 73 424 73 373 248 c 0,39,40
 348 336 348 336 340 363 c 0,41,42
 320 424 320 424 326 556 c 0,43,44
 333 688 333 688 357 783 c 0,45,46
 432 1081 432 1081 598 1238 c 0,47,48
 639 1277 639 1277 688 1314 c 0,49,50
 739 1351 739 1351 771 1366 c 0,51,52
 980 1462 980 1462 1099 1496 c 0,53,54
 1199 1525 1199 1525 1325 1524 c 0,0,1
1357 1165 m 2,55,56
 1194 1165 1194 1165 1005 944 c 1,57,-1
 1005 812 l 1,58,59
 1058 724 1058 724 1093 724 c 2,60,-1
 1115 724 l 1,61,-1
 1225 746 l 1,62,63
 1208 717 1208 717 1181 437 c 1,64,65
 1203 315 1203 315 1203 260 c 1,66,67
 1006 228 1006 228 1005 106 c 0,68,69
 1003 -70 1003 -70 1335 -70 c 2,70,-1
 1468 -70 l 2,71,72
 1638 -70 1638 -70 1688 40 c 1,73,-1
 1688 106 l 1,74,75
 1653 172 1653 172 1621 172 c 0,76,77
 1526 173 1526 173 1490 944 c 1,78,79
 1534 944 1534 944 1534 988 c 2,80,-1
 1534 1076 l 1,81,82
 1479 1165 1479 1165 1446 1165 c 2,83,-1
 1357 1165 l 2,55,56
EndSplineSet
Validated: 33
EndChar

StartChar: uni2777
Encoding: 10103 10103 129
Width: 2681
GlyphClass: 2
Flags: W
LayerCount: 2
Fore
SplineSet
1325 1524 m 0,0,1
 1367 1524 1367 1524 1400 1520 c 0,2,3
 1530 1511 1530 1511 1678 1467 c 0,4,5
 1837 1420 1837 1420 1944 1361 c 0,6,7
 2017 1321 2017 1321 2099 1257 c 0,8,9
 2183 1191 2183 1191 2196 1167 c 0,10,11
 2214 1135 2214 1135 2231 1118 c 0,12,13
 2252 1097 2252 1097 2272 1041 c 256,14,15
 2292 985 2292 985 2321 864 c 0,16,17
 2340 785 2340 785 2349 707 c 0,18,19
 2356 630 2356 630 2357 505 c 0,20,21
 2358 329 2358 329 2340 227 c 0,22,23
 2323 128 2323 128 2269 15 c 0,24,25
 2208 -114 2208 -114 2045 -257 c 0,26,27
 1885 -398 1885 -398 1741 -448 c 0,28,29
 1668 -473 1668 -473 1557 -477 c 0,30,31
 1448 -480 1448 -480 1338 -462 c 0,32,33
 1240 -446 1240 -446 1086 -395 c 0,34,35
 932 -343 932 -343 840 -297 c 0,36,37
 663 -209 663 -209 543.5 -68 c 128,-1,38
 424 73 424 73 373 248 c 0,39,40
 348 336 348 336 340 363 c 0,41,42
 320 424 320 424 326 556 c 0,43,44
 333 688 333 688 357 783 c 0,45,46
 432 1081 432 1081 598 1238 c 0,47,48
 639 1277 639 1277 688 1314 c 0,49,50
 739 1351 739 1351 771 1366 c 0,51,52
 980 1462 980 1462 1099 1496 c 0,53,54
 1199 1525 1199 1525 1325 1524 c 0,0,1
1364 1209 m 1,55,56
 944 1127 944 1127 944 900 c 2,57,-1
 944 879 l 2,58,59
 944 661 944 661 1077 658 c 0,60,61
 1150 657 1150 657 1232 725 c 1,62,-1
 1210 879 l 1,63,64
 1270 879 1270 879 1342 922 c 1,65,66
 1386 922 1386 922 1386 812 c 1,67,-1
 1342 725 l 1,68,69
 1014 342 1014 342 1011 172 c 0,70,71
 1010 107 1010 107 1033 18 c 1,72,73
 1033 -77 1033 -77 1739 -92 c 1,74,75
 1863 11 1863 11 1871 62 c 1,76,77
 1871 284 1871 284 1408 284 c 1,78,79
 1696 613 1696 613 1695 834 c 0,80,81
 1694 1209 1694 1209 1452 1209 c 2,82,-1
 1364 1209 l 1,55,56
EndSplineSet
Validated: 33
EndChar

StartChar: uni2778
Encoding: 10104 10104 130
Width: 2681
GlyphClass: 2
Flags: W
LayerCount: 2
Fore
SplineSet
1325 1524 m 0,0,1
 1367 1524 1367 1524 1400 1520 c 0,2,3
 1530 1511 1530 1511 1678 1467 c 0,4,5
 1837 1420 1837 1420 1944 1361 c 0,6,7
 2017 1321 2017 1321 2099 1257 c 0,8,9
 2183 1191 2183 1191 2196 1167 c 0,10,11
 2214 1135 2214 1135 2231 1118 c 0,12,13
 2252 1097 2252 1097 2272 1041 c 256,14,15
 2292 985 2292 985 2321 864 c 0,16,17
 2340 785 2340 785 2349 707 c 0,18,19
 2356 630 2356 630 2357 505 c 0,20,21
 2358 329 2358 329 2340 227 c 0,22,23
 2323 128 2323 128 2269 15 c 0,24,25
 2208 -114 2208 -114 2045 -257 c 0,26,27
 1885 -398 1885 -398 1741 -448 c 0,28,29
 1668 -473 1668 -473 1557 -477 c 0,30,31
 1448 -480 1448 -480 1338 -462 c 0,32,33
 1240 -446 1240 -446 1086 -395 c 0,34,35
 932 -343 932 -343 840 -297 c 0,36,37
 663 -209 663 -209 543.5 -68 c 128,-1,38
 424 73 424 73 373 248 c 0,39,40
 348 336 348 336 340 363 c 0,41,42
 320 424 320 424 326 556 c 0,43,44
 333 688 333 688 357 783 c 0,45,46
 432 1081 432 1081 598 1238 c 0,47,48
 639 1277 639 1277 688 1314 c 0,49,50
 739 1350 739 1350 771 1366 c 0,51,52
 973 1460 973 1460 1099 1496 c 0,53,54
 1199 1525 1199 1525 1325 1524 c 0,0,1
1368 1238 m 1,55,56
 905 1125 905 1125 905 929 c 0,57,58
 905 768 905 768 1016 731 c 1,59,60
 1038 731 1038 731 1083 753 c 1,61,62
 1083 929 1083 929 1303 929 c 2,63,-1
 1325 929 l 1,64,65
 1391 896 1391 896 1391 863 c 2,66,-1
 1391 819 l 1,67,68
 1237 719 1237 719 1237 643 c 1,69,-1
 1259 532 l 1,70,71
 1524 393 1524 393 1524 356 c 2,72,-1
 1524 290 l 1,73,74
 1474 180 1474 180 1303 180 c 2,75,-1
 1214 180 l 1,76,77
 1098 334 1098 334 993 334 c 2,78,-1
 928 334 l 1,79,80
 862 300 862 300 862 268 c 2,81,-1
 862 246 l 2,82,83
 862 -107 862 -107 1237 -107 c 2,84,-1
 1325 -107 l 2,85,86
 1832 -107 1832 -107 1832 334 c 0,87,88
 1832 519 1832 519 1744 621 c 1,89,90
 1642 1238 1642 1238 1500 1238 c 2,91,-1
 1368 1238 l 1,55,56
EndSplineSet
Validated: 33
EndChar

StartChar: uni2779
Encoding: 10105 10105 131
Width: 2681
GlyphClass: 2
Flags: W
LayerCount: 2
Fore
SplineSet
1325 1524 m 0,0,1
 1352 1524 1352 1524 1400 1520 c 0,2,3
 1530 1511 1530 1511 1678 1467 c 0,4,5
 1837 1420 1837 1420 1944 1361 c 0,6,7
 2017 1321 2017 1321 2099 1257 c 0,8,9
 2183 1191 2183 1191 2196 1167 c 0,10,11
 2214 1135 2214 1135 2231 1118 c 0,12,13
 2252 1097 2252 1097 2272 1041 c 256,14,15
 2292 985 2292 985 2321 864 c 0,16,17
 2340 785 2340 785 2349 707 c 0,18,19
 2356 630 2356 630 2357 505 c 0,20,21
 2358 329 2358 329 2340 227 c 0,22,23
 2323 128 2323 128 2269 15 c 0,24,25
 2208 -114 2208 -114 2045 -257 c 0,26,27
 1885 -398 1885 -398 1741 -448 c 0,28,29
 1668 -473 1668 -473 1557 -477 c 0,30,31
 1448 -480 1448 -480 1338 -462 c 0,32,33
 1240 -446 1240 -446 1086 -395 c 0,34,35
 932 -343 932 -343 840 -297 c 0,36,37
 663 -209 663 -209 543.5 -68 c 128,-1,38
 424 73 424 73 373 248 c 0,39,40
 348 336 348 336 340 363 c 0,41,42
 320 424 320 424 326 556 c 0,43,44
 333 688 333 688 357 783 c 0,45,46
 432 1081 432 1081 598 1238 c 0,47,48
 639 1277 639 1277 688 1314 c 0,49,50
 740 1351 740 1351 771 1366 c 0,51,52
 981 1462 981 1462 1099 1496 c 0,53,54
 1194 1524 1194 1524 1325 1524 c 0,0,1
963 1145 m 0,55,56
 869 1145 869 1145 852 682 c 1,57,-1
 852 417 l 1,58,59
 1046 351 1046 351 1293 351 c 2,60,-1
 1360 351 l 1,61,-1
 1338 197 l 1,62,63
 1338 -24 1338 -24 1514 -24 c 2,64,-1
 1535 -24 l 2,65,66
 1601 -24 1601 -24 1667 307 c 1,67,68
 1845 376 1845 376 1845 505 c 1,69,70
 1828 682 1828 682 1689 682 c 1,71,-1
 1689 991 l 2,72,73
 1689 1109 1689 1109 1601 1145 c 1,74,-1
 1535 1145 l 1,75,76
 1360 1055 1360 1055 1360 836 c 2,77,-1
 1360 682 l 1,78,-1
 1117 682 l 1,79,80
 1033 1145 1033 1145 963 1145 c 0,55,56
EndSplineSet
Validated: 33
EndChar

StartChar: uni277A
Encoding: 10106 10106 132
Width: 2681
GlyphClass: 2
Flags: W
LayerCount: 2
Fore
SplineSet
1325 1524 m 0,0,1
 1354 1525 1354 1525 1400 1520 c 0,2,3
 1530 1511 1530 1511 1678 1467 c 0,4,5
 1837 1420 1837 1420 1944 1361 c 0,6,7
 2017 1321 2017 1321 2099 1257 c 0,8,9
 2183 1191 2183 1191 2196 1167 c 0,10,11
 2214 1135 2214 1135 2231 1118 c 0,12,13
 2252 1097 2252 1097 2272 1041 c 256,14,15
 2292 985 2292 985 2321 864 c 0,16,17
 2340 785 2340 785 2349 707 c 0,18,19
 2356 630 2356 630 2357 505 c 0,20,21
 2358 329 2358 329 2340 227 c 0,22,23
 2323 128 2323 128 2269 15 c 0,24,25
 2208 -114 2208 -114 2045 -257 c 0,26,27
 1885 -398 1885 -398 1741 -448 c 0,28,29
 1668 -473 1668 -473 1557 -477 c 0,30,31
 1448 -480 1448 -480 1338 -462 c 0,32,33
 1240 -446 1240 -446 1086 -395 c 0,34,35
 932 -343 932 -343 840 -297 c 0,36,37
 663 -209 663 -209 543.5 -68 c 128,-1,38
 424 73 424 73 373 248 c 0,39,40
 348 336 348 336 340 363 c 0,41,42
 320 424 320 424 326 556 c 0,43,44
 333 688 333 688 357 783 c 0,45,46
 432 1081 432 1081 598 1238 c 0,47,48
 639 1277 639 1277 688 1314 c 0,49,50
 739 1351 739 1351 771 1366 c 0,51,52
 968 1456 968 1456 1099 1496 c 0,53,54
 1171 1518 1171 1518 1325 1524 c 0,0,1
1291 1155 m 1,55,56
 947 1155 947 1155 872 1001 c 1,57,-1
 872 911 l 2,58,59
 872 515 872 515 1137 515 c 2,60,-1
 1445 515 l 1,61,62
 1445 477 1445 477 1490 405 c 1,63,64
 1490 273 1490 273 1313 273 c 1,65,-1
 1071 361 l 1,66,-1
 1004 361 l 1,67,68
 959 352 959 352 916 251 c 1,69,70
 916 -36 916 -36 1335 -36 c 2,71,-1
 1490 -36 l 2,72,73
 1723 -36 1723 -36 1798 405 c 1,74,-1
 1798 448 l 2,75,76
 1798 789 1798 789 1423 823 c 1,77,-1
 1203 823 l 1,78,-1
 1203 890 l 1,79,80
 1755 890 1755 890 1755 978 c 2,81,-1
 1755 1045 l 2,82,83
 1755 1137 1755 1137 1291 1155 c 1,55,56
EndSplineSet
Validated: 33
EndChar

StartChar: uni277B
Encoding: 10107 10107 133
Width: 2681
GlyphClass: 2
Flags: W
LayerCount: 2
Fore
SplineSet
1325 1524 m 0,0,1
 1351 1524 1351 1524 1400 1520 c 0,2,3
 1530 1511 1530 1511 1678 1467 c 0,4,5
 1837 1420 1837 1420 1944 1361 c 0,6,7
 2017 1321 2017 1321 2099 1257 c 0,8,9
 2183 1191 2183 1191 2196 1167 c 0,10,11
 2214 1135 2214 1135 2231 1118 c 0,12,13
 2252 1097 2252 1097 2272 1041 c 256,14,15
 2292 985 2292 985 2321 864 c 0,16,17
 2340 785 2340 785 2349 707 c 0,18,19
 2356 630 2356 630 2357 505 c 0,20,21
 2358 329 2358 329 2340 227 c 0,22,23
 2323 128 2323 128 2269 15 c 0,24,25
 2208 -114 2208 -114 2045 -257 c 0,26,27
 1885 -398 1885 -398 1741 -448 c 0,28,29
 1668 -473 1668 -473 1557 -477 c 0,30,31
 1448 -480 1448 -480 1338 -462 c 0,32,33
 1240 -446 1240 -446 1086 -395 c 0,34,35
 932 -343 932 -343 840 -297 c 0,36,37
 663 -209 663 -209 543.5 -68 c 128,-1,38
 424 73 424 73 373 248 c 0,39,40
 348 336 348 336 340 363 c 0,41,42
 320 424 320 424 326 556 c 0,43,44
 333 688 333 688 357 783 c 0,45,46
 432 1081 432 1081 598 1238 c 0,47,48
 639 1277 639 1277 688 1314 c 0,49,50
 740 1351 740 1351 771 1366 c 0,51,52
 981 1462 981 1462 1099 1496 c 0,53,54
 1191 1524 1191 1524 1325 1524 c 0,0,1
1573 1300 m 1,55,56
 1003 1300 1003 1300 871 478 c 1,57,58
 934 -67 934 -67 1397 -67 c 2,59,-1
 1507 -67 l 2,60,61
 1838 -67 1838 -67 1838 241 c 2,62,-1
 1838 284 l 2,63,64
 1838 771 1838 771 1308 771 c 1,65,-1
 1308 792 l 2,66,67
 1308 816 1308 816 1661 1166 c 1,68,-1
 1661 1233 l 2,69,70
 1661 1266 1661 1266 1573 1300 c 1,55,56
1331 417 m 1,71,-1
 1462 417 l 1,72,73
 1529 383 1529 383 1529 351 c 2,74,-1
 1529 262 l 1,75,-1
 1352 262 l 1,76,77
 1307 272 1307 272 1264 373 c 1,78,-1
 1331 417 l 1,71,-1
EndSplineSet
Validated: 33
EndChar

StartChar: uni2780
Encoding: 10112 10112 134
Width: 2681
GlyphClass: 2
Flags: W
LayerCount: 2
Fore
SplineSet
1328 1559 m 0,0,1
 1528 1555 1528 1555 1676 1506 c 0,2,3
 1851 1448 1851 1448 1961 1386 c 0,4,5
 2078 1320 2078 1320 2169 1234 c 0,6,7
 2216 1189 2216 1189 2253 1146 c 0,8,9
 2291 1102 2291 1102 2298 1085 c 0,10,11
 2327 1012 2327 1012 2356 879 c 0,12,13
 2383 752 2383 752 2393 636 c 0,14,15
 2427 251 2427 251 2294 -12 c 0,16,17
 2164 -271 2164 -271 1847 -441 c 0,18,19
 1764 -486 1764 -486 1726 -493 c 0,20,21
 1687 -500 1687 -500 1544 -503 c 0,22,23
 1357 -506 1357 -506 1267 -486 c 0,24,25
 1170 -465 1170 -465 1029 -411 c 0,26,27
 893 -360 893 -360 799 -311 c 0,28,29
 629 -223 629 -223 511 -75 c 0,30,31
 392 75 392 75 332 272 c 0,32,33
 301 372 301 372 302 549 c 0,34,35
 303 716 303 716 339 835 c 0,36,37
 445 1180 445 1180 661 1333 c 0,38,39
 711 1370 711 1370 894 1450 c 0,40,41
 1065 1526 1065 1526 1145 1544 c 0,42,43
 1211 1561 1211 1561 1328 1559 c 0,0,1
1351 1489 m 0,44,45
 1209 1489 1209 1489 1161 1483 c 0,46,47
 1110 1476 1110 1476 1019 1439 c 0,48,49
 839 1365 839 1365 777 1332 c 0,50,51
 710 1297 710 1297 639 1230 c 0,52,53
 542 1140 542 1140 475 1008 c 0,54,55
 402 865 402 865 372 714 c 0,56,57
 359 648 359 648 357 525 c 0,58,59
 355 414 355 414 370 362 c 0,60,61
 379 332 379 332 403 249 c 0,62,63
 437 135 437 135 499 36 c 0,64,65
 564 -67 564 -67 651 -144 c 0,66,67
 754 -235 754 -235 961 -323 c 128,-1,68
 1168 -411 1168 -411 1351 -439 c 0,69,70
 1483 -459 1483 -459 1535 -459 c 0,71,72
 1590 -459 1590 -459 1677 -441 c 0,73,74
 1765 -424 1765 -424 1874 -356 c 0,75,76
 1988 -286 1988 -286 2080 -198 c 0,77,78
 2176 -104 2176 -104 2227 -19 c 0,79,80
 2291 89 2291 89 2313 194 c 0,81,82
 2334 290 2334 290 2335 487 c 0,83,84
 2336 654 2336 654 2324 749 c 0,85,86
 2312 842 2312 842 2275 955 c 0,87,88
 2231 1091 2231 1091 2147.5 1178 c 128,-1,89
 2064 1265 2064 1265 1897 1348 c 0,90,91
 1712 1439 1712 1439 1619 1464 c 0,92,93
 1521 1489 1521 1489 1351 1489 c 0,44,45
1363 1155 m 2,94,-1
 1451 1155 l 2,95,96
 1484 1155 1484 1155 1538 1068 c 1,97,-1
 1538 981 l 2,98,99
 1538 936 1538 936 1495 936 c 1,100,101
 1531 173 1531 173 1625 173 c 0,102,103
 1657 173 1657 173 1691 107 c 1,104,-1
 1691 42 l 1,105,106
 1642 -67 1642 -67 1472 -67 c 2,107,-1
 1343 -67 l 2,108,109
 1013 -67 1013 -67 1014 107 c 0,110,111
 1015 228 1015 228 1211 260 c 1,112,113
 1211 315 1211 315 1190 434 c 1,114,115
 1216 712 1216 712 1233 739 c 1,116,-1
 1124 718 l 1,117,-1
 1102 718 l 2,118,119
 1068 718 1068 718 1014 805 c 1,120,-1
 1014 936 l 1,121,122
 1202 1155 1202 1155 1363 1155 c 2,94,-1
EndSplineSet
Validated: 33
EndChar

StartChar: uni2781
Encoding: 10113 10113 135
Width: 2681
GlyphClass: 2
Flags: W
LayerCount: 2
Fore
SplineSet
1328 1559 m 0,0,1
 1531 1555 1531 1555 1676 1506 c 0,2,3
 1851 1447 1851 1447 1961 1386 c 0,4,5
 2078 1320 2078 1320 2169 1234 c 0,6,7
 2216 1189 2216 1189 2253 1146 c 0,8,9
 2291 1102 2291 1102 2298 1085 c 0,10,11
 2327 1012 2327 1012 2356 879 c 0,12,13
 2383 752 2383 752 2393 636 c 0,14,15
 2427 251 2427 251 2294 -12 c 0,16,17
 2164 -271 2164 -271 1847 -441 c 0,18,19
 1764 -486 1764 -486 1726 -493 c 0,20,21
 1687 -500 1687 -500 1544 -503 c 0,22,23
 1357 -506 1357 -506 1267 -486 c 0,24,25
 1170 -465 1170 -465 1029 -411 c 0,26,27
 893 -360 893 -360 799 -311 c 0,28,29
 629 -223 629 -223 511 -75 c 0,30,31
 392 75 392 75 332 272 c 0,32,33
 301 372 301 372 302 549 c 0,34,35
 303 716 303 716 339 835 c 0,36,37
 445 1179 445 1179 661 1333 c 0,38,39
 716 1373 716 1373 894 1450 c 0,40,41
 1069 1526 1069 1526 1145 1544 c 0,42,43
 1211 1561 1211 1561 1328 1559 c 0,0,1
1351 1489 m 0,44,45
 1209 1489 1209 1489 1161 1483 c 0,46,47
 1110 1476 1110 1476 1019 1439 c 0,48,49
 839 1365 839 1365 777 1332 c 0,50,51
 710 1297 710 1297 639 1230 c 0,52,53
 542 1140 542 1140 475 1008 c 0,54,55
 402 865 402 865 372 714 c 0,56,57
 359 648 359 648 357 525 c 0,58,59
 355 414 355 414 370 362 c 0,60,61
 379 332 379 332 403 249 c 0,62,63
 437 135 437 135 499 36 c 0,64,65
 564 -67 564 -67 651 -144 c 0,66,67
 754 -235 754 -235 961 -323 c 128,-1,68
 1168 -411 1168 -411 1351 -439 c 0,69,70
 1483 -459 1483 -459 1535 -459 c 0,71,72
 1590 -459 1590 -459 1677 -441 c 0,73,74
 1765 -423 1765 -423 1874 -356 c 0,75,76
 1988 -286 1988 -286 2080 -198 c 0,77,78
 2176 -104 2176 -104 2227 -19 c 0,79,80
 2291 89 2291 89 2313 194 c 0,81,82
 2334 290 2334 290 2335 487 c 0,83,84
 2336 655 2336 655 2324 749 c 0,85,86
 2312 842 2312 842 2275 955 c 0,87,88
 2231 1091 2231 1091 2147.5 1178 c 128,-1,89
 2064 1265 2064 1265 1897 1348 c 0,90,91
 1712 1439 1712 1439 1619 1464 c 0,92,93
 1521 1489 1521 1489 1351 1489 c 0,44,45
1379 1186 m 1,94,-1
 1466 1186 l 2,95,96
 1705 1186 1705 1186 1705 814 c 0,97,98
 1705 595 1705 595 1423 268 c 1,99,100
 1881 268 1881 268 1881 50 c 1,101,102
 1873 -1 1873 -1 1749 -102 c 1,103,104
 1051 -87 1051 -87 1051 6 c 1,105,106
 1029 91 1029 91 1029 159 c 0,107,108
 1028 323 1028 323 1357 706 c 1,109,-1
 1400 793 l 1,110,111
 1400 902 1400 902 1357 902 c 1,112,113
 1285 858 1285 858 1226 858 c 1,114,-1
 1247 706 l 1,115,116
 1167 640 1167 640 1094 640 c 0,117,118
 963 640 963 640 963 858 c 2,119,-1
 963 880 l 2,120,121
 963 1104 963 1104 1379 1186 c 1,94,-1
EndSplineSet
Validated: 33
EndChar

StartChar: uni2782
Encoding: 10114 10114 136
Width: 2681
GlyphClass: 2
Flags: W
LayerCount: 2
Fore
SplineSet
1293 1560 m 0,0,1
 1387 1560 1387 1560 1494 1545.5 c 128,-1,2
 1601 1531 1601 1531 1675 1506 c 0,3,4
 1848 1448 1848 1448 1960 1386 c 0,5,6
 2075 1323 2075 1323 2168 1234 c 0,7,8
 2220 1185 2220 1185 2253 1146 c 0,9,10
 2290 1101 2290 1101 2298 1085 c 0,11,12
 2326 1019 2326 1019 2355 879 c 0,13,14
 2382 751 2382 751 2393 636 c 0,15,16
 2428 252 2428 252 2294 -12 c 0,17,18
 2159 -277 2159 -277 1847 -441 c 0,19,20
 1763 -485 1763 -485 1726 -493 c 0,21,22
 1688 -501 1688 -501 1543 -503 c 0,23,24
 1354 -506 1354 -506 1266 -486 c 0,25,26
 1167 -464 1167 -464 1029 -411 c 0,27,28
 892 -360 892 -360 799 -311 c 0,29,30
 630 -224 630 -224 510.5 -74.5 c 128,-1,31
 391 75 391 75 331 272 c 0,32,33
 299 377 299 377 302 549 c 0,34,35
 304 718 304 718 339 835 c 0,36,37
 445 1182 445 1182 660 1333 c 0,38,39
 718 1374 718 1374 893 1450 c 0,40,41
 1070 1527 1070 1527 1144 1544 c 0,42,43
 1208 1560 1208 1560 1293 1560 c 0,0,1
1286 1489 m 0,44,45
 1190 1489 1190 1489 1147 1481 c 0,46,47
 1099 1471 1099 1471 1019 1439 c 0,48,49
 852 1373 852 1373 777 1332 c 0,50,51
 709 1295 709 1295 638 1230 c 0,52,53
 545 1143 545 1143 474 1008 c 0,54,55
 402 869 402 869 372 714 c 0,56,57
 359 647 359 647 357 525 c 0,58,59
 354 414 354 414 370 362 c 0,60,61
 379 332 379 332 403 249 c 0,62,63
 437 135 437 135 498 36 c 0,64,65
 563 -67 563 -67 650 -144 c 0,66,67
 754 -235 754 -235 960.5 -323 c 128,-1,68
 1167 -411 1167 -411 1351 -439 c 0,69,70
 1483 -459 1483 -459 1535 -459 c 0,71,72
 1590 -459 1590 -459 1677 -441 c 0,73,74
 1765 -424 1765 -424 1873 -356 c 0,75,76
 1988 -286 1988 -286 2079 -198 c 0,77,78
 2176 -105 2176 -105 2227 -19 c 0,79,80
 2290 89 2290 89 2312 194 c 0,81,82
 2333 290 2333 290 2334 487 c 0,83,84
 2335 654 2335 654 2323 749 c 0,85,86
 2311 841 2311 841 2275 955 c 0,87,88
 2231 1091 2231 1091 2147 1178 c 0,89,90
 2065 1264 2065 1264 1897 1347 c 0,91,92
 1712 1440 1712 1440 1618 1463 c 0,93,94
 1523 1487 1523 1487 1351 1489 c 0,95,96
 1323 1489 1323 1489 1286 1489 c 0,44,45
1364 1223 m 1,97,-1
 1495 1223 l 2,98,99
 1635 1223 1635 1223 1736 613 c 1,100,101
 1822 511 1822 511 1823 328 c 0,102,103
 1825 -109 1825 -109 1321 -109 c 2,104,-1
 1233 -109 l 2,105,106
 863 -109 863 -109 863 241 c 2,107,-1
 863 263 l 2,108,109
 863 295 863 295 929 328 c 1,110,-1
 992 328 l 2,111,112
 1096 328 1096 328 1211 175 c 1,113,-1
 1299 175 l 2,114,115
 1469 175 1469 175 1518 284 c 1,116,-1
 1518 350 l 2,117,118
 1518 386 1518 386 1255 524 c 1,119,-1
 1233 634 l 1,120,121
 1233 709 1233 709 1386 808 c 1,122,-1
 1386 852 l 2,123,124
 1386 884 1386 884 1321 917 c 1,125,-1
 1299 917 l 2,126,127
 1082 917 1082 917 1082 742 c 1,128,129
 1038 720 1038 720 1016 720 c 1,130,131
 906 758 906 758 906 917 c 0,132,133
 906 1111 906 1111 1364 1223 c 1,97,-1
EndSplineSet
Validated: 33
EndChar

StartChar: uni2783
Encoding: 10115 10115 137
Width: 2681
GlyphClass: 2
Flags: W
LayerCount: 2
Fore
SplineSet
1328 1559 m 0,0,1
 1537 1552 1537 1552 1676 1506 c 0,2,3
 1856 1445 1856 1445 1961 1386 c 0,4,5
 2081 1318 2081 1318 2169 1234 c 0,6,7
 2216 1189 2216 1189 2253 1146 c 0,8,9
 2291 1102 2291 1102 2298 1085 c 0,10,11
 2327 1012 2327 1012 2356 879 c 0,12,13
 2383 752 2383 752 2393 636 c 0,14,15
 2427 251 2427 251 2294 -12 c 0,16,17
 2164 -271 2164 -271 1847 -441 c 0,18,19
 1764 -486 1764 -486 1726 -493 c 0,20,21
 1687 -501 1687 -501 1544 -503 c 0,22,23
 1357 -506 1357 -506 1267 -486 c 0,24,25
 1170 -465 1170 -465 1029 -411 c 0,26,27
 893 -360 893 -360 799 -311 c 0,28,29
 629 -223 629 -223 511 -75 c 0,30,31
 392 75 392 75 332 272 c 0,32,33
 301 372 301 372 302 549 c 0,34,35
 303 716 303 716 339 835 c 0,36,37
 447 1187 447 1187 661 1333 c 0,38,39
 718 1372 718 1372 894 1450 c 0,40,41
 1063 1525 1063 1525 1145 1544 c 0,42,43
 1215 1562 1215 1562 1328 1559 c 0,0,1
1351 1489 m 0,44,45
 1209 1489 1209 1489 1161 1483 c 0,46,47
 1110 1476 1110 1476 1019 1439 c 0,48,49
 839 1365 839 1365 777 1332 c 0,50,51
 710 1297 710 1297 639 1230 c 0,52,53
 542 1140 542 1140 475 1008 c 0,54,55
 402 865 402 865 372 714 c 0,56,57
 359 648 359 648 357 525 c 0,58,59
 355 414 355 414 370 362 c 0,60,61
 379 332 379 332 403 249 c 0,62,63
 437 135 437 135 499 36 c 0,64,65
 564 -67 564 -67 651 -144 c 0,66,67
 754 -235 754 -235 961 -323 c 128,-1,68
 1168 -411 1168 -411 1351 -439 c 0,69,70
 1483 -459 1483 -459 1535 -459 c 0,71,72
 1590 -459 1590 -459 1677 -441 c 0,73,74
 1765 -424 1765 -424 1874 -356 c 0,75,76
 1988 -286 1988 -286 2080 -198 c 0,77,78
 2176 -105 2176 -105 2227 -19 c 0,79,80
 2291 89 2291 89 2313 194 c 0,81,82
 2334 290 2334 290 2335 487 c 0,83,84
 2336 654 2336 654 2324 749 c 0,85,86
 2312 841 2312 841 2275 955 c 0,87,88
 2231 1091 2231 1091 2147.5 1178 c 128,-1,89
 2064 1265 2064 1265 1897 1347 c 0,90,91
 1712 1439 1712 1439 1619 1464 c 0,92,93
 1521 1489 1521 1489 1351 1489 c 0,44,45
967 1139 m 0,94,95
 1036 1139 1036 1139 1120 680 c 1,96,-1
 1359 680 l 1,97,-1
 1359 833 l 2,98,99
 1359 1050 1359 1050 1534 1139 c 1,100,-1
 1599 1139 l 1,101,102
 1687 1103 1687 1103 1687 986 c 2,103,-1
 1687 680 l 1,104,105
 1824 680 1824 680 1840 505 c 1,106,107
 1840 378 1840 378 1665 309 c 1,108,109
 1599 -18 1599 -18 1534 -18 c 2,110,-1
 1512 -18 l 2,111,112
 1339 -18 1339 -18 1339 199 c 1,113,-1
 1359 352 l 1,114,-1
 1293 352 l 2,115,116
 1046 352 1046 352 857 418 c 1,117,-1
 857 680 l 1,118,119
 874 1139 874 1139 967 1139 c 0,94,95
EndSplineSet
Validated: 33
EndChar

StartChar: uni2784
Encoding: 10116 10116 138
Width: 2681
GlyphClass: 2
Flags: W
LayerCount: 2
Fore
SplineSet
1328 1559 m 0,0,1
 1531 1555 1531 1555 1676 1506 c 0,2,3
 1850 1448 1850 1448 1961 1386 c 0,4,5
 2078 1320 2078 1320 2169 1234 c 0,6,7
 2216 1189 2216 1189 2253 1146 c 0,8,9
 2291 1102 2291 1102 2298 1085 c 0,10,11
 2327 1012 2327 1012 2356 879 c 0,12,13
 2383 752 2383 752 2393 636 c 0,14,15
 2427 251 2427 251 2294 -12 c 0,16,17
 2164 -271 2164 -271 1847 -441 c 0,18,19
 1764 -486 1764 -486 1726 -493 c 0,20,21
 1687 -500 1687 -500 1544 -503 c 0,22,23
 1357 -506 1357 -506 1267 -486 c 0,24,25
 1170 -465 1170 -465 1029 -411 c 0,26,27
 893 -360 893 -360 799 -311 c 0,28,29
 629 -223 629 -223 511 -75 c 0,30,31
 392 75 392 75 332 272 c 0,32,33
 301 372 301 372 302 549 c 0,34,35
 303 716 303 716 339 835 c 0,36,37
 446 1184 446 1184 661 1333 c 0,38,39
 712 1370 712 1370 894 1450 c 0,40,41
 1065 1526 1065 1526 1145 1544 c 0,42,43
 1211 1561 1211 1561 1328 1559 c 0,0,1
1351 1489 m 0,44,45
 1209 1489 1209 1489 1161 1483 c 0,46,47
 1110 1476 1110 1476 1019 1439 c 0,48,49
 839 1365 839 1365 777 1332 c 0,50,51
 710 1297 710 1297 639 1230 c 0,52,53
 542 1140 542 1140 475 1008 c 0,54,55
 402 865 402 865 372 714 c 0,56,57
 359 648 359 648 357 525 c 0,58,59
 355 414 355 414 370 362 c 0,60,61
 379 332 379 332 403 249 c 0,62,63
 437 135 437 135 499 36 c 0,64,65
 564 -67 564 -67 651 -144 c 0,66,67
 754 -235 754 -235 961 -323 c 128,-1,68
 1168 -411 1168 -411 1351 -439 c 0,69,70
 1483 -459 1483 -459 1535 -459 c 0,71,72
 1590 -459 1590 -459 1677 -441 c 0,73,74
 1765 -423 1765 -423 1874 -356 c 0,75,76
 1988 -286 1988 -286 2080 -198 c 0,77,78
 2176 -104 2176 -104 2227 -19 c 0,79,80
 2291 89 2291 89 2313 194 c 0,81,82
 2334 290 2334 290 2335 487 c 0,83,84
 2336 655 2336 655 2324 749 c 0,85,86
 2312 842 2312 842 2275 955 c 0,87,88
 2231 1091 2231 1091 2147.5 1178 c 128,-1,89
 2064 1265 2064 1265 1897 1348 c 0,90,91
 1712 1439 1712 1439 1619 1464 c 0,92,93
 1521 1489 1521 1489 1351 1489 c 0,44,45
1303 1123 m 1,94,95
 1761 1106 1761 1106 1761 1014 c 2,96,-1
 1761 948 l 2,97,98
 1761 861 1761 861 1215 861 c 1,99,-1
 1215 795 l 1,100,-1
 1434 795 l 1,101,102
 1804 760 1804 760 1804 424 c 2,103,-1
 1804 380 l 1,104,105
 1729 -57 1729 -57 1500 -57 c 2,106,-1
 1347 -57 l 2,107,108
 931 -57 931 -57 931 227 c 1,109,110
 974 327 974 327 1018 336 c 1,111,-1
 1084 336 l 1,112,-1
 1325 249 l 1,113,114
 1500 249 1500 249 1500 380 c 1,115,116
 1454 452 1454 452 1454 489 c 1,117,-1
 1150 489 l 2,118,119
 888 489 888 489 888 882 c 2,120,-1
 888 971 l 1,121,122
 962 1123 962 1123 1303 1123 c 1,94,95
EndSplineSet
Validated: 33
EndChar

StartChar: uni2785
Encoding: 10117 10117 139
Width: 2681
GlyphClass: 2
Flags: W
LayerCount: 2
Fore
SplineSet
1328 1559 m 0,0,1
 1525 1557 1525 1557 1676 1506 c 0,2,3
 1851 1447 1851 1447 1961 1386 c 0,4,5
 2078 1320 2078 1320 2169 1234 c 0,6,7
 2216 1189 2216 1189 2253 1146 c 0,8,9
 2291 1102 2291 1102 2298 1085 c 0,10,11
 2327 1012 2327 1012 2356 879 c 0,12,13
 2383 752 2383 752 2393 636 c 0,14,15
 2427 251 2427 251 2294 -12 c 0,16,17
 2164 -271 2164 -271 1847 -441 c 0,18,19
 1764 -486 1764 -486 1726 -493 c 0,20,21
 1687 -500 1687 -500 1544 -503 c 0,22,23
 1357 -506 1357 -506 1267 -486 c 0,24,25
 1170 -465 1170 -465 1029 -411 c 0,26,27
 893 -360 893 -360 799 -311 c 0,28,29
 629 -223 629 -223 511 -75 c 0,30,31
 392 75 392 75 332 272 c 0,32,33
 301 372 301 372 302 549 c 0,34,35
 303 716 303 716 339 835 c 0,36,37
 447 1187 447 1187 661 1333 c 0,38,39
 720 1373 720 1373 894 1450 c 0,40,41
 1066 1526 1066 1526 1145 1544 c 0,42,43
 1206 1560 1206 1560 1328 1559 c 0,0,1
1351 1489 m 0,44,45
 1209 1489 1209 1489 1161 1483 c 0,46,47
 1110 1476 1110 1476 1019 1439 c 0,48,49
 839 1365 839 1365 777 1332 c 0,50,51
 710 1297 710 1297 639 1230 c 0,52,53
 542 1140 542 1140 475 1008 c 0,54,55
 402 865 402 865 372 714 c 0,56,57
 359 648 359 648 357 525 c 0,58,59
 355 414 355 414 370 362 c 0,60,61
 379 332 379 332 403 249 c 0,62,63
 437 135 437 135 499 36 c 0,64,65
 564 -67 564 -67 651 -144 c 0,66,67
 754 -235 754 -235 961 -323 c 128,-1,68
 1168 -411 1168 -411 1351 -439 c 0,69,70
 1483 -459 1483 -459 1535 -459 c 0,71,72
 1590 -459 1590 -459 1677 -441 c 0,73,74
 1765 -423 1765 -423 1874 -356 c 0,75,76
 1988 -286 1988 -286 2080 -198 c 0,77,78
 2176 -104 2176 -104 2227 -19 c 0,79,80
 2291 89 2291 89 2313 194 c 0,81,82
 2334 290 2334 290 2335 487 c 0,83,84
 2336 655 2336 655 2324 749 c 0,85,86
 2312 842 2312 842 2275 955 c 0,87,88
 2231 1091 2231 1091 2147.5 1178 c 128,-1,89
 2064 1265 2064 1265 1897 1348 c 0,90,91
 1712 1439 1712 1439 1619 1464 c 0,92,93
 1522 1489 1522 1489 1351 1489 c 0,44,45
1531 1292 m 1,94,95
 1618 1259 1618 1259 1618 1226 c 2,96,-1
 1618 1161 l 1,97,98
 1268 813 1268 813 1268 789 c 2,99,-1
 1268 768 l 1,100,101
 1792 768 1792 768 1792 286 c 2,102,-1
 1792 243 l 2,103,104
 1792 -63 1792 -63 1465 -63 c 2,105,-1
 1356 -63 l 2,106,107
 937 -63 937 -63 875 473 c 1,108,109
 1006 1292 1006 1292 1531 1292 c 1,94,95
1291 418 m 1,110,-1
 1225 374 l 1,111,112
 1267 274 1267 274 1312 265 c 1,113,-1
 1487 265 l 1,114,-1
 1487 352 l 2,115,116
 1487 384 1487 384 1421 418 c 1,117,-1
 1291 418 l 1,110,-1
EndSplineSet
Validated: 33
EndChar
